<?xml version="1.0" encoding="utf-8"?>
<!-- Generator: Adobe Illustrator 22.0.1, SVG Export Plug-In . SVG Version: 6.00 Build 0)  -->
<svg version="1.1" id="Camada_1" xmlns="http://www.w3.org/2000/svg" xmlns:xlink="http://www.w3.org/1999/xlink" x="0px" y="0px"
	 viewBox="0 0 814.7 440.5" style="enable-background:new 0 0 814.7 440.5;" xml:space="preserve">
<style type="text/css">
	.st0{fill:#F53855;}
	.st1{fill:#411559;}
	.st2{fill:#26115A;}
</style>
<g>
	<path class="st0" d="M807.8,95.2c0.1-7.2-2.7-13.9-7.8-19c-5.1-5.2-11.9-8-19.2-8c-14.9,0-27,12.1-27,27c0,12,7.9,22.2,18.8,25.7
		V171c0,28.4-17.9,44-57.9,50.4c-5.3-10.6-17-17.3-35-20h-0.1c-14.3-1.8-25-5.9-32.7-12.4v-13.4c7.7-6.7,18.5-10.9,33.1-12.7h0.1
		c25.4-3.9,38.3-15.8,38.3-35.3V98.3c11.8-2.9,20.6-13.5,20.6-26.2c0-14.9-12.1-27.1-27-27.1s-27,12.2-27,27.1
		c0,13,9.2,23.8,21.4,26.4v29.1c0,13.4-8.4,20.4-28,23.5c-12.7,1.6-23.1,4.9-31.5,9.9V72.3c9.7-5.8,16.3-16.4,16.3-28.6
		c0-18.3-14.8-33.1-33.1-33.1S597,25.5,597,43.8c0,12.1,6.6,22.7,16.3,28.5V148c-7.5-3.6-16.4-6.2-26.9-7.6
		c-24.6-3.7-27.8-14.3-27.8-23.2V96.6c12-2.7,21-13.5,21-26.3c0-14.9-12.1-27-27-27s-27,12.1-27,27c0,12.8,9,23.6,21,26.3v20.6
		c0,19.5,12.8,31.3,38.1,35c12.2,1.6,21.5,4.7,28.6,9.4v42.5c-16.9-10.8-38.4-17.8-64.9-21.3c-41.1-6.1-59.4-21.7-59.4-50.6v-11.6
		c10.7-3.6,18.5-13.7,18.5-25.6c0-14.9-12.1-27-27-27s-27,12.1-27,27c0,11.9,7.8,22.1,18.5,25.6v11.6c0,21.1,7.9,37.7,23.5,49.3
		c12,8.9,28.5,14.9,50.5,18.2h0.2c29.4,3.8,51.4,12.2,67.2,25.5v201.3c10.8,4.2,22.8,4.2,33.6,0v-89.3c7.6-6.5,18.3-10.6,32.7-12.4
		h0.1c25.4-3.9,38.3-15.8,38.3-35.3v-4.4c8-2.5,13.7-10,13.7-18.8s-5.7-16.2-13.7-18.8V238c20.8-3.4,36.6-9.2,48.1-17.8
		c15.6-11.6,23.5-28.2,23.5-49.3v-50.3C800.1,117,807.8,107,807.8,95.2z M695,72.1c0-9.4,7.6-17.1,17-17.1s17,7.7,17,17.1
		s-7.6,17-17,17S695,81.4,695,72.1z M535.6,70.4c0-9.4,7.6-17,17-17s17,7.6,17,17s-7.6,17-17,17S535.6,79.7,535.6,70.4z M463.5,95.2
		c0-9.4,7.6-17,17-17s17,7.6,17,17s-7.6,17-17,17S463.5,104.5,463.5,95.2z M677.9,213.3c11.7,1.7,19.5,4.9,23.8,10.1
		c-22,4-40.2,10.7-54.8,20.4v-40.2C655.2,208.5,665.5,211.7,677.9,213.3z M630.1,20.6c12.7,0,23.1,10.4,23.1,23.1
		c0,12.8-10.4,23.2-23.1,23.2S607,56.5,607,43.8C607,31,617.3,20.6,630.1,20.6z M677.9,313c-12.5,1.6-22.7,4.8-31.1,9.6v-57.5
		c14.2-12.5,33.6-20.8,59.1-25.2v7.6c-8,2.5-13.7,10-13.7,18.8c0,8.8,5.7,16.2,13.7,18.8v4.4C706,303,697.6,310,677.9,313z
		 M780.8,112.2c-9.4,0-17-7.6-17-17s7.6-17,17-17c4.6,0,8.9,1.8,12.1,5c3.2,3.2,4.9,7.4,4.9,12C797.8,104.5,790.1,112.2,780.8,112.2
		z"/>
	<path class="st1" d="M437,218.2c0-4.5-1.7-8.8-4.9-12c-3.2-3.3-7.6-5.1-12.2-5.1c-9.4,0-17.1,7.7-17.1,17.1c0,7.6,5,14.1,11.9,16.3
		v31.7c0,18-11.3,27.8-36.6,31.9c-3.4-6.7-10.8-11-22.1-12.6h-0.1c-9.1-1.1-15.8-3.7-20.6-7.8v-8.5c4.8-4.2,11.7-6.9,20.9-8.1h0.1
		c16.1-2.5,24.2-10,24.2-22.3v-18.5c7.5-1.8,13-8.6,13-16.6c0-9.4-7.7-17.1-17.1-17.1s-17.1,7.7-17.1,17.1c0,8.2,5.8,15.1,13.5,16.7
		v18.4c0,8.5-5.3,12.9-17.7,14.8c-8,1-14.6,3.1-19.9,6.2v-56.1c6.2-3.7,10.3-10.4,10.3-18.1c0-11.5-9.4-20.9-20.9-20.9
		s-20.9,9.4-20.9,21c0,7.7,4.1,14.4,10.3,18v47.9c-4.7-2.3-10.4-3.9-17-4.8c-15.6-2.3-17.6-9-17.6-14.6v-13
		c7.6-1.7,13.3-8.5,13.3-16.6c0-9.4-7.7-17.1-17.1-17.1s-17.1,7.7-17.1,17.1c0,8.1,5.7,14.9,13.3,16.6v13c0,12.3,8.1,19.8,24.1,22.2
		c7.7,1,13.6,3,18.1,6v26.9c-10.7-6.8-24.3-11.3-41.1-13.4c-26-3.9-37.5-13.8-37.5-32v-7.3c6.8-2.3,11.7-8.7,11.7-16.2
		c0-9.4-7.7-17.1-17.1-17.1c-9.4,0-17.1,7.7-17.1,17.1c0,7.5,4.9,13.9,11.7,16.2v7.3c0,13.3,5,23.8,14.8,31.1
		c7.6,5.6,18,9.4,31.9,11.5h0.1c18.6,2.4,32.5,7.7,42.5,16.1v127.3c6.8,2.7,14.4,2.7,21.2,0v-56.4c4.8-4.1,11.6-6.7,20.6-7.8h0.1
		c16.1-2.5,24.2-10,24.2-22.3v-2.8c5-1.6,8.7-6.3,8.7-11.9s-3.6-10.3-8.7-11.9v-6c13.2-2.2,23.2-5.8,30.4-11.3
		c9.8-7.3,14.8-17.8,14.8-31.2v-31.8C432.2,232,437,225.6,437,218.2z M365.7,203.6c0-6,4.8-10.8,10.7-10.8s10.7,4.9,10.7,10.8
		c0,5.9-4.8,10.7-10.7,10.7S365.7,209.5,365.7,203.6z M264.9,202.5c0-5.9,4.8-10.7,10.7-10.7s10.7,4.8,10.7,10.7
		s-4.8,10.7-10.7,10.7S264.9,208.4,264.9,202.5z M219.3,218.2c0-5.9,4.8-10.7,10.7-10.7s10.7,4.8,10.7,10.7s-4.8,10.7-10.7,10.7
		C224.2,228.9,219.3,224.1,219.3,218.2z M355,292.9c7.4,1.1,12.3,3.1,15,6.4c-13.9,2.5-25.4,6.8-34.7,12.9v-25.4
		C340.6,289.9,347.1,291.9,355,292.9z M324.7,171c8.1,0,14.6,6.6,14.6,14.6c0,8.1-6.6,14.7-14.6,14.7c-8.1,0-14.6-6.6-14.6-14.6
		C310.1,177.6,316.6,171,324.7,171z M354.9,355.9c-7.9,1-14.4,3-19.6,6.1v-36.3c9-7.9,21.2-13.2,37.4-16v4.8
		c-5,1.6-8.7,6.3-8.7,11.9s3.6,10.3,8.7,11.9v2.8C372.7,349.6,367.4,354,354.9,355.9z M420,228.9c-5.9,0-10.7-4.8-10.7-10.7
		s4.8-10.7,10.7-10.7c2.9,0,5.6,1.1,7.7,3.2c2,2,3.1,4.7,3.1,7.6C430.7,224.1,425.9,228.9,420,228.9z"/>
	<path class="st2" d="M166.5,279c0-3.2-1.2-6.3-3.5-8.6c-2.3-2.3-5.4-3.6-8.7-3.6c-6.7,0-12.2,5.5-12.2,12.2c0,5.4,3.6,10,8.5,11.6
		v22.6c0,12.8-8.1,19.8-26.1,22.7c-2.4-4.8-7.7-7.8-15.8-9h-0.1c-6.5-0.8-11.3-2.6-14.7-5.6v-6c3.4-3,8.3-4.9,14.9-5.7h0.1
		c11.5-1.7,17.3-7.1,17.3-15.9v-13.2c5.3-1.3,9.3-6.1,9.3-11.8c0-6.7-5.5-12.2-12.2-12.2c-6.7,0-12.2,5.5-12.2,12.2
		c0,5.8,4.1,10.7,9.6,11.9v13.1c0,6.1-3.8,9.2-12.6,10.6c-5.7,0.7-10.4,2.2-14.2,4.5v-39.9c4.4-2.6,7.3-7.4,7.3-12.9
		c0-8.2-6.7-14.9-14.9-14.9s-14.9,6.7-14.9,15c0,5.5,3,10.2,7.3,12.8V303c-3.4-1.6-7.4-2.8-12.1-3.4c-11.1-1.6-12.5-6.4-12.5-10.4
		v-9.3c5.4-1.2,9.5-6.1,9.5-11.9c0-6.7-5.5-12.2-12.2-12.2s-12.2,5.5-12.2,12.2c0,5.8,4.1,10.6,9.5,11.9v9.3
		c0,8.8,5.8,14.1,17.2,15.8c5.5,0.7,9.7,2.1,12.9,4.3v19.1c-7.6-4.9-17.3-8-29.3-9.6C31,316,22.7,309,22.7,296v-5.2
		c4.8-1.6,8.3-6.2,8.3-11.5c0-6.7-5.5-12.2-12.2-12.2s-12,5.1-12,11.9c0,5.4,3.5,9.9,8.3,11.5v5.2c0,9.5,3.6,17,10.6,22.2
		c5.4,4,12.8,6.7,22.7,8.2h0.1c13.2,1.7,23.2,5.5,30.3,11.5v90.7c4.9,1.9,10.3,1.9,15.1,0v-40.2c3.4-2.9,8.3-4.8,14.7-5.6h0.1
		c11.5-1.7,17.3-7.1,17.3-15.9v-2c3.6-1.1,6.2-4.5,6.2-8.5s-2.6-7.3-6.2-8.5v-4.3c9.4-1.5,16.5-4.2,21.7-8
		c7-5.2,10.6-12.7,10.6-22.2v-22.7C163,288.8,166.5,284.3,166.5,279z M115.6,268.5c0-4.2,3.4-7.7,7.7-7.7s7.7,3.5,7.7,7.7
		s-3.4,7.7-7.7,7.7S115.6,272.8,115.6,268.5z M43.8,267.8c0-4.2,3.4-7.7,7.7-7.7s7.7,3.4,7.7,7.7s-3.4,7.7-7.7,7.7
		S43.8,272,43.8,267.8z M11.3,279c0-4.2,3.4-7.7,7.7-7.7s7.7,3.4,7.7,7.7s-3.4,7.7-7.7,7.7S11.3,283.2,11.3,279z M108,332.2
		c5.3,0.8,8.8,2.2,10.7,4.6c-9.9,1.8-18.1,4.8-24.7,9.2v-18.1C97.7,330,102.3,331.5,108,332.2z M86.4,245.3
		c5.7,0,10.4,4.7,10.4,10.4c0,5.8-4.7,10.5-10.4,10.5S76,261.5,76,255.8C76,250,80.7,245.3,86.4,245.3z M108,377.1
		c-5.6,0.7-10.2,2.2-14,4.3v-25.9c6.4-5.6,15.1-9.4,26.6-11.4v3.4c-3.6,1.1-6.2,4.5-6.2,8.5s2.6,7.3,6.2,8.5v2
		C120.6,372.6,116.8,375.8,108,377.1z M154.3,286.6c-4.2,0-7.7-3.4-7.7-7.7s3.4-7.7,7.7-7.7c2.1,0,4,0.8,5.5,2.3
		c1.4,1.4,2.2,3.4,2.2,5.4C162,283.2,158.5,286.6,154.3,286.6z"/>
</g>
</svg>
