<?xml version="1.0" encoding="utf-8"?>
<!-- Generator: Adobe Illustrator 22.0.1, SVG Export Plug-In . SVG Version: 6.00 Build 0)  -->
<svg version="1.1" id="Camada_1" xmlns="http://www.w3.org/2000/svg" xmlns:xlink="http://www.w3.org/1999/xlink" x="0px" y="0px"
	 viewBox="0 0 436.7 426.6" style="enable-background:new 0 0 436.7 426.6;" xml:space="preserve">
<style type="text/css">
	.st0{fill:#186331;}
</style>
<path class="st0" d="M429,95.3c0.1-7.2-2.7-13.9-7.8-19c-5.1-5.2-11.9-8-19.2-8c-14.9,0-27,12.1-27,27c0,12,7.9,22.2,18.8,25.7v50.1
	c0,28.4-17.9,44-57.9,50.4c-5.3-10.6-17-17.3-35-20h-0.1c-14.3-1.8-25-5.9-32.7-12.4v-13.4c7.7-6.7,18.5-10.9,33.1-12.7h0.1
	c25.4-3.9,38.3-15.8,38.3-35.3V98.4c11.8-2.9,20.6-13.5,20.6-26.2c0-14.9-12.1-27.1-27-27.1s-27,12.2-27,27.1
	c0,13,9.2,23.8,21.4,26.4v29.1c0,13.4-8.4,20.4-28,23.5c-12.7,1.6-23.1,4.9-31.5,9.9V72.4c9.7-5.8,16.3-16.4,16.3-28.6
	c0-18.3-14.8-33.1-33.1-33.1s-33.1,14.9-33.1,33.2c0,12.1,6.6,22.7,16.3,28.5v75.7c-7.5-3.6-16.4-6.2-26.9-7.6
	c-24.6-3.7-27.8-14.3-27.8-23.2V96.7c12-2.7,21-13.5,21-26.3c0-14.9-12.1-27-27-27s-27,12.1-27,27c0,12.8,9,23.6,21,26.3v20.6
	c0,19.5,12.8,31.3,38.1,35c12.2,1.6,21.5,4.7,28.6,9.4v42.5c-16.9-10.8-38.4-17.8-64.9-21.3c-41.1-6.1-59.4-21.7-59.4-50.6v-11.6
	c10.7-3.6,18.5-13.7,18.5-25.6c0-14.9-12.1-27-27-27s-27,12.1-27,27c0,11.9,7.8,22.1,18.5,25.6v11.6c0,21.1,7.9,37.7,23.5,49.3
	c12,8.9,28.5,14.9,50.5,18.2h0.2c29.4,3.8,51.4,12.2,67.2,25.5v201.3h33.6v-89.3c7.6-6.5,18.3-10.6,32.7-12.4h0.1
	c25.4-3.9,38.3-15.8,38.3-35.3v-4.4c8-2.5,13.7-10,13.7-18.8s-5.7-16.2-13.7-18.8v-9.5c20.8-3.4,36.6-9.2,48.1-17.8
	c15.6-11.6,23.5-28.2,23.5-49.3v-50.3C421.3,117.1,429,107.1,429,95.3z M316.2,72.2c0-9.4,7.6-17.1,17-17.1s17,7.7,17,17.1
	s-7.6,17-17,17S316.2,81.5,316.2,72.2z M156.8,70.5c0-9.4,7.6-17,17-17s17,7.6,17,17s-7.6,17-17,17S156.8,79.8,156.8,70.5z
	 M84.7,95.3c0-9.4,7.6-17,17-17s17,7.6,17,17s-7.6,17-17,17S84.7,104.6,84.7,95.3z M299.1,213.4c11.7,1.7,19.5,4.9,23.8,10.1
	c-22,4-40.2,10.7-54.8,20.4v-40.2C276.4,208.6,286.7,211.8,299.1,213.4z M251.3,20.7c12.7,0,23.1,10.4,23.1,23.1
	c0,12.8-10.4,23.2-23.1,23.2s-23.1-10.4-23.1-23.1C228.2,31.1,238.5,20.7,251.3,20.7z M299.1,313.1c-12.5,1.6-22.7,4.8-31.1,9.6
	v-57.5c14.2-12.5,33.6-20.8,59.1-25.2v7.6c-8,2.5-13.7,10-13.7,18.8c0,8.8,5.7,16.2,13.7,18.8v4.4
	C327.2,303.1,318.8,310.1,299.1,313.1z M402,112.3c-9.4,0-17-7.6-17-17s7.6-17,17-17c4.6,0,8.9,1.8,12.1,5c3.2,3.2,4.9,7.4,4.9,12
	C419,104.6,411.3,112.3,402,112.3z"/>
</svg>
