<?xml version="1.0" encoding="utf-8"?>
<!-- Generator: Adobe Illustrator 22.0.1, SVG Export Plug-In . SVG Version: 6.00 Build 0) -->
<svg version="1.1" id="Camada_1" xmlns="http://www.w3.org/2000/svg" xmlns:xlink="http://www.w3.org/1999/xlink" x="0px" y="0px" viewBox="0 0 193.3 84" style="enable-background:new 0 0 193.3 84;" xml:space="preserve">
  <style type="text/css">
    .st0,
    .st3 {
      fill: #15a04b;
    }
    .st1 {
      fill: #FDFDFD;
    }
    .st2 {
      fill: #FFFFFF;
    }
  </style>
  <g>
    <g>
      <path class="st0" d="M61.7,21.2L47.3,35.5c-1.2,1.2-3.1,1.2-4.2,0L28.7,21.2c-1.2-1.2-1.2-3.1,0-4.2L43.1,2.6
			c1.2-1.2,3.1-1.2,4.2,0l14.4,14.4C62.8,18.1,62.8,20,61.7,21.2z"/>
      <path
        class="st1"
        d="M56.7,14.8c0-0.5-0.2-0.9-0.5-1.2c-0.3-0.3-0.8-0.5-1.2-0.5c-1,0-1.7,0.8-1.7,1.7c0,0.8,0.5,1.4,1.2,1.7v3.2
			c0,1.8-1.2,2.8-3.7,3.3c-0.3-0.7-1.1-1.1-2.3-1.3h0c-0.9-0.1-1.6-0.4-2.1-0.8V20c0.5-0.4,1.2-0.7,2.1-0.8h0c1.6-0.2,2.5-1,2.5-2.3
			V15c0.8-0.2,1.3-0.9,1.3-1.7c0-1-0.8-1.8-1.7-1.8c-1,0-1.7,0.8-1.7,1.8c0,0.8,0.6,1.5,1.4,1.7v1.9c0,0.9-0.5,1.3-1.8,1.5
			c-0.8,0.1-1.5,0.3-2,0.6v-5.7c0.6-0.4,1.1-1.1,1.1-1.8c0-1.2-1-2.1-2.1-2.1s-2.1,1-2.1,2.1c0,0.8,0.4,1.5,1.1,1.8v4.9
			c-0.5-0.2-1.1-0.4-1.7-0.5c-1.6-0.2-1.8-0.9-1.8-1.5v-1.3c0.8-0.2,1.4-0.9,1.4-1.7c0-1-0.8-1.7-1.7-1.7c-1,0-1.7,0.8-1.7,1.7
			c0,0.8,0.6,1.5,1.4,1.7v1.3c0,1.3,0.8,2,2.5,2.3c0.8,0.1,1.4,0.3,1.9,0.6v2.7c-1.1-0.7-2.5-1.2-4.2-1.4c-2.6-0.4-3.8-1.4-3.8-3.3
			v-0.7c0.7-0.2,1.2-0.9,1.2-1.7c0-1-0.8-1.7-1.7-1.7s-1.7,0.8-1.7,1.7c0,0.8,0.5,1.4,1.2,1.7v0.7c0,1.4,0.5,2.4,1.5,3.2
			c0.8,0.6,1.8,1,3.3,1.2h0c1.9,0.2,3.3,0.8,4.3,1.6v13c0.7,0.3,1.5,0.3,2.2,0v-5.8c0.5-0.4,1.2-0.7,2.1-0.8h0
			c1.6-0.2,2.5-1,2.5-2.3v-0.3c0.5-0.2,0.9-0.6,0.9-1.2c0-0.6-0.4-1-0.9-1.2V24c1.3-0.2,2.4-0.6,3.1-1.2c1-0.7,1.5-1.8,1.5-3.2v-3.2
			C56.2,16.2,56.7,15.6,56.7,14.8z M49.4,13.3c0-0.6,0.5-1.1,1.1-1.1c0.6,0,1.1,0.5,1.1,1.1c0,0.6-0.5,1.1-1.1,1.1
			C49.9,14.4,49.4,13.9,49.4,13.3z M39.1,13.2c0-0.6,0.5-1.1,1.1-1.1c0.6,0,1.1,0.5,1.1,1.1c0,0.6-0.5,1.1-1.1,1.1
			C39.6,14.3,39.1,13.8,39.1,13.2z M34.4,14.8c0-0.6,0.5-1.1,1.1-1.1c0.6,0,1.1,0.5,1.1,1.1c0,0.6-0.5,1.1-1.1,1.1
			C34.9,15.9,34.4,15.4,34.4,14.8z M48.3,22.4c0.8,0.1,1.3,0.3,1.5,0.7c-1.4,0.3-2.6,0.7-3.5,1.3v-2.6
			C46.8,22.1,47.5,22.3,48.3,22.4z M45.2,10c0.8,0,1.5,0.7,1.5,1.5c0,0.8-0.7,1.5-1.5,1.5c-0.8,0-1.5-0.7-1.5-1.5
			C43.7,10.7,44.4,10,45.2,10z M48.3,28.9c-0.8,0.1-1.5,0.3-2,0.6v-3.7c0.9-0.8,2.2-1.3,3.8-1.6v0.5c-0.5,0.2-0.9,0.6-0.9,1.2
			c0,0.6,0.4,1,0.9,1.2v0.3C50.1,28.2,49.5,28.7,48.3,28.9z M54.9,15.9c-0.6,0-1.1-0.5-1.1-1.1c0-0.6,0.5-1.1,1.1-1.1
			c0.3,0,0.6,0.1,0.8,0.3c0.2,0.2,0.3,0.5,0.3,0.8C56,15.4,55.5,15.9,54.9,15.9z"/>
    </g>
    <g>
      <path class="st2" d="M59.7,16c0,0,6.4,0,7,0c5,0,5.4,4.9,4.7,9.1c-0.9,5.9-3.1,8.2-7.2,8.2h-7.2L59.7,16z M64.2,30.3
			c2.2,0,3.4-2.2,3.9-5.7c0.7-4.5-0.1-5.8-2.2-5.8h-3.3l-1.8,11.4H64.2z"/>
      <path
        class="st2"
        d="M74.5,19.4c0.5-2.9,2.4-3.5,4.3-3.5c0,0,5.8,0.2,7.3,0.4l-0.4,2.7h-6.6c-1.2,0-1.3,0.7-1.4,1.3l-0.4,2.7
			l6.7,0.2L83.5,26l-6.8,0.2L76.3,29c-0.2,1.3,0.6,1.2,1.3,1.2H84L83.5,33c-1.4,0.2-7.2,0.4-7.2,0.4c-1.7,0.1-3.9-0.6-3.4-3.6
			L74.5,19.4z"/>
      <path class="st2" d="M91,16l1.7,13l6.1-13h3.7l-8.5,17.3h-3.8L87.6,16H91z"/>
      <path class="st2" d="M104.6,16h7.2c2.2,0,4.6,1.2,4,5.7c-0.8,5.5-3.7,5.3-5.7,5.2c-0.9,0-3.7-0.4-3.9-0.4l-1.1,6.8h-3.3L104.6,16z
			 M110.3,24c1,0,1.8-0.5,2.2-2.6c0.3-2-0.5-2.4-1.3-2.4h-3.7l-0.8,5.1H110.3z"/>
      <path class="st2" d="M121.9,16h3.8l2.9,17.3h-3.4l-0.7-3.8h-5.6l-1.9,3.8h-3.7L121.9,16z M124.1,26.5l-1-6.3l-3,6.3H124.1z"/>
      <path class="st2" d="M132.9,16h7.3c2.6,0,4.4,1.6,3.9,5.7c-0.6,4.3-2.7,4.7-3.6,4.8l2.5,6.8h-3.7l-2-6.6l-2.7-0.2l-1.1,6.8h-3.3
			L132.9,16z M138.6,23.9c1.2,0,2-0.7,2.2-2.5c0.2-2-0.2-2.5-1.3-2.5h-3.7l-0.8,5H138.6z"/>
      <path class="st2" d="M152.5,16h3.8l2.9,17.3h-3.4l-0.7-3.8h-5.6l-1.9,3.8h-3.7L152.5,16z M154.7,26.5l-1-6.3l-3,6.3H154.7z"/>
      <path class="st2" d="M163.5,16h3.3l4.9,11.3l1.8-11.3h3.3l-2.7,17.3h-3.3l-5-11.1l-1.8,11.1h-3.3L163.5,16z"/>
      <path class="st2" d="M184.6,16h3.8l2.9,17.3h-3.4l-0.7-3.8h-5.6l-1.9,3.8H176L184.6,16z M186.8,26.5l-1-6.3l-3,6.3H186.8z
			 M188.3,11.1h2.9l-3.4,3.3h-2.2L188.3,11.1z"/>
    </g>
    <g>
      <path class="st2" d="M13.7,32.3c4.5,0,5.6,0.3,8.1,1.3l-0.8,4.8c0,0-3.1-0.5-6.3-0.5c-2.6,0-3.7-0.1-4.7,6.3
			c-0.8,5.2-0.4,6.2,2.8,6.2c3.3,0,6.4-0.3,6.4-0.3l-0.8,4.7c-2.1,0.8-3.8,1.1-8.5,1c-5.8-0.1-7.3-5-6.1-12.7
			C5.1,35.7,7.5,32.3,13.7,32.3z"/>
      <path class="st2" d="M32.7,32.4c5.4,0,9.4,1.8,7.7,12.6C38.7,55.2,34.7,55.7,29,55.7s-9.4-1.8-7.7-12.3
			C23,32.6,27.4,32.4,32.7,32.4z M29.8,50.2c2.7,0,3.6-1.1,4.4-6c0.8-5.3,0.4-6.4-2.4-6.4c-2.8,0-3.6,0.7-4.4,6.4
			C26.6,49,26.8,50.2,29.8,50.2z"/>
      <path class="st2" d="M44.3,32.5h6.2l4.7,11.9l1.9-11.9h6.1l-3.6,23h-6.1L48.7,44l-1.8,11.6h-6.1L44.3,32.5z"/>
      <path class="st2" d="M64.6,38.2c0.7-4.5,3.9-5.7,6.8-5.7c0,0,5.9,0,9.6,0.5l-0.8,5.1h-7.8c-1.6,0-1.8,0.9-1.9,1.8l-0.2,1.4
			l7.8,0.3l-0.8,5.1L69.3,47l-1.4,8.6h-6.1L64.6,38.2z"/>
      <path
        class="st2"
        d="M82.1,37.6c0.7-4.5,3.9-5,6.7-5c0,0,5.9,0,9.6,0.5l-0.8,5.1h-7.8c-1.6,0-1.8,0.9-1.9,1.8l-0.2,1.3l7.7,0.3
			l-0.8,5.1l-7.8,0.3l-0.3,1.5c-0.3,1.7,0.8,1.6,1.7,1.6h7.5l-0.8,5.1c-3.3,0.4-9.4,0.5-9.4,0.5c-2.3,0.1-6.1-0.7-5.3-5.5L82.1,37.6
			z"/>
      <path class="st2" d="M100.6,32.5h9.7c4.1,0,6.8,2.5,5.9,8.2c-0.9,5.5-3.2,5.9-4.5,6.1l3.2,8.7h-6.9l-2.4-8.5l-1.1-0.1l-1.4,8.6H97
			L100.6,32.5z M107.9,42.4c1.6,0,1.9-0.8,2.1-2.5c0.2-1.4,0-2.2-1.4-2.2h-2.7l-0.8,4.7H107.9z"/>
      <path
        class="st2"
        d="M118.4,37.6c0.7-4.5,3.9-5,6.7-5c0,0,5.9,0,9.6,0.5l-0.8,5.1h-7.8c-1.6,0-1.8,0.9-1.9,1.8l-0.2,1.3l7.7,0.3
			l-0.8,5.1l-7.8,0.3l-0.3,1.5c-0.3,1.7,0.8,1.6,1.7,1.6h7.5l-0.8,5.1c-3.3,0.4-9.4,0.5-9.4,0.5c-2.3,0.1-6.1-0.7-5.3-5.5
			L118.4,37.6z"/>
      <path class="st2" d="M136.9,32.5h6.2l4.7,11.9l1.9-11.9h6.1l-3.6,23H146L141.3,44l-1.8,11.6h-6.1L136.9,32.5z"/>
      <path class="st2" d="M165.8,32.3c4.5,0,5.8,0,8.4,1l-1,5c0,0-3.1-0.5-6.3-0.5c-2.6,0-3.7-0.1-4.7,6.3c-0.8,5.2-0.4,6.2,2.8,6.2
			c3.3,0,6.4-0.3,6.4-0.3l-0.8,4.7c-2.1,0.8-3.8,1.1-8.5,1c-5.8-0.1-7.3-5-6.1-12.7C157.1,35.7,159.5,32.3,165.8,32.3z"/>
      <path
        class="st2"
        d="M175,37.6c0.7-4.5,3.9-5,6.7-5c0,0,5.9,0,9.6,0.5l-0.8,5.1h-7.8c-1.6,0-1.8,0.9-1.9,1.8l-0.2,1.3l7.7,0.3
			l-0.8,5.1l-7.8,0.3l-0.3,1.5c-0.3,1.7,0.8,1.6,1.7,1.6h7.5l-0.8,5.1c-3.3,0.4-9.4,0.5-9.4,0.5c-2.3,0.1-6.1-0.7-5.3-5.5L175,37.6z
			"/>
    </g>
    <g>
      <path class="st3" d="M2.9,77c2.8-1.7,11.7-8.1,12-10.4c0.3-1.9-0.7-2.1-3.3-2.1h-7l0.7-4.6c2.7-0.6,4.9-0.9,9.4-0.9
			c4.9,0,6.9,3.9,6.2,8.3c-0.7,4.3-5.9,7.8-8.2,9.6h6.6l-0.9,5.5H2.1L2.9,77z"/>
      <path
        class="st3"
        d="M23.2,65.6c0.7-4.1,2.5-6.4,6.5-6.4h5.2c4.6,0,6,2.9,5.5,6l-1.7,10.9c-0.6,3.7-2.4,6-6.2,6h-5.2
			c-4.1,0-6.4-2.3-5.8-6L23.2,65.6z M29.3,76.8h1.3c1,0,1.8-0.1,2-1.8l1.4-8.4c0.2-1.4-0.4-1.8-1.2-1.8H31c-1.6,0-1.8,1.4-1.9,1.8
			L27.9,75C27.6,76.7,28.6,76.8,29.3,76.8z"/>
      <path class="st3" d="M42.8,61.8c0,0,2.7-0.8,4.2-2.6h6l-3.6,23h-6.1L46,65.1c-1.4,0.9-3.8,0.6-3.8,0.6L42.8,61.8z"/>
      <path
        class="st3"
        d="M53.3,74.4c0.3-1.6,1.1-2.8,2.9-3.1c-2.1-1.2-1.9-3.4-1.6-5.3l0.3-2c0.7-4.4,3.8-4.8,7-4.8h4.9
			c3.7,0,5.5,2.1,4.9,6.1l-0.2,1.4c-0.1,0.9-0.9,2.7-3,3c2.1,0.4,1.9,3.7,1.7,5.1l-0.4,2.4c-0.8,5.1-3.6,5.2-6.7,5.2h-4.9
			c-6,0-5.6-4.2-5.3-6.3L53.3,74.4z M60.5,77.2h1.6c1.4,0,1.6-0.6,1.7-1.4l0.2-1.3c0.1-0.8,0.1-1.5-1.2-1.5h-1.7
			c-1.3,0-1.6,0.6-1.7,1.5l-0.2,1.3C59.1,76.8,59.4,77.2,60.5,77.2z M61.9,68.2h1.6c1.4,0,1.5-0.4,1.7-1.4l0.1-0.9
			c0.3-1.5-0.5-1.5-1.2-1.5h-1.6c-0.9,0-1.5,0.1-1.7,1.5l-0.1,0.9C60.5,68,60.9,68.2,61.9,68.2z"/>
    </g>
  </g>
</svg>
