<?xml version="1.0" standalone="no"?>
<!DOCTYPE svg PUBLIC "-//W3C//DTD SVG 1.1//EN" "http://www.w3.org/Graphics/SVG/1.1/DTD/svg11.dtd" >
<svg xmlns="http://www.w3.org/2000/svg" xmlns:xlink="http://www.w3.org/1999/xlink" version="1.1">
<metadata>
Created by FontForge 20170731 at Mon Jul 24 16:10:42 2017
 By Aleksey,,,
Copyright 2017 The Exo Project Authors (https://github.com/NDISCOVER/Exo-1.0)
</metadata>
<defs>
<font id="Exo-Bold" horiz-adv-x="609" >
  <font-face 
    font-family="Exo"
    font-weight="700"
    font-stretch="normal"
    units-per-em="1000"
    panose-1="0 0 8 0 0 0 0 0 0 0"
    ascent="800"
    descent="-200"
    x-height="537"
    cap-height="740"
    bbox="-538 -270 1346 1121"
    underline-thickness="50"
    underline-position="-150"
    unicode-range="U+000D-FB04"
  />
<missing-glyph horiz-adv-x="657" 
d="M604 544v-551h-551v551h551zM536 476h-415v-415h415v415zM329 207l-106 -106l-61 61l106 106l-106 106l61 61l106 -106l106 106l61 -61l-106 -106l106 -106l-61 -61z" />
    <glyph glyph-name="fi" unicode="fi" horiz-adv-x="657" 
d="M600 0h-148v418h-217v-418h-148v418h-76v95l76 24v58q0 96 39 135t125 39q40 0 75.5 -4.5t58.5 -12.5v-107q-32 3 -83 3q-37 0 -52 -17.5t-15 -56.5v-37h365v-537zM598 749q5 -6 5 -15v-98q0 -20 -19 -20h-114q-10 0 -15.5 5.5t-5.5 14.5v98q0 21 21 21h114q9 0 14 -6z
" />
    <glyph glyph-name="fl" unicode="fl" horiz-adv-x="708" 
d="M697 107v-107h-77q-85 0 -126.5 42.5t-41.5 133.5v470q-82 2 -120 2q-53 0 -75 -17.5t-22 -56.5v-37h137v-119h-137v-418h-148v418h-76v95l76 24v43q0 105 53 147t170 42q81 0 160 -8t130 -19v-544q0 -44 13 -62.5t43 -22.5z" />
    <glyph glyph-name="f_f" unicode="ff" horiz-adv-x="790" 
d="M650.5 632.5q-12.5 -15.5 -12.5 -51.5v-44h136v-119h-136v-418h-149v418h-254v-418h-148v418h-76v95l76 24v58q0 96 39 135t125 39q40 0 75.5 -4.5t58.5 -12.5v-107q-32 3 -83 3q-37 0 -52 -17.5t-15 -56.5v-37h254v36q0 103 42 149.5t137 46.5q57 0 111 -15v-106h-82
q-34 0 -46.5 -15.5z" />
    <glyph glyph-name="f_f_i" unicode="ffi" horiz-adv-x="1052" 
d="M995 0h-148v418h-217v-418h-148v418h-247v-418h-148v418h-76v95l76 24v58q0 96 39 135t125 39q40 0 75.5 -4.5t58.5 -12.5v-107q-32 3 -83 3q-37 0 -52 -17.5t-15 -56.5v-37h247v58q0 96 39 135t125 39q40 0 75.5 -4.5t58.5 -12.5v-107q-32 3 -83 3q-37 0 -52 -17.5
t-15 -56.5v-37h365v-537zM993 749q5 -6 5 -15v-98q0 -20 -19 -20h-114q-10 0 -15.5 5.5t-5.5 14.5v98q0 21 21 21h114q9 0 14 -6z" />
    <glyph glyph-name="f_f_l" unicode="ffl" horiz-adv-x="1104" 
d="M1092 107v-107h-77q-85 0 -126.5 42.5t-41.5 133.5v470q-82 2 -120 2q-53 0 -75 -17.5t-22 -56.5v-37h137v-119h-137v-418h-148v418h-247v-418h-148v418h-76v95l76 24v58q0 96 39 135t125 39q40 0 75.5 -4.5t58.5 -12.5v-107q-32 3 -83 3q-37 0 -52 -17.5t-15 -56.5v-37
h247v43q0 105 53 147t170 42q81 0 160 -8t130 -19v-544q0 -44 13 -62.5t43 -22.5z" />
    <glyph glyph-name=".notdef" horiz-adv-x="657" 
d="M604 544v-551h-551v551h551zM536 476h-415v-415h415v415zM329 207l-106 -106l-61 61l106 106l-106 106l61 61l106 -106l106 106l61 -61l-106 -106l106 -106l-61 -61z" />
    <glyph glyph-name=".null" horiz-adv-x="0" 
 />
    <glyph glyph-name="nonmarkingreturn" unicode="&#xd;" horiz-adv-x="258" 
 />
    <glyph glyph-name="space" unicode=" " horiz-adv-x="258" 
 />
    <glyph glyph-name="exclam" unicode="!" horiz-adv-x="272" 
d="M61 739h148l-20 -536h-110zM75.5 4q-5.5 5 -5.5 15v102q0 21 20 21h86q22 0 22 -21v-102q0 -20 -22 -20h-86q-9 0 -14.5 5z" />
    <glyph glyph-name="quotedbl" unicode="&#x22;" horiz-adv-x="400" 
d="M34 687v67h142v-67l-8 -190h-124zM216 687v67h142v-67l-8 -190h-124z" />
    <glyph glyph-name="numbersign" unicode="#" horiz-adv-x="723" 
d="M167 207h-151l15 99h155l20 119h-157l16 99h161l38 208h100l-38 -208h114l37 208h100l-37 -208h170l-15 -99h-171l-20 -119h171l-14 -99h-179l-38 -207h-100l38 207h-115l-38 -207h-100zM404 306l21 119h-119l-20 -119h118z" />
    <glyph glyph-name="dollar" unicode="$" 
d="M493.5 385.5q50.5 -52.5 50.5 -137.5v-42q0 -111 -54.5 -157.5t-159.5 -53.5v-84h-84v84q-112 5 -191 24v117q89 -9 225 -9q61 0 92 16.5t31 58.5v27q0 33 -19.5 50.5t-55.5 17.5h-63q-110 0 -164.5 48t-54.5 157v36q0 98 51.5 148.5t152.5 58.5l-4 55l79 24l5 -78l-3 -1
q87 -4 182 -24v-117q-137 9 -207 9q-57 0 -86 -17.5t-29 -64.5v-20q0 -38 21.5 -55.5t65.5 -17.5h73q96 0 146.5 -52.5z" />
    <glyph glyph-name="percent" unicode="%" horiz-adv-x="964" 
d="M64.5 382q-31.5 33 -31.5 99v119q0 66 31.5 99t104.5 33h101q71 0 102.5 -33t31.5 -99v-119q0 -66 -31.5 -99t-104.5 -33h-101q-71 0 -102.5 33zM655 732h96l-444 -732h-102zM250 445q33 0 46 13.5t13 44.5v75q0 33 -13 45.5t-44 12.5h-65q-30 0 -44 -11.5t-14 -46.5v-75
q0 -31 12 -44.5t44 -13.5h65zM592 36q-31 33 -31 99v119q0 66 31 99t104 33h102q71 0 102.5 -33t31.5 -99v-119q0 -66 -31.5 -99t-104.5 -33h-102q-71 0 -102 33zM777 99q34 0 47 13.5t13 44.5v75q0 33 -13 45.5t-45 12.5h-64q-31 0 -45 -12t-14 -46v-75q0 -31 12.5 -44.5
t44.5 -13.5h64z" />
    <glyph glyph-name="ampersand" unicode="&#x26;" horiz-adv-x="698" 
d="M129 20q-44 25 -69 70t-25 103q0 54 23 102t67 85l60 51l-13 20q-28 43 -37 74.5t-9 64.5q0 76 52 111.5t136 35.5q55 0 107.5 -6.5t86.5 -16.5v-108h-166q-67 0 -67 -50q0 -18 11 -40t36 -55l138 -190l143 129l54 -67l-67 -102l-57 -55l132 -176h-153l-73 92l-37 -32
q-40 -35 -80.5 -50t-92.5 -15q-56 0 -100 25zM296.5 138q19.5 8 39.5 28l25 25l-105 139l-37 -34q-24 -22 -33.5 -42t-9.5 -44q0 -36 21.5 -58t57.5 -22q22 0 41.5 8z" />
    <glyph glyph-name="quotesingle" unicode="'" horiz-adv-x="218" 
d="M34 687v67h142v-67l-8 -190h-124z" />
    <glyph glyph-name="parenleft" unicode="(" horiz-adv-x="387" 
d="M106.5 22.5q-48.5 127.5 -48.5 303.5q0 167 50 297t131 237h132q-76 -125 -120.5 -254t-44.5 -280q0 -153 41 -275t124 -261h-132q-84 105 -132.5 232.5z" />
    <glyph glyph-name="parenright" unicode=")" horiz-adv-x="386" 
d="M136 45q44 128 44 280q0 153 -40.5 275t-124.5 260h133q85 -106 133 -232.5t48 -302.5q0 -168 -49 -297.5t-132 -237.5h-133q77 127 121 255z" />
    <glyph glyph-name="asterisk" unicode="*" horiz-adv-x="432" 
d="M170 722l53 17l62 -125l-71 -28zM244 566l117 81l32 -44l-101 -96zM39 573v55l140 15l3 -75zM95 416l28 137l73 -19l-48 -135zM193 469l40 64l116 -88l-33 -44z" />
    <glyph glyph-name="plus" unicode="+" 
d="M528 296h-164v-164h-120v164h-164v120h164v164h120v-164h164v-120z" />
    <glyph glyph-name="comma" unicode="," horiz-adv-x="234" 
d="M75.5 -86.5q-13.5 2.5 -17.5 3.5v47q14 0 20.5 4.5t6.5 15.5v26h-10q-9 0 -15 5.5t-6 16.5v87q0 23 21 23h84q21 0 21 -23v-137q0 -40 -21.5 -55.5t-53.5 -15.5q-16 0 -29.5 2.5z" />
    <glyph glyph-name="hyphen" unicode="-" horiz-adv-x="350" 
d="M22 350h306v-120h-306v120z" />
    <glyph glyph-name="period" unicode="." horiz-adv-x="234" 
d="M59.5 4q-5.5 5 -5.5 15v102q0 21 20 21h86q22 0 22 -21v-102q0 -20 -22 -20h-86q-9 0 -14.5 5z" />
    <glyph glyph-name="slash" unicode="/" horiz-adv-x="462" 
d="M296 770h151l-281 -842h-151z" />
    <glyph glyph-name="zero" unicode="0" horiz-adv-x="647" 
d="M105 45q-50 49 -50 142v360q0 96 51.5 147.5t143.5 51.5h154q92 0 140 -52t48 -147v-360q0 -92 -49.5 -141.5t-138.5 -49.5h-155q-94 0 -144 49zM364 129q80 0 80 80v324q0 80 -74 80h-91q-37 0 -56.5 -20.5t-19.5 -59.5v-323q0 -81 81 -81h80z" />
    <glyph glyph-name="one" unicode="1" horiz-adv-x="372" 
d="M162 605l-131 -17v95l147 64h132v-747h-148v605z" />
    <glyph glyph-name="two" unicode="2" horiz-adv-x="586" 
d="M46 119l247 245q46 44 66.5 80t20.5 76q0 42 -25.5 64t-83.5 22h-208v116q64 11 118.5 17.5t118.5 6.5q124 0 176 -50.5t52 -151.5q0 -72 -28.5 -128.5t-90.5 -116.5l-166 -165h308v-134h-505v119z" />
    <glyph glyph-name="three" unicode="3" horiz-adv-x="579" 
d="M38 15v119h227q63 0 90.5 15t27.5 54v31q0 70 -97 74l-182 7v114l176 10q47 2 71 17t24 47v25q0 40 -27 59t-88 19h-206v118q152 24 265 22q98 -1 150 -47.5t52 -135.5v-55q0 -55 -25 -88.5t-67 -47.5q44 -13 73.5 -55t29.5 -103v-38q0 -88 -55.5 -135t-155.5 -47
q-157 0 -283 21z" />
    <glyph glyph-name="four" unicode="4" horiz-adv-x="619" 
d="M375 157h-324l-28 70l240 513h151l-215 -457h176v144l29 85h119v-229h76v-102l-76 -24v-156h-148v156z" />
    <glyph glyph-name="five" unicode="5" horiz-adv-x="607" 
d="M59 11v117h261q50 0 72 24t22 60v51q0 76 -76 76h-58q-33 0 -49.5 -13.5t-21.5 -41.5h-140l21 456h444v-133h-317l-8 -176q15 16 41.5 24.5t59.5 8.5h81q83 0 127.5 -48.5t44.5 -125.5v-109q0 -96 -63 -141t-186 -45q-97 0 -255 16z" />
    <glyph glyph-name="six" unicode="6" horiz-adv-x="607" 
d="M148 27q-48 32 -72.5 111.5t-24.5 221.5q0 209 70 297.5t209 88.5q110 0 189 -16v-117h-175q-74 0 -109.5 -46t-35.5 -138q60 17 167 17q106 0 151.5 -43.5t45.5 -126.5v-106q0 -90 -49 -132.5t-134 -42.5h-108q-76 0 -124 32zM346 128q34 0 51.5 16.5t17.5 54.5v49
q0 42 -20.5 57t-69.5 15h-126q0 -75 11 -116.5t33 -58.5t59 -17h44z" />
    <glyph glyph-name="seven" unicode="7" horiz-adv-x="554" 
d="M338 592h-315v148h467l39 -63l-245 -677h-166z" />
    <glyph glyph-name="eight" unicode="8" horiz-adv-x="628" 
d="M111 31.5q-53 35.5 -53 125.5v101q0 44 22 77t60 42q-42 20 -54.5 51t-12.5 79v84q0 80 48 117.5t125 37.5h140q76 0 123 -37.5t47 -117.5v-84q0 -35 -16 -73t-50 -45q45 -10 62.5 -47.5t17.5 -80.5v-104q0 -90 -48.5 -125.5t-133.5 -35.5h-135q-89 0 -142 35.5zM351 441
q34 0 47 17.5t13 50.5v47q0 37 -14.5 50.5t-43.5 13.5h-74q-34 0 -48 -13.5t-14 -50.5v-47q0 -37 14 -52.5t47 -15.5h73zM353 121q39 0 54 15.5t15 47.5v66q0 65 -69 65h-75q-29 0 -50.5 -17t-21.5 -48v-66q0 -33 18.5 -48t54.5 -15h74z" />
    <glyph glyph-name="nine" unicode="9" horiz-adv-x="607" 
d="M91 11v117h174q74 0 109.5 46t35.5 138q-32 -10 -72 -13.5t-95 -3.5q-106 0 -151 43.5t-45 126.5v106q0 90 48.5 132t134.5 42h107q76 0 124 -31.5t73 -111.5t25 -222q0 -209 -70.5 -297t-209.5 -88q-111 0 -188 16zM410 421q0 75 -10.5 116.5t-32.5 58t-59 16.5h-45
q-34 0 -51 -16.5t-17 -54.5v-48q0 -42 20.5 -57t69.5 -15h125z" />
    <glyph glyph-name="colon" unicode=":" horiz-adv-x="234" 
d="M59.5 4q-5.5 5 -5.5 15v102q0 21 20 21h86q22 0 22 -21v-102q0 -20 -22 -20h-86q-9 0 -14.5 5zM59.5 400q-5.5 5 -5.5 15v102q0 21 20 21h86q22 0 22 -21v-102q0 -20 -22 -20h-86q-9 0 -14.5 5z" />
    <glyph glyph-name="semicolon" unicode=";" horiz-adv-x="234" 
d="M59.5 400q-5.5 5 -5.5 15v102q0 21 20 21h86q22 0 22 -21v-102q0 -20 -22 -20h-86q-9 0 -14.5 5zM75.5 -86.5q-13.5 2.5 -17.5 3.5v47q14 0 20.5 4.5t6.5 15.5v26h-10q-9 0 -15 5.5t-6 16.5v87q0 23 21 23h84q21 0 21 -23v-137q0 -40 -21.5 -55.5t-53.5 -15.5
q-16 0 -29.5 2.5z" />
    <glyph glyph-name="less" unicode="&#x3c;" 
d="M96 285v131l415 131v-129l-271 -66l271 -73v-130z" />
    <glyph glyph-name="equal" unicode="=" 
d="M80 296h448v-120h-448v120zM80 536h448v-120h-448v120z" />
    <glyph glyph-name="greater" unicode="&#x3e;" 
d="M98 279l271 72l-271 67v129l415 -131v-131l-415 -136v130z" />
    <glyph glyph-name="question" unicode="?" horiz-adv-x="529" 
d="M148 401h70q54 0 79.5 17.5t25.5 62.5v32q0 49 -28 71t-85 22q-41 0 -81 -8.5t-86 -24.5v109q90 57 215 57q103 0 158 -55t55 -147v-59q0 -189 -212 -189v-86h-111v198zM145.5 4q-5.5 5 -5.5 15v102q0 21 20 21h86q22 0 22 -21v-102q0 -20 -22 -20h-86q-9 0 -14.5 5z" />
    <glyph glyph-name="at" unicode="@" horiz-adv-x="882" 
d="M112.5 -131.5q-61.5 53.5 -61.5 168.5v290q0 89 50 148.5t169 59.5h180q53 0 92 -11.5t64.5 -47t25.5 -103.5v-350h-90l-20 56q-1 -1 -41 -33t-119 -32q-62 0 -95 41.5t-33 97.5v38q0 67 39.5 101t111.5 34h136v37q0 34 -16.5 47t-51.5 13h-183q-50 0 -79 -22t-29 -81
v-268q0 -67 32 -95.5t76 -28.5h319q63 0 89.5 31.5t26.5 92.5v439q0 61 -31 96t-85 35h-400v89q40 8 131 15.5t179 7.5h90q96 0 162 -58t66 -185v-439q0 -121 -55.5 -179t-165.5 -58h-326q-96 0 -157.5 53.5zM471 136.5q33 11.5 50 30.5v81l-111 -7q-28 -2 -42 -10.5
t-14 -35.5v-21q0 -49 55 -49q29 0 62 11.5z" />
    <glyph glyph-name="A" unicode="A" horiz-adv-x="685" 
d="M249 740h187l232 -740h-154l-47 155h-252l-46 -155h-152zM432 288l-91 325l-91 -325h182z" />
    <glyph glyph-name="B" unicode="B" horiz-adv-x="627" 
d="M64 740h291q211 0 211 -194q0 -66 -27 -107.5t-76 -54.5q54 -13 90.5 -58t36.5 -122q0 -110 -55.5 -157t-166.5 -47h-304v740zM356 435q32 0 50.5 24t18.5 64q0 44 -19.5 64t-51.5 20h-142v-172h144zM364 133q85 0 85 97q0 42 -23.5 66.5t-61.5 24.5h-152v-188h152z" />
    <glyph glyph-name="C" unicode="C" horiz-adv-x="586" 
d="M163 23.5q-57 29.5 -87.5 112t-30.5 236.5q0 148 31.5 230t89.5 113.5t149 31.5q68 0 128 -10.5t103 -24.5v-115q-30 7 -85 12t-115 5t-92 -18.5t-46.5 -70t-14.5 -154.5q0 -102 13 -153t45 -71t95 -20q122 0 200 10v-114q-89 -29 -233 -29q-93 0 -150 29.5z" />
    <glyph glyph-name="D" unicode="D" horiz-adv-x="680" 
d="M64 740h313q142 0 200 -96t58 -274q0 -187 -64 -278.5t-194 -91.5h-313v740zM362 133q67 0 96 58.5t29 178.5q0 94 -13.5 145.5t-40.5 71.5t-71 20h-150v-474h150z" />
    <glyph glyph-name="E" unicode="E" horiz-adv-x="597" 
d="M118 27q-54 32 -54 131v413q0 90 49.5 129.5t119.5 39.5q153 0 320 -13v-124h-276q-65 0 -65 -61v-107l293 -8v-117l-293 -8v-102q0 -66 62 -66h279v-124q-133 -15 -309 -15q-72 0 -126 32z" />
    <glyph glyph-name="F" unicode="F" horiz-adv-x="583" 
d="M64 571q0 90 49.5 129.5t119.5 39.5q199 0 320 -13v-124h-279q-30 0 -46 -16.5t-16 -42.5v-127l293 -8v-117l-293 -8v-284h-148v571z" />
    <glyph glyph-name="G" unicode="G" horiz-adv-x="666" 
d="M134 40q-50 45 -69.5 126.5t-19.5 203.5q0 128 22.5 209t82 124.5t168.5 43.5q71 0 128 -8.5t122 -24.5v-114q-39 5 -99.5 9.5t-123.5 4.5q-64 0 -96 -22.5t-44 -74t-12 -148.5t12 -147.5t39 -70.5t77 -20q38 0 75 6t64 15v144h-133v117q30 4 78.5 7t92.5 3q62 0 104 -3
v-420h-111l-20 50q-37 -22 -89.5 -38.5t-109.5 -16.5q-88 0 -138 45z" />
    <glyph glyph-name="H" unicode="H" horiz-adv-x="703" 
d="M64 740h148v-308h279v308h149v-740h-149v299h-279v-299h-148v740z" />
    <glyph glyph-name="I" unicode="I" horiz-adv-x="276" 
d="M64 740h148v-740h-148v740z" />
    <glyph glyph-name="J" unicode="J" horiz-adv-x="404" 
d="M84 0q-33 6 -58 14v118q70 -5 88 -5q39 0 58.5 18t19.5 59v536h148v-558q0 -96 -45.5 -142t-146.5 -46q-31 0 -64 6z" />
    <glyph glyph-name="K" unicode="K" horiz-adv-x="645" 
d="M64 740h148v-306h98l152 306h158l-192 -372l198 -368h-158l-158 300h-98v-300h-148v740z" />
    <glyph glyph-name="L" unicode="L" horiz-adv-x="535" 
d="M107 41q-43 41 -43 134v565h148v-541q0 -65 66 -65h234v-134h-273q-89 0 -132 41z" />
    <glyph glyph-name="M" unicode="M" horiz-adv-x="883" 
d="M696 0l-57 484l-129 -484h-139l-129 478l-55 -478h-143l86 740h142l170 -567l169 567h141l87 -740h-143z" />
    <glyph glyph-name="N" unicode="N" horiz-adv-x="704" 
d="M69 740h119l310 -488v488h148v-740h-119l-309 488v-488h-149v740z" />
    <glyph glyph-name="O" unicode="O" horiz-adv-x="699" 
d="M176 23q-65 29 -98 110t-33 236t33.5 236.5t98.5 111.5t173 30q109 0 173.5 -30t97.5 -111.5t33 -236.5t-33 -236t-97.5 -110t-173.5 -29t-174 29zM445.5 145.5q32.5 18.5 46.5 70t14 153.5q0 106 -14 157.5t-46.5 69.5t-95.5 18q-62 0 -94.5 -18t-47.5 -70t-15 -157
q0 -103 14 -154t46.5 -69.5t96.5 -18.5q63 0 95.5 18.5z" />
    <glyph glyph-name="P" unicode="P" horiz-adv-x="621" 
d="M64 740h312q93 0 153 -52t60 -202q0 -260 -207 -260q-32 0 -83 5.5t-87 10.5v-242h-148v740zM359 359q40 0 60.5 30t20.5 96q0 122 -78 122h-150v-248h147z" />
    <glyph glyph-name="Q" unicode="Q" horiz-adv-x="699" 
d="M176 23q-65 29 -98 110t-33 236t33.5 236.5t98.5 111.5t173 30q109 0 173.5 -30t97.5 -111.5t33 -236.5t-33 -236t-97.5 -110t-173.5 -29t-174 29zM445.5 145.5q32.5 18.5 46.5 70t14 153.5q0 106 -14 157.5t-46.5 69.5t-95.5 18q-62 0 -94.5 -18t-47.5 -70t-15 -157
q0 -103 14 -154t46.5 -69.5t96.5 -18.5q63 0 95.5 18.5zM420.5 -179.5q-43.5 17.5 -72 54t-30.5 88.5h102q6 -27 30.5 -40.5t56.5 -13.5q18 0 37 4.5t24 5.5v-109q-5 -1 -22.5 -4t-31.5 -3q-50 0 -93.5 17.5z" />
    <glyph glyph-name="R" unicode="R" horiz-adv-x="627" 
d="M64 740h306q98 0 154.5 -52.5t56.5 -184.5q0 -93 -31.5 -138t-85.5 -68l138 -297h-151l-119 274q-48 0 -120 2v-276h-148v740zM344 393q43 0 66 24.5t23 85.5q0 59 -23 81.5t-66 22.5h-132v-214h132z" />
    <glyph glyph-name="S" unicode="S" horiz-adv-x="589" 
d="M165 1q-65 7 -110 18v117q89 -9 225 -9q61 0 92 16.5t31 58.5v27q0 33 -19.5 50.5t-55.5 17.5h-63q-110 0 -164.5 48t-54.5 157v36q0 208 239 208q56 0 116 -7.5t108 -17.5v-117q-137 9 -207 9q-57 0 -86 -17.5t-29 -64.5v-20q0 -38 21.5 -55.5t65.5 -17.5h73
q96 0 146.5 -52.5t50.5 -137.5v-42q0 -84 -31 -130.5t-87 -64t-139 -17.5q-57 0 -122 7z" />
    <glyph glyph-name="T" unicode="T" horiz-adv-x="587" 
d="M219 607h-203v133h555v-133h-204v-607h-148v607z" />
    <glyph glyph-name="U" unicode="U" horiz-adv-x="686" 
d="M129 47.5q-75 52.5 -75 190.5v502h148v-501q0 -59 35.5 -85t105.5 -26t105 26t35 85v501h149v-502q0 -138 -75.5 -190.5t-213.5 -52.5q-139 0 -214 52.5z" />
    <glyph glyph-name="V" unicode="V" horiz-adv-x="685" 
d="M17 740h153l173 -580l173 580h152l-232 -740h-187z" />
    <glyph glyph-name="W" unicode="W" horiz-adv-x="991" 
d="M17 740h153l119 -522l139 522h136l138 -522l119 522h153l-177 -740h-151l-150 522l-151 -522h-151z" />
    <glyph glyph-name="X" unicode="X" horiz-adv-x="663" 
d="M416 363l227 -363h-164l-154 246l-141 -246h-164l228 371l-231 369h164l158 -253l144 253h163z" />
    <glyph glyph-name="Y" unicode="Y" horiz-adv-x="628" 
d="M240 224l-223 516h154l146 -365l145 365h148l-222 -516v-224h-148v224z" />
    <glyph glyph-name="Z" unicode="Z" horiz-adv-x="574" 
d="M38 119l319 488h-319v133h500v-118l-319 -489h319v-133h-500v119z" />
    <glyph glyph-name="bracketleft" unicode="[" horiz-adv-x="339" 
d="M104 -149q-38 61 -38 148v649q0 194 180 194h79v-119h-35q-37 0 -56.5 -22.5t-19.5 -74.5v-620q0 -97 76 -97h35v-119h-79q-104 0 -142 61z" />
    <glyph glyph-name="backslash" unicode="\" horiz-adv-x="462" 
d="M15 770h151l281 -842h-151z" />
    <glyph glyph-name="bracketright" unicode="]" horiz-adv-x="339" 
d="M15 -91h36q75 0 75 97v620q0 52 -19.5 74.5t-55.5 22.5h-36v119h80q179 0 179 -194v-649q0 -209 -179 -209h-80v119z" />
    <glyph glyph-name="asciicircum" unicode="^" horiz-adv-x="386" 
d="M147 668h102l98 -137h-86l-66 68l-70 -68h-86z" />
    <glyph glyph-name="underscore" unicode="_" 
d="M0 -73h609v-119h-609v119z" />
    <glyph glyph-name="grave" unicode="`" horiz-adv-x="232" 
d="M15 771h120l82 -140h-87z" />
    <glyph glyph-name="a" unicode="a" horiz-adv-x="550" 
d="M71.5 30.5q-37.5 36.5 -37.5 99.5v48q0 64 44.5 102t132.5 38h137v37q0 27 -9 42.5t-34 23t-74 7.5h-161v86q99 30 215 30q106 0 158.5 -40t52.5 -139v-365h-117l-24 57q-11 -11 -39 -26t-66.5 -26t-78.5 -11q-62 0 -99.5 36.5zM305 107.5q34 10.5 43 15.5v125l-90 -6
q-76 -6 -76 -66v-22q0 -57 66 -57q23 0 57 10.5z" />
    <glyph glyph-name="b" unicode="b" horiz-adv-x="585" 
d="M275.5 9q-36.5 15 -70.5 42l-24 -51h-124v763h148v-263q35 19 75 32t74 13q69 0 110.5 -28.5t60.5 -90t19 -163.5q0 -136 -45 -202.5t-138 -66.5q-49 0 -85.5 15zM372.5 150q23.5 35 23.5 120q0 65 -12 99.5t-31.5 45.5t-46.5 11q-49 0 -101 -30v-255q48 -26 101 -26
q43 0 66.5 35z" />
    <glyph glyph-name="c" unicode="c" horiz-adv-x="490" 
d="M100 55q-59 61 -59 211q0 107 26 168t76 86t127 25q97 0 187 -25v-85h-141q-48 0 -75 -14t-39.5 -50t-12.5 -104q0 -67 12.5 -101.5t39.5 -47t77 -12.5h147v-84q-38 -12 -93 -20t-106 -8q-107 0 -166 61z" />
    <glyph glyph-name="d" unicode="d" horiz-adv-x="583" 
d="M88.5 57q-47.5 63 -47.5 206q0 102 18.5 163t62.5 90t121 29q66 0 137 -25v243h149v-763h-125l-24 51q-28 -24 -68 -40.5t-79 -16.5q-97 0 -144.5 63zM380 143v270q-26 10 -46.5 15.5t-42.5 5.5q-39 0 -60.5 -13.5t-31.5 -49t-10 -101.5q0 -63 9.5 -96.5t30 -47
t56.5 -13.5q48 0 95 30z" />
    <glyph glyph-name="e" unicode="e" horiz-adv-x="537" 
d="M140 19q-52 24 -75.5 83t-23.5 166q0 110 22 169.5t72.5 83.5t142.5 24q82 0 129 -16t68.5 -56t21.5 -113q0 -78 -44.5 -111t-129.5 -33h-135q2 -43 13 -66.5t39 -34t82 -10.5h157v-87q-53 -11 -96 -17t-100 -6q-91 0 -143 24zM308 304q31 0 44.5 12.5t13.5 42.5
q0 44 -20 61.5t-68 17.5q-35 0 -54.5 -11.5t-28.5 -40.5t-9 -82h122z" />
    <glyph glyph-name="f" unicode="f" horiz-adv-x="393" 
d="M94 418h-76v95l76 24v36q0 103 42 149.5t137 46.5q57 0 111 -15v-106h-82q-34 0 -46.5 -15.5t-12.5 -51.5v-44h136v-119h-136v-418h-149v418z" />
    <glyph glyph-name="g" unicode="g" horiz-adv-x="582" 
d="M564 456l-82 -15q18 -19 29 -44t11 -68q0 -75 -47 -119.5t-147 -44.5h-95q-61 0 -61 -37q0 -16 13.5 -23t33.5 -7h148q96 0 145 -38.5t49 -122.5v-15q0 -81 -51 -125.5t-153 -44.5h-161q-78 0 -127 34t-49 95v16q0 40 22 70t59 47q-54 32 -54 89q0 40 23.5 67.5
t65.5 37.5q-45 24 -65.5 64t-20.5 90q0 89 55 132t168 43h291v-81zM371 295q17 19 17 55q0 41 -18 58.5t-55 17.5h-56q-39 0 -57.5 -17t-18.5 -57q0 -39 17.5 -57.5t53.5 -18.5h57q43 0 60 19zM235 -13q-34 0 -54.5 -16t-20.5 -45v-11q0 -29 19.5 -44t57.5 -15h102
q38 0 60 14.5t22 43.5v16q0 27 -19.5 42t-58.5 15h-108z" />
    <glyph glyph-name="h" unicode="h" horiz-adv-x="595" 
d="M57 762h148v-280q30 26 77.5 45t93.5 19q165 0 165 -191v-355h-148v336q0 37 -21 57t-56 20q-55 0 -111 -40v-373h-148v762z" />
    <glyph glyph-name="i" unicode="i" horiz-adv-x="262" 
d="M59.5 621.5q-5.5 5.5 -5.5 14.5v98q0 21 21 21h114q9 0 14 -6t5 -15v-98q0 -20 -19 -20h-114q-10 0 -15.5 5.5zM57 537h148v-537h-148v537z" />
    <glyph glyph-name="j" unicode="j" horiz-adv-x="262" 
d="M59 621.5q-6 5.5 -6 14.5v98q0 21 21 21h114q9 0 14 -6t5 -15v-98q0 -20 -19 -20h-114q-9 0 -15 5.5zM57 537h148v-533q0 -63 -10 -129t-26 -112h-112v774z" />
    <glyph glyph-name="k" unicode="k" horiz-adv-x="554" 
d="M57 763h148v-412h63l118 186h150l-158 -253l174 -284h-150l-136 218h-61v-218h-148v763z" />
    <glyph glyph-name="l" unicode="l" horiz-adv-x="313" 
d="M98.5 40.5q-41.5 42.5 -41.5 132.5v590h148v-568q0 -43 13 -61.5t43 -22.5l41 -6v-107h-77q-85 0 -126.5 42.5z" />
    <glyph glyph-name="m" unicode="m" horiz-adv-x="931" 
d="M57 537h122l26 -55q41 31 82 47.5t97 16.5q49 0 83 -20.5t52 -55.5q41 31 91 53.5t97 22.5q92 0 131 -51t39 -147v-348h-148v335q0 38 -20.5 58t-56.5 20q-29 0 -59.5 -12t-55.5 -30q4 -26 4 -39v-332h-148v335q0 38 -20.5 58t-56.5 20q-55 0 -111 -40v-373h-148v537z
" />
    <glyph glyph-name="n" unicode="n" horiz-adv-x="595" 
d="M57 537h122l26 -55q33 27 79 45.5t90 18.5q91 0 129 -52t38 -140v-354h-148v335q0 38 -20.5 58t-56.5 20q-55 0 -111 -40v-373h-148v537z" />
    <glyph glyph-name="o" unicode="o" horiz-adv-x="575" 
d="M143 20.5q-53 25.5 -77.5 85t-24.5 164.5q0 109 24.5 168.5t77.5 83t144 23.5q92 0 145 -24.5t77.5 -84t24.5 -166.5t-24 -166.5t-77 -84t-146 -24.5q-91 0 -144 25.5zM346 123.5q20 10.5 30 44t10 102.5t-10 102.5t-30 44t-59 10.5q-38 0 -58 -10.5t-30 -44t-10 -102.5
t10 -102.5t30 -44t58 -10.5q39 0 59 10.5z" />
    <glyph glyph-name="p" unicode="p" horiz-adv-x="585" 
d="M57 537h124l24 -51q75 59 149 59q97 0 143.5 -72t46.5 -205q0 -138 -42.5 -206.5t-147.5 -68.5q-38 0 -77.5 9t-71.5 26v-265h-148v774zM371.5 148.5q24.5 33.5 24.5 119.5t-24 122t-66 36q-50 0 -101 -30v-255q19 -12 46.5 -19t54.5 -7q41 0 65.5 33.5z" />
    <glyph glyph-name="q" unicode="q" horiz-adv-x="583" 
d="M380 51q-30 -25 -69 -41t-74 -16q-73 0 -116 29t-61.5 88.5t-18.5 156.5q0 102 22 163t66.5 87.5t116.5 26.5q67 0 145 -6.5t138 -14.5v-761h-149v288zM331.5 122q28.5 9 48.5 21v291h-89q-56 0 -79 -38t-23 -123q0 -64 9 -98.5t28.5 -48t53.5 -13.5q23 0 51.5 9z" />
    <glyph glyph-name="r" unicode="r" horiz-adv-x="423" 
d="M57 537h114l34 -82q32 42 68.5 65.5t83.5 23.5q26 0 44 -5v-152q-52 5 -63 5q-43 0 -74 -14t-59 -44v-334h-148v537z" />
    <glyph glyph-name="s" unicode="s" horiz-adv-x="505" 
d="M136.5 0.5q-60.5 6.5 -92.5 17.5v87h238q33 0 47 9t14 35v17q0 21 -13.5 31.5t-47.5 10.5h-84q-75 0 -119 34.5t-44 111.5v31q0 80 48.5 118.5t167.5 38.5q49 0 107 -7.5t88 -17.5v-87h-225q-31 0 -45 -10t-14 -35v-16q0 -25 15 -33.5t50 -8.5h86q80 0 118.5 -36.5
t38.5 -104.5v-48q0 -79 -54 -111.5t-164 -32.5q-55 0 -115.5 6.5z" />
    <glyph glyph-name="t" unicode="t" horiz-adv-x="389" 
d="M160 18q-38 18 -55 60t-15 113l5 227h-84v95l89 24l20 150h117v-150h126v-119h-126v-226q0 -40 14 -56t39 -20l68 -6v-110h-97q-63 0 -101 18z" />
    <glyph glyph-name="u" unicode="u" horiz-adv-x="595" 
d="M95.5 37q-40.5 43 -40.5 120v380h148v-336q0 -43 19.5 -59.5t58.5 -16.5q28 0 57.5 10.5t52.5 28.5v373h149v-537h-123l-26 55q-93 -61 -182 -61q-73 0 -113.5 43z" />
    <glyph glyph-name="v" unicode="v" horiz-adv-x="564" 
d="M12 537h153l116 -400l119 400h151l-188 -537h-171z" />
    <glyph glyph-name="w" unicode="w" horiz-adv-x="826" 
d="M12 537h153l85 -400l106 400h122l106 -400l77 400h153l-140 -537h-164l-96 327l-99 -327h-161z" />
    <glyph glyph-name="x" unicode="x" horiz-adv-x="541" 
d="M351 260l182 -260h-150l-118 169l-106 -169h-150l182 276l-182 261h149l119 -170l106 170h150z" />
    <glyph glyph-name="y" unicode="y" horiz-adv-x="569" 
d="M283 0q-133 0 -170 144l-101 393h154l85 -363q8 -33 24 -42t34 -11l97 416h150l-160 -675l-48 -99h-123z" />
    <glyph glyph-name="z" unicode="z" horiz-adv-x="505" 
d="M45 107l253 311h-263v119h435v-107l-254 -311h254v-119h-425v107z" />
    <glyph glyph-name="braceleft" unicode="{" horiz-adv-x="317" 
d="M131 -168q-49 42 -49 130v245q0 28 -18.5 44t-48.5 14v137q68 6 68 58v196q0 186 219 186v-119q-28 0 -42.5 -11t-21 -37.5t-6.5 -76.5v-163q0 -93 -99 -101q45 -8 71.5 -33.5t26.5 -64.5v-223q0 -61 14.5 -86.5t56.5 -25.5v-111q-122 0 -171 42z" />
    <glyph glyph-name="bar" unicode="|" horiz-adv-x="251" 
d="M66 770h119v-842h-119v842z" />
    <glyph glyph-name="braceright" unicode="}" horiz-adv-x="317" 
d="M15 -99q42 0 56.5 25.5t14.5 86.5v223q0 39 26.5 64.5t71.5 33.5q-99 8 -99 101v163q0 51 -6 77.5t-21 37t-43 10.5v119q219 0 219 -186v-196q0 -52 68 -58v-137q-30 2 -48.5 -14t-18.5 -44v-245q0 -88 -49 -130t-171 -42v111z" />
    <glyph glyph-name="asciitilde" unicode="~" horiz-adv-x="423" 
d="M241.5 540.5q-16.5 6.5 -42.5 19.5q-36 19 -51 19q-22 0 -41.5 -9.5t-46.5 -29.5l-21 51q56 70 118 70q16 0 32 -6.5t38 -18.5q33 -20 49 -20q22 0 45.5 12.5t41.5 30.5l21 -56q-52 -69 -110 -69q-16 0 -32.5 6.5z" />
    <glyph glyph-name="uni00A0" unicode="&#xa0;" horiz-adv-x="258" 
 />
    <glyph glyph-name="exclamdown" unicode="&#xa1;" horiz-adv-x="272" 
d="M196.5 533q5.5 -5 5.5 -15v-102q0 -21 -20 -21h-86q-22 0 -22 21v102q0 20 22 20h86q9 0 14.5 -5zM211 -202h-148l20 536h110z" />
    <glyph glyph-name="cent" unicode="&#xa2;" horiz-adv-x="486" 
d="M223 -5q-90 2 -141 62t-51 209q0 152 50.5 211t144.5 59v94h83v-96q66 -5 139 -31v-87q-15 3 -59 6t-101 3q-42 0 -64.5 -12t-33.5 -46.5t-11 -103.5q0 -64 11 -98t34.5 -46.5t65.5 -12.5q58 0 101.5 4t62.5 8v-87q-66 -34 -147 -36v-87h-84v87z" />
    <glyph glyph-name="sterling" unicode="&#xa3;" 
d="M58 113l93 20v183l-93 10v74l93 20v76q0 91 25.5 145t78 78.5t137.5 24.5q83 0 163 -13v-119h-157q-54 0 -76.5 -21t-22.5 -79v-92l182 -13v-81l-182 -10v-183h260v-133h-501v113z" />
    <glyph glyph-name="currency" unicode="&#xa4;" 
d="M456 265l87 -87l-61 -61l-87 87q-42 -25 -91 -25t-91 25l-87 -87l-61 61l88 88q-25 41 -25 90t25 90l-88 88l61 61l87 -87q42 25 91 25t91 -25l87 87l61 -61l-87 -87q25 -42 25 -91t-25 -91zM376 284.5q30 30.5 30 71.5q0 42 -30 72t-72 30q-41 0 -70.5 -30t-29.5 -72
q0 -41 29.5 -71.5t70.5 -30.5q42 0 72 30.5z" />
    <glyph glyph-name="yen" unicode="&#xa5;" 
d="M416 336h114v-75h-146l-16 -37v-27h162v-75h-162v-122h-148v122h-142v75h142v27l-16 37h-126v75h94l-175 404h154l146 -365l145 365h148z" />
    <glyph glyph-name="brokenbar" unicode="&#xa6;" horiz-adv-x="251" 
d="M66 770h119v-341h-119v341zM66 256h119v-328h-119v328z" />
    <glyph glyph-name="section" unicode="&#xa7;" horiz-adv-x="539" 
d="M80 8v105h204q39 0 52.5 9.5t13.5 29.5v28q0 20 -9.5 27.5t-40.5 7.5h-98q-80 0 -120.5 26t-40.5 90v40q0 43 16 65t55 36q-62 27 -62 118v54q0 66 44 103t135 37q58 0 127 -4t104 -12v-103h-209q-32 0 -46 -10t-14 -34v-24q0 -18 11 -27.5t38 -9.5h96q87 0 126 -27.5
t39 -91.5v-40q0 -75 -69 -99q63 -18 63 -104v-51q0 -84 -46 -118.5t-134 -34.5q-156 0 -235 14zM300 326q37 0 48.5 7.5t11.5 35.5v37q0 23 -13 32.5t-47 9.5h-62q-31 0 -43.5 -10t-12.5 -34v-36q0 -21 13 -31.5t43 -10.5h62z" />
    <glyph glyph-name="dieresis" unicode="&#xa8;" horiz-adv-x="399" 
d="M52.5 642.5q-5.5 5.5 -5.5 15.5v97q0 10 5.5 16t15.5 6h68q9 0 14.5 -6.5t5.5 -15.5v-97q0 -21 -20 -21h-68q-10 0 -15.5 5.5zM249 642.5q-6 5.5 -6 15.5v97q0 10 5.5 16t15.5 6h69q9 0 14.5 -6.5t5.5 -15.5v-97q0 -21 -20 -21h-69q-9 0 -15 5.5z" />
    <glyph glyph-name="copyright" unicode="&#xa9;" horiz-adv-x="811" 
d="M109 103.5q-66 103.5 -66 264.5q0 163 58.5 263.5t208.5 100.5h215q138 0 191.5 -99t53.5 -265q0 -178 -65 -273t-180 -95h-215q-135 0 -201 103.5zM518 80q77 0 120.5 68.5t43.5 219.5q0 128 -32.5 206t-124.5 78h-215q-82 0 -131 -63.5t-49 -224.5q0 -125 45.5 -204.5
t134.5 -79.5h208zM264.5 195q-43.5 48 -43.5 170q0 115 41.5 166.5t117.5 51.5q37 0 86 -5.5t85 -16.5v-70q-85 12 -142 12q-37 0 -58.5 -12.5t-31.5 -43t-10 -85.5q0 -72 23 -103.5t75 -31.5q70 0 150 16v-70q-37 -16 -78 -21t-100 -5q-71 0 -114.5 48z" />
    <glyph glyph-name="ordfeminine" unicode="&#xaa;" horiz-adv-x="410" 
d="M53.5 560.5q31.5 23.5 94.5 23.5h97v30q0 17 -5.5 26.5t-23 14t-51.5 4.5h-118v72q74 26 166 26q81 -1 122 -30t41 -104v-263h-104l-20 40q-16 -15 -52 -29.5t-76 -14.5q-46 0 -74 25t-28 68v44q0 44 31.5 67.5zM217.5 445q20.5 6 27.5 9v81l-59 -5q-46 -4 -46 -41v-14
q0 -36 42 -36q15 0 35.5 6zM25 324h356v-70h-356v70z" />
    <glyph glyph-name="guillemotleft" unicode="&#xab;" horiz-adv-x="620" 
d="M39 282l220 218l76 -74l-147 -144l149 -146l-73 -76zM289 282l220 218l76 -74l-147 -144l149 -146l-73 -76z" />
    <glyph glyph-name="logicalnot" unicode="&#xac;" 
d="M528 536v-360h-119v240h-329v120h448z" />
    <glyph glyph-name="uni00AD" unicode="&#xad;" horiz-adv-x="350" 
d="M22 350h306v-120h-306v120z" />
    <glyph glyph-name="registered" unicode="&#xae;" horiz-adv-x="811" 
d="M109 103.5q-66 103.5 -66 264.5q0 163 58.5 263.5t208.5 100.5h215q138 0 191.5 -99t53.5 -265q0 -178 -65 -273t-180 -95h-215q-135 0 -201 103.5zM518 80q77 0 120.5 68.5t43.5 219.5q0 128 -32.5 206t-124.5 78h-215q-82 0 -131 -63.5t-49 -224.5q0 -125 45.5 -204.5
t134.5 -79.5h208zM250 580h184q132 0 132 -135q0 -60 -20 -87t-57 -38l91 -167h-88l-86 170l-69 1v-171h-87v427zM433 388q24 0 34.5 11t10.5 45q0 31 -11.5 43.5t-33.5 12.5h-96v-112h96z" />
    <glyph glyph-name="macron" unicode="&#xaf;" horiz-adv-x="358" 
d="M39 735h281v-88h-281v88z" />
    <glyph glyph-name="degree" unicode="&#xb0;" horiz-adv-x="318" 
d="M56.5 521q-40.5 40 -40.5 104t41 104.5t103 40.5q63 0 102.5 -40.5t39.5 -104.5t-39.5 -104t-102.5 -40t-103.5 40zM214 569.5q21 21.5 21 55.5q0 35 -20.5 56t-54.5 21t-55.5 -21.5t-21.5 -55.5t21.5 -55.5t55.5 -21.5q33 0 54 21.5z" />
    <glyph glyph-name="plusminus" unicode="&#xb1;" 
d="M80 216h448v-120h-448v120zM528 446h-164v-164h-120v164h-164v120h164v164h120v-164h164v-120z" />
    <glyph glyph-name="uni00B2" unicode="&#xb2;" horiz-adv-x="452" 
d="M43 375l167 175q58 58 58 105q0 25 -15.5 37.5t-49.5 12.5h-149v99q49 10 87.5 15t86.5 5q94 0 132.5 -37t38.5 -113q0 -52 -19.5 -90t-70.5 -93l-94 -98h200v-113h-372v95z" />
    <glyph glyph-name="uni00B3" unicode="&#xb3;" horiz-adv-x="452" 
d="M39 293v101h157q43 0 62 10t19 33v15q0 42 -65 45l-126 6v96l121 8q32 2 47.5 10.5t15.5 27.5v16q0 23 -17.5 33.5t-59.5 10.5h-145v101q97 19 195 18q74 -1 114.5 -35t40.5 -100v-38q0 -79 -65 -99q34 -11 53 -39.5t19 -71.5v-24q0 -68 -44 -104.5t-122 -36.5
q-100 0 -200 17z" />
    <glyph glyph-name="acute" unicode="&#xb4;" horiz-adv-x="232" 
d="M98 771h119l-115 -140h-87z" />
    <glyph glyph-name="uni00B5" unicode="&#xb5;" horiz-adv-x="595" 
 />
    <glyph glyph-name="paragraph" unicode="&#xb6;" horiz-adv-x="573" 
d="M249 321q-9 -6 -28 -11t-45 -5q-73 0 -110.5 41.5t-37.5 105.5v148q0 69 44 104.5t115 35.5h387v-99h-61v-641h-97v643h-70v-913h-97v591zM249 403v240h-55q-39 0 -54 -15.5t-15 -52.5v-108q0 -40 19.5 -52t49.5 -12h55z" />
    <glyph glyph-name="periodcentered" unicode="&#xb7;" horiz-adv-x="259" 
d="M72 297.5q-6 5.5 -6 14.5v88q0 22 21 22h85q22 0 22 -22v-88q0 -20 -22 -20h-85q-9 0 -15 5.5z" />
    <glyph glyph-name="cedilla" unicode="&#xb8;" horiz-adv-x="246" 
d="M176 -71q18 -17 18 -47q0 -38 -27 -59t-80 -21h-48v61l18 3q41 4 41 34t-46 36l51 81h67l-43 -68q31 -3 49 -20z" />
    <glyph glyph-name="uni00B9" unicode="&#xb9;" horiz-adv-x="452" 
d="M414 393v-113h-358v113h114v310l-106 -12v93l120 41h116v-432h114z" />
    <glyph glyph-name="ordmasculine" unicode="&#xba;" horiz-adv-x="427" 
d="M324.5 740q40.5 -18 58.5 -61.5t18 -121.5t-17.5 -120.5t-58 -61t-112.5 -18.5q-70 0 -110.5 19.5t-58.5 62.5t-18 118q0 79 18 122.5t58 61t111 17.5t111.5 -18zM247.5 457q11.5 7 17.5 29.5t6 70.5t-6 70.5t-17.5 29.5t-34.5 7t-34.5 -7t-17 -29.5t-5.5 -70.5
t5.5 -70.5t17 -29.5t34.5 -7t34.5 7zM34 324h359v-70h-359v70z" />
    <glyph glyph-name="guillemotright" unicode="&#xbb;" horiz-adv-x="620" 
d="M38 136l147 145l-148 145l76 74l221 -219l-224 -221zM288 136l147 145l-148 145l76 74l221 -219l-224 -221z" />
    <glyph glyph-name="onequarter" unicode="&#xbc;" horiz-adv-x="1275" 
d="M771 770h102l-370 -770h-102zM1061 106h-230l-16 81l155 353h130l-141 -327h102v68l30 90h92v-158h50v-87l-50 -20v-106h-122v106zM417 393v-113h-358v113h114v310l-106 -12v93l120 41h116v-432h114z" />
    <glyph glyph-name="onehalf" unicode="&#xbd;" horiz-adv-x="1275" 
d="M771 770h102l-370 -770h-102zM838 95l167 175q58 58 58 105q0 25 -15.5 37.5t-49.5 12.5h-149v99q49 10 87.5 15t86.5 5q94 0 132.5 -37t38.5 -113q0 -52 -19.5 -90t-70.5 -93l-94 -98h200v-113h-372v95zM417 393v-113h-358v113h114v310l-106 -12v93l120 41h116v-432h114
z" />
    <glyph glyph-name="threequarters" unicode="&#xbe;" horiz-adv-x="1275" 
d="M771 770h102l-370 -770h-102zM1061 106h-230l-16 81l155 353h130l-141 -327h102v68l30 90h92v-158h50v-87l-50 -20v-106h-122v106zM49 293v101h157q43 0 62 10t19 33v15q0 42 -65 45l-126 6v96l121 8q32 2 47.5 10.5t15.5 27.5v16q0 23 -17.5 33.5t-59.5 10.5h-145v101
q97 19 195 18q74 -1 114.5 -35t40.5 -100v-38q0 -79 -65 -99q34 -11 53 -39.5t19 -71.5v-24q0 -68 -44 -104.5t-122 -36.5q-100 0 -200 17z" />
    <glyph glyph-name="questiondown" unicode="&#xbf;" horiz-adv-x="529" 
d="M383.5 533q5.5 -5 5.5 -15v-102q0 -21 -20 -21h-86q-22 0 -22 21v102q0 20 22 20h86q9 0 14.5 -5zM381 136h-70q-54 0 -79.5 -17.5t-25.5 -62.5v-32q0 -49 28 -71t85 -22q41 0 81 8.5t86 24.5v-109q-90 -57 -215 -57q-103 0 -158 55t-55 147v59q0 189 212 189v86h111
v-198z" />
    <glyph glyph-name="Agrave" unicode="&#xc0;" horiz-adv-x="685" 
d="M249 740h187l232 -740h-154l-47 155h-252l-46 -155h-152zM432 288l-91 325l-91 -325h182zM200 931h120l82 -140h-87z" />
    <glyph glyph-name="Aacute" unicode="&#xc1;" horiz-adv-x="685" 
d="M249 740h187l232 -740h-154l-47 155h-252l-46 -155h-152zM432 288l-91 325l-91 -325h182zM386 931h119l-115 -140h-87z" />
    <glyph glyph-name="Acircumflex" unicode="&#xc2;" horiz-adv-x="685" 
d="M249 740h187l232 -740h-154l-47 155h-252l-46 -155h-152zM432 288l-91 325l-91 -325h182zM293 933h102l98 -142h-86l-66 76l-70 -76h-86z" />
    <glyph glyph-name="Atilde" unicode="&#xc3;" horiz-adv-x="685" 
d="M249 740h187l232 -740h-154l-47 155h-252l-46 -155h-152zM432 288l-91 325l-91 -325h182zM185.5 888q28.5 31 72.5 31q25 0 44 -7t43 -20q22 -11 33.5 -15.5t25.5 -4.5q20 0 31 13.5t12 38.5h74q-3 -66 -29.5 -100t-73.5 -34q-24 0 -44 7t-46 20q-18 10 -31 15t-26 5
q-19 0 -30.5 -13t-13.5 -35h-74q4 68 32.5 99z" />
    <glyph glyph-name="Adieresis" unicode="&#xc4;" horiz-adv-x="685" 
d="M249 740h187l232 -740h-154l-47 155h-252l-46 -155h-152zM432 288l-91 325l-91 -325h182zM179 802.5q-6 5.5 -6 15.5v97q0 10 5.5 16t15.5 6h69q9 0 14.5 -6.5t5.5 -15.5v-97q0 -21 -20 -21h-69q-9 0 -15 5.5zM391.5 802.5q-5.5 5.5 -5.5 15.5v97q0 10 5 16t15 6h69
q9 0 14.5 -6.5t5.5 -15.5v-97q0 -21 -20 -21h-69q-9 0 -14.5 5.5z" />
    <glyph glyph-name="Aring" unicode="&#xc5;" horiz-adv-x="685" 
d="M249 740h187l232 -740h-154l-47 155h-252l-46 -155h-152zM432 288l-91 325l-91 -325h182zM248.5 792.5q-30.5 25.5 -30.5 87.5t31 88t93 26t92 -26t30 -88t-30 -87.5t-92 -25.5q-63 0 -93.5 25.5zM383.5 835q12.5 13 12.5 45q0 33 -13 46.5t-41 13.5q-29 0 -42.5 -13.5
t-13.5 -46.5q0 -32 13.5 -45t42.5 -13t41.5 13z" />
    <glyph glyph-name="AE" unicode="&#xc6;" horiz-adv-x="981" 
d="M519 21.5q-42 26.5 -49 92.5v40h-217l-91 -154h-145l300 549q56 106 127 148.5t187 42.5q113 0 305 -13v-124h-273q-32 0 -46 -13.5t-14 -41.5v-113l286 -8v-117l-286 -8v-102q0 -40 19.5 -53t56.5 -13h257v-123q-151 -16 -292 -16q-83 0 -125 26.5zM470 280v282
l-151 -282h151z" />
    <glyph glyph-name="Ccedilla" unicode="&#xc7;" horiz-adv-x="586" 
d="M254 595.5q-32 -18.5 -46.5 -70t-14.5 -154.5q0 -102 13 -153t45 -71t95 -20q122 0 200 10v-114q-68 -23 -166 -27l-30 -47q31 -3 49 -20t18 -47q0 -38 -27 -59t-80 -21h-48v61l18 3q41 4 41 34t-46 36l37 58q-93 0 -150 30t-87 112t-30 236q0 148 31.5 230t89.5 113.5
t149 31.5q68 0 128 -10.5t103 -24.5v-115q-30 7 -85 12t-115 5t-92 -18.5z" />
    <glyph glyph-name="Egrave" unicode="&#xc8;" horiz-adv-x="597" 
d="M118 27q-54 32 -54 131v413q0 90 49.5 129.5t119.5 39.5q153 0 320 -13v-124h-276q-65 0 -65 -61v-107l293 -8v-117l-293 -8v-102q0 -66 62 -66h279v-124q-133 -15 -309 -15q-72 0 -126 32zM172 931h120l82 -140h-87z" />
    <glyph glyph-name="Eacute" unicode="&#xc9;" horiz-adv-x="597" 
d="M118 27q-54 32 -54 131v413q0 90 49.5 129.5t119.5 39.5q153 0 320 -13v-124h-276q-65 0 -65 -61v-107l293 -8v-117l-293 -8v-102q0 -66 62 -66h279v-124q-133 -15 -309 -15q-72 0 -126 32zM358 931h119l-115 -140h-87z" />
    <glyph glyph-name="Ecircumflex" unicode="&#xca;" horiz-adv-x="597" 
d="M118 27q-54 32 -54 131v413q0 90 49.5 129.5t119.5 39.5q153 0 320 -13v-124h-276q-65 0 -65 -61v-107l293 -8v-117l-293 -8v-102q0 -66 62 -66h279v-124q-133 -15 -309 -15q-72 0 -126 32zM265 933h102l98 -142h-86l-66 76l-70 -76h-86z" />
    <glyph glyph-name="Edieresis" unicode="&#xcb;" horiz-adv-x="597" 
d="M118 27q-54 32 -54 131v413q0 90 49.5 129.5t119.5 39.5q153 0 320 -13v-124h-276q-65 0 -65 -61v-107l293 -8v-117l-293 -8v-102q0 -66 62 -66h279v-124q-133 -15 -309 -15q-72 0 -126 32zM151 802.5q-6 5.5 -6 15.5v97q0 10 5.5 16t15.5 6h69q9 0 14.5 -6.5t5.5 -15.5
v-97q0 -21 -20 -21h-69q-9 0 -15 5.5zM363.5 802.5q-5.5 5.5 -5.5 15.5v97q0 10 5 16t15 6h69q9 0 14.5 -6.5t5.5 -15.5v-97q0 -21 -20 -21h-69q-9 0 -14.5 5.5z" />
    <glyph glyph-name="Igrave" unicode="&#xcc;" horiz-adv-x="276" 
d="M64 740h148v-740h-148v740zM-3 931h120l82 -140h-87z" />
    <glyph glyph-name="Iacute" unicode="&#xcd;" horiz-adv-x="276" 
d="M64 740h148v-740h-148v740zM183 931h119l-115 -140h-87z" />
    <glyph glyph-name="Icircumflex" unicode="&#xce;" horiz-adv-x="276" 
d="M64 740h148v-740h-148v740zM90 933h102l98 -142h-86l-66 76l-70 -76h-86z" />
    <glyph glyph-name="Idieresis" unicode="&#xcf;" horiz-adv-x="276" 
d="M64 740h148v-740h-148v740zM-24 802.5q-6 5.5 -6 15.5v97q0 10 5.5 16t15.5 6h69q9 0 14.5 -6.5t5.5 -15.5v-97q0 -21 -20 -21h-69q-9 0 -15 5.5zM188.5 802.5q-5.5 5.5 -5.5 15.5v97q0 10 5 16t15 6h69q9 0 14.5 -6.5t5.5 -15.5v-97q0 -21 -20 -21h-69q-9 0 -14.5 5.5z
" />
    <glyph glyph-name="Eth" unicode="&#xd0;" horiz-adv-x="680" 
d="M577 644q58 -96 58 -274q0 -187 -64 -278.5t-194 -91.5h-313v324h-52v97h52v319h313q142 0 200 -96zM458 191.5q29 58.5 29 178.5q0 94 -13.5 145.5t-40.5 71.5t-71 20h-150v-186h119v-97h-119v-191h150q67 0 96 58.5z" />
    <glyph glyph-name="Ntilde" unicode="&#xd1;" horiz-adv-x="704" 
d="M69 740h119l310 -488v488h148v-740h-119l-309 488v-488h-149v740zM186.5 888q28.5 31 72.5 31q25 0 44 -7t43 -20q22 -11 33.5 -15.5t25.5 -4.5q20 0 31 13.5t12 38.5h74q-3 -66 -29.5 -100t-73.5 -34q-24 0 -44 7t-46 20q-18 10 -31 15t-26 5q-19 0 -30.5 -13t-13.5 -35
h-74q4 68 32.5 99z" />
    <glyph glyph-name="Ograve" unicode="&#xd2;" horiz-adv-x="699" 
d="M176 23q-65 29 -98 110t-33 236t33.5 236.5t98.5 111.5t173 30q109 0 173.5 -30t97.5 -111.5t33 -236.5t-33 -236t-97.5 -110t-173.5 -29t-174 29zM445.5 145.5q32.5 18.5 46.5 70t14 153.5q0 106 -14 157.5t-46.5 69.5t-95.5 18q-62 0 -94.5 -18t-47.5 -70t-15 -157
q0 -103 14 -154t46.5 -69.5t96.5 -18.5q63 0 95.5 18.5zM209 931h120l82 -140h-87z" />
    <glyph glyph-name="Oacute" unicode="&#xd3;" horiz-adv-x="699" 
d="M176 23q-65 29 -98 110t-33 236t33.5 236.5t98.5 111.5t173 30q109 0 173.5 -30t97.5 -111.5t33 -236.5t-33 -236t-97.5 -110t-173.5 -29t-174 29zM445.5 145.5q32.5 18.5 46.5 70t14 153.5q0 106 -14 157.5t-46.5 69.5t-95.5 18q-62 0 -94.5 -18t-47.5 -70t-15 -157
q0 -103 14 -154t46.5 -69.5t96.5 -18.5q63 0 95.5 18.5zM395 931h119l-115 -140h-87z" />
    <glyph glyph-name="Ocircumflex" unicode="&#xd4;" horiz-adv-x="699" 
d="M176 23q-65 29 -98 110t-33 236t33.5 236.5t98.5 111.5t173 30q109 0 173.5 -30t97.5 -111.5t33 -236.5t-33 -236t-97.5 -110t-173.5 -29t-174 29zM445.5 145.5q32.5 18.5 46.5 70t14 153.5q0 106 -14 157.5t-46.5 69.5t-95.5 18q-62 0 -94.5 -18t-47.5 -70t-15 -157
q0 -103 14 -154t46.5 -69.5t96.5 -18.5q63 0 95.5 18.5zM302 933h102l98 -142h-86l-66 76l-70 -76h-86z" />
    <glyph glyph-name="Otilde" unicode="&#xd5;" horiz-adv-x="699" 
d="M176 23q-65 29 -98 110t-33 236t33.5 236.5t98.5 111.5t173 30q109 0 173.5 -30t97.5 -111.5t33 -236.5t-33 -236t-97.5 -110t-173.5 -29t-174 29zM445.5 145.5q32.5 18.5 46.5 70t14 153.5q0 106 -14 157.5t-46.5 69.5t-95.5 18q-62 0 -94.5 -18t-47.5 -70t-15 -157
q0 -103 14 -154t46.5 -69.5t96.5 -18.5q63 0 95.5 18.5zM194.5 888q28.5 31 72.5 31q25 0 44 -7t43 -20q22 -11 33.5 -15.5t25.5 -4.5q20 0 31 13.5t12 38.5h74q-3 -66 -29.5 -100t-73.5 -34q-24 0 -44 7t-46 20q-18 10 -31 15t-26 5q-19 0 -30.5 -13t-13.5 -35h-74
q4 68 32.5 99z" />
    <glyph glyph-name="Odieresis" unicode="&#xd6;" horiz-adv-x="699" 
d="M176 23q-65 29 -98 110t-33 236t33.5 236.5t98.5 111.5t173 30q109 0 173.5 -30t97.5 -111.5t33 -236.5t-33 -236t-97.5 -110t-173.5 -29t-174 29zM445.5 145.5q32.5 18.5 46.5 70t14 153.5q0 106 -14 157.5t-46.5 69.5t-95.5 18q-62 0 -94.5 -18t-47.5 -70t-15 -157
q0 -103 14 -154t46.5 -69.5t96.5 -18.5q63 0 95.5 18.5zM188 802.5q-6 5.5 -6 15.5v97q0 10 5.5 16t15.5 6h69q9 0 14.5 -6.5t5.5 -15.5v-97q0 -21 -20 -21h-69q-9 0 -15 5.5zM400.5 802.5q-5.5 5.5 -5.5 15.5v97q0 10 5 16t15 6h69q9 0 14.5 -6.5t5.5 -15.5v-97
q0 -21 -20 -21h-69q-9 0 -14.5 5.5z" />
    <glyph glyph-name="multiply" unicode="&#xd7;" 
d="M304 441l-85 -85l-116 116l85 85zM389 356l-85 85l116 116l85 -85zM219 356l85 -85l-116 -116l-85 85zM389 356l116 -116l-85 -85l-116 116z" />
    <glyph glyph-name="Oslash" unicode="&#xd8;" horiz-adv-x="699" 
d="M638.5 547q15.5 -71 15.5 -178q0 -155 -33 -236t-97.5 -110t-173.5 -29q-58 0 -102 7t-77 25l-17 -26h-98l52 79q-32 43 -47.5 113t-15.5 177q0 155 33.5 236.5t98.5 111.5t173 30q58 0 101.5 -7.5t77.5 -25.5l17 26h98l-53 -80q32 -42 47.5 -113zM205 224l244 370
q-17 11 -40.5 15.5t-58.5 4.5q-62 0 -94.5 -18t-47.5 -70t-15 -157q0 -98 12 -145zM445.5 145.5q32.5 18.5 46.5 70t14 153.5q0 97 -11 146l-244 -368q32 -20 99 -20q63 0 95.5 18.5z" />
    <glyph glyph-name="Ugrave" unicode="&#xd9;" horiz-adv-x="686" 
d="M129 47.5q-75 52.5 -75 190.5v502h148v-501q0 -59 35.5 -85t105.5 -26t105 26t35 85v501h149v-502q0 -138 -75.5 -190.5t-213.5 -52.5q-139 0 -214 52.5zM193 931h120l82 -140h-87z" />
    <glyph glyph-name="Uacute" unicode="&#xda;" horiz-adv-x="686" 
d="M129 47.5q-75 52.5 -75 190.5v502h148v-501q0 -59 35.5 -85t105.5 -26t105 26t35 85v501h149v-502q0 -138 -75.5 -190.5t-213.5 -52.5q-139 0 -214 52.5zM379 931h119l-115 -140h-87z" />
    <glyph glyph-name="Ucircumflex" unicode="&#xdb;" horiz-adv-x="686" 
d="M129 47.5q-75 52.5 -75 190.5v502h148v-501q0 -59 35.5 -85t105.5 -26t105 26t35 85v501h149v-502q0 -138 -75.5 -190.5t-213.5 -52.5q-139 0 -214 52.5zM286 933h102l98 -142h-86l-66 76l-70 -76h-86z" />
    <glyph glyph-name="Udieresis" unicode="&#xdc;" horiz-adv-x="686" 
d="M129 47.5q-75 52.5 -75 190.5v502h148v-501q0 -59 35.5 -85t105.5 -26t105 26t35 85v501h149v-502q0 -138 -75.5 -190.5t-213.5 -52.5q-139 0 -214 52.5zM172 802.5q-6 5.5 -6 15.5v97q0 10 5.5 16t15.5 6h69q9 0 14.5 -6.5t5.5 -15.5v-97q0 -21 -20 -21h-69
q-9 0 -15 5.5zM384.5 802.5q-5.5 5.5 -5.5 15.5v97q0 10 5 16t15 6h69q9 0 14.5 -6.5t5.5 -15.5v-97q0 -21 -20 -21h-69q-9 0 -14.5 5.5z" />
    <glyph glyph-name="Yacute" unicode="&#xdd;" horiz-adv-x="628" 
d="M240 224l-223 516h154l146 -365l145 365h148l-222 -516v-224h-148v224zM362 931h119l-115 -140h-87z" />
    <glyph glyph-name="Thorn" unicode="&#xde;" horiz-adv-x="586" 
d="M64 740h148v-120h129q93 0 153 -49t60 -192q0 -145 -60 -196.5t-148 -51.5q-31 0 -79 7.5t-55 8.5v-147h-148v740zM324 264q40 0 60.5 27t20.5 87q0 109 -79 109h-114v-223h112z" />
    <glyph glyph-name="germandbls" unicode="&#xdf;" horiz-adv-x="605" 
d="M319 -2.5q-41 4.5 -65 11.5v100q62 -4 111 -4q43 0 62 13.5t19 31.5v12q0 15 -13 26t-43 28q-45 24 -70 49.5t-25 71.5q0 35 14.5 63t43.5 66q24 32 35.5 53t11.5 45q0 44 -25 63t-74 19q-55 0 -80.5 -30.5t-25.5 -95.5v-520h-148v535q0 103 63.5 166.5t191.5 63.5
q122 0 180.5 -52t58.5 -140q0 -43 -18 -75t-49 -69q-20 -22 -29 -36.5t-9 -28.5q0 -15 13 -26.5t41 -29.5q30 -18 49.5 -33.5t33.5 -40t14 -59.5v-28q0 -55 -28.5 -89.5t-70.5 -49.5t-85 -15t-84 4.5z" />
    <glyph glyph-name="agrave" unicode="&#xe0;" horiz-adv-x="550" 
d="M71.5 30.5q-37.5 36.5 -37.5 99.5v48q0 64 44.5 102t132.5 38h137v37q0 27 -9 42.5t-34 23t-74 7.5h-161v86q99 30 215 30q106 0 158.5 -40t52.5 -139v-365h-117l-24 57q-11 -11 -39 -26t-66.5 -26t-78.5 -11q-62 0 -99.5 36.5zM305 107.5q34 10.5 43 15.5v125l-90 -6
q-76 -6 -76 -66v-22q0 -57 66 -57q23 0 57 10.5zM134 771h120l82 -140h-87z" />
    <glyph glyph-name="aacute" unicode="&#xe1;" horiz-adv-x="550" 
d="M71.5 30.5q-37.5 36.5 -37.5 99.5v48q0 64 44.5 102t132.5 38h137v37q0 27 -9 42.5t-34 23t-74 7.5h-161v86q99 30 215 30q106 0 158.5 -40t52.5 -139v-365h-117l-24 57q-11 -11 -39 -26t-66.5 -26t-78.5 -11q-62 0 -99.5 36.5zM305 107.5q34 10.5 43 15.5v125l-90 -6
q-76 -6 -76 -66v-22q0 -57 66 -57q23 0 57 10.5zM310 771h119l-115 -140h-87z" />
    <glyph glyph-name="acircumflex" unicode="&#xe2;" horiz-adv-x="550" 
d="M71.5 30.5q-37.5 36.5 -37.5 99.5v48q0 64 44.5 102t132.5 38h137v37q0 27 -9 42.5t-34 23t-74 7.5h-161v86q99 30 215 30q106 0 158.5 -40t52.5 -139v-365h-117l-24 57q-11 -11 -39 -26t-66.5 -26t-78.5 -11q-62 0 -99.5 36.5zM305 107.5q34 10.5 43 15.5v125l-90 -6
q-76 -6 -76 -66v-22q0 -57 66 -57q23 0 57 10.5zM222 773h102l98 -142h-86l-66 76l-70 -76h-86z" />
    <glyph glyph-name="atilde" unicode="&#xe3;" horiz-adv-x="550" 
d="M71.5 30.5q-37.5 36.5 -37.5 99.5v48q0 64 44.5 102t132.5 38h137v37q0 27 -9 42.5t-34 23t-74 7.5h-161v86q99 30 215 30q106 0 158.5 -40t52.5 -139v-365h-117l-24 57q-11 -11 -39 -26t-66.5 -26t-78.5 -11q-62 0 -99.5 36.5zM305 107.5q34 10.5 43 15.5v125l-90 -6
q-76 -6 -76 -66v-22q0 -57 66 -57q23 0 57 10.5zM123.5 728q28.5 31 72.5 31q25 0 44 -7t43 -20q22 -11 33.5 -15.5t25.5 -4.5q20 0 31 13.5t12 38.5h74q-3 -66 -29.5 -100t-73.5 -34q-24 0 -44 7t-46 20q-18 10 -31 15t-26 5q-19 0 -30.5 -13t-13.5 -35h-74q4 68 32.5 99z
" />
    <glyph glyph-name="adieresis" unicode="&#xe4;" horiz-adv-x="550" 
d="M71.5 30.5q-37.5 36.5 -37.5 99.5v48q0 64 44.5 102t132.5 38h137v37q0 27 -9 42.5t-34 23t-74 7.5h-161v86q99 30 215 30q106 0 158.5 -40t52.5 -139v-365h-117l-24 57q-11 -11 -39 -26t-66.5 -26t-78.5 -11q-62 0 -99.5 36.5zM305 107.5q34 10.5 43 15.5v125l-90 -6
q-76 -6 -76 -66v-22q0 -57 66 -57q23 0 57 10.5zM119 642.5q-6 5.5 -6 15.5v97q0 10 5.5 16t15.5 6h68q10 0 15 -6t5 -16v-97q0 -21 -20 -21h-68q-9 0 -15 5.5zM315 642.5q-6 5.5 -6 15.5v97q0 10 5.5 16t15.5 6h69q9 0 14.5 -6.5t5.5 -15.5v-97q0 -21 -20 -21h-69
q-9 0 -15 5.5z" />
    <glyph glyph-name="aring" unicode="&#xe5;" horiz-adv-x="550" 
d="M71.5 30.5q-37.5 36.5 -37.5 99.5v48q0 64 44.5 102t132.5 38h137v37q0 27 -9 42.5t-34 23t-74 7.5h-161v86q99 30 215 30q106 0 158.5 -40t52.5 -139v-365h-117l-24 57q-11 -11 -39 -26t-66.5 -26t-78.5 -11q-62 0 -99.5 36.5zM305 107.5q34 10.5 43 15.5v125l-90 -6
q-76 -6 -76 -66v-22q0 -57 66 -57q23 0 57 10.5zM177.5 610.5q-30.5 25.5 -30.5 87.5t31 88t93 26t92 -26t30 -88t-30 -87.5t-92 -25.5q-63 0 -93.5 25.5zM312.5 653q12.5 13 12.5 45q0 33 -13 46.5t-41 13.5q-29 0 -42.5 -13.5t-13.5 -46.5q0 -32 13.5 -45t42.5 -13
t41.5 13z" />
    <glyph glyph-name="ae" unicode="&#xe6;" horiz-adv-x="852" 
d="M71 33q-35 39 -35 99v44q0 63 44 101.5t134 38.5h137v42q0 37 -24 53.5t-82 16.5h-172v86q47 15 89.5 22.5t97.5 7.5q57 0 101.5 -17t67.5 -46q53 64 166 64q76 0 121 -17t66.5 -58.5t21.5 -115.5q0 -73 -45 -103.5t-137 -30.5h-127q0 -47 17.5 -72t48.5 -34t82 -9h143
v-87q-83 -24 -216 -24q-61 0 -109.5 25t-71.5 64q-35 -37 -91 -63t-120 -26q-72 0 -107 39zM618 313q27 0 40 11t13 34q0 43 -21 59.5t-67 16.5q-36 0 -54.5 -11t-25.5 -36.5t-8 -73.5h123zM307.5 110q29.5 13 52.5 35q-11 42 -11 100l-106 -9q-30 -2 -44 -18.5t-14 -40.5
v-20q0 -60 63 -60q30 0 59.5 13z" />
    <glyph glyph-name="ccedilla" unicode="&#xe7;" horiz-adv-x="490" 
d="M313 -4l-30 -47q31 -3 49 -20t18 -47q0 -38 -27 -59t-80 -21h-48v61l18 3q41 4 41 34t-46 36l37 59q-97 5 -150.5 67t-53.5 204q0 107 26 168t76 86t127 25q97 0 187 -25v-85h-141q-48 0 -75 -14t-39.5 -50t-12.5 -104q0 -67 12.5 -101.5t39.5 -47t77 -12.5h147v-84
q-70 -22 -152 -26z" />
    <glyph glyph-name="egrave" unicode="&#xe8;" horiz-adv-x="537" 
d="M140 19q-52 24 -75.5 83t-23.5 166q0 110 22 169.5t72.5 83.5t142.5 24q82 0 129 -16t68.5 -56t21.5 -113q0 -78 -44.5 -111t-129.5 -33h-135q2 -43 13 -66.5t39 -34t82 -10.5h157v-87q-53 -11 -96 -17t-100 -6q-91 0 -143 24zM308 304q31 0 44.5 12.5t13.5 42.5
q0 44 -20 61.5t-68 17.5q-35 0 -54.5 -11.5t-28.5 -40.5t-9 -82h122zM134 771h120l82 -140h-87z" />
    <glyph glyph-name="eacute" unicode="&#xe9;" horiz-adv-x="537" 
d="M140 19q-52 24 -75.5 83t-23.5 166q0 110 22 169.5t72.5 83.5t142.5 24q82 0 129 -16t68.5 -56t21.5 -113q0 -78 -44.5 -111t-129.5 -33h-135q2 -43 13 -66.5t39 -34t82 -10.5h157v-87q-53 -11 -96 -17t-100 -6q-91 0 -143 24zM308 304q31 0 44.5 12.5t13.5 42.5
q0 44 -20 61.5t-68 17.5q-35 0 -54.5 -11.5t-28.5 -40.5t-9 -82h122zM310 771h119l-115 -140h-87z" />
    <glyph glyph-name="ecircumflex" unicode="&#xea;" horiz-adv-x="537" 
d="M140 19q-52 24 -75.5 83t-23.5 166q0 110 22 169.5t72.5 83.5t142.5 24q82 0 129 -16t68.5 -56t21.5 -113q0 -78 -44.5 -111t-129.5 -33h-135q2 -43 13 -66.5t39 -34t82 -10.5h157v-87q-53 -11 -96 -17t-100 -6q-91 0 -143 24zM308 304q31 0 44.5 12.5t13.5 42.5
q0 44 -20 61.5t-68 17.5q-35 0 -54.5 -11.5t-28.5 -40.5t-9 -82h122zM222 773h102l98 -142h-86l-66 76l-70 -76h-86z" />
    <glyph glyph-name="edieresis" unicode="&#xeb;" horiz-adv-x="537" 
d="M140 19q-52 24 -75.5 83t-23.5 166q0 110 22 169.5t72.5 83.5t142.5 24q82 0 129 -16t68.5 -56t21.5 -113q0 -78 -44.5 -111t-129.5 -33h-135q2 -43 13 -66.5t39 -34t82 -10.5h157v-87q-53 -11 -96 -17t-100 -6q-91 0 -143 24zM308 304q31 0 44.5 12.5t13.5 42.5
q0 44 -20 61.5t-68 17.5q-35 0 -54.5 -11.5t-28.5 -40.5t-9 -82h122zM119 642.5q-6 5.5 -6 15.5v97q0 10 5.5 16t15.5 6h68q10 0 15 -6t5 -16v-97q0 -21 -20 -21h-68q-9 0 -15 5.5zM315 642.5q-6 5.5 -6 15.5v97q0 10 5.5 16t15.5 6h69q9 0 14.5 -6.5t5.5 -15.5v-97
q0 -21 -20 -21h-69q-9 0 -15 5.5z" />
    <glyph glyph-name="igrave" unicode="&#xec;" horiz-adv-x="261" 
d="M57 537h148v-537h-148v537zM-5 771h120l82 -140h-87z" />
    <glyph glyph-name="iacute" unicode="&#xed;" horiz-adv-x="261" 
d="M57 537h148v-537h-148v537zM171 771h119l-115 -140h-87z" />
    <glyph glyph-name="icircumflex" unicode="&#xee;" horiz-adv-x="261" 
d="M57 537h148v-537h-148v537zM83 773h102l98 -142h-86l-66 76l-70 -76h-86z" />
    <glyph glyph-name="idieresis" unicode="&#xef;" horiz-adv-x="261" 
d="M57 537h148v-537h-148v537zM-20 642.5q-6 5.5 -6 15.5v97q0 10 5.5 16t15.5 6h68q10 0 15 -6t5 -16v-97q0 -21 -20 -21h-68q-9 0 -15 5.5zM176 642.5q-6 5.5 -6 15.5v97q0 10 5.5 16t15.5 6h69q9 0 14.5 -6.5t5.5 -15.5v-97q0 -21 -20 -21h-69q-9 0 -15 5.5z" />
    <glyph glyph-name="eth" unicode="&#xf0;" horiz-adv-x="575" 
d="M510 509.5q24 -94.5 24 -239.5q0 -108 -24 -167t-77 -83.5t-146 -24.5q-91 0 -144 25t-77.5 82.5t-24.5 159.5q0 104 26 162t75 81t125 23q70 0 115 -24q-20 73 -65 113l-161 -62l-18 47l125 48q-53 23 -136 26v89q87 -2 152 -18t111 -48l118 46l19 -48l-93 -36
q52 -57 76 -151.5zM346 123q20 10 30 42t10 98t-10 97.5t-30 41.5t-59 10q-38 0 -58 -10t-30 -41.5t-10 -97.5t10 -98t30 -42t58 -10q39 0 59 10z" />
    <glyph glyph-name="ntilde" unicode="&#xf1;" horiz-adv-x="595" 
d="M57 537h122l26 -55q33 27 79 45.5t90 18.5q91 0 129 -52t38 -140v-354h-148v335q0 38 -20.5 58t-56.5 20q-55 0 -111 -40v-373h-148v537zM151.5 728q28.5 31 72.5 31q25 0 44 -7t43 -20q22 -11 33.5 -15.5t25.5 -4.5q20 0 31 13.5t12 38.5h74q-3 -66 -29.5 -100
t-73.5 -34q-24 0 -44 7t-46 20q-18 10 -31 15t-26 5q-19 0 -30.5 -13t-13.5 -35h-74q4 68 32.5 99z" />
    <glyph glyph-name="ograve" unicode="&#xf2;" horiz-adv-x="575" 
d="M143 20.5q-53 25.5 -77.5 85t-24.5 164.5q0 109 24.5 168.5t77.5 83t144 23.5q92 0 145 -24.5t77.5 -84t24.5 -166.5t-24 -166.5t-77 -84t-146 -24.5q-91 0 -144 25.5zM346 123.5q20 10.5 30 44t10 102.5t-10 102.5t-30 44t-59 10.5q-38 0 -58 -10.5t-30 -44t-10 -102.5
t10 -102.5t30 -44t58 -10.5q39 0 59 10.5zM151 771h120l82 -140h-87z" />
    <glyph glyph-name="oacute" unicode="&#xf3;" horiz-adv-x="575" 
d="M143 20.5q-53 25.5 -77.5 85t-24.5 164.5q0 109 24.5 168.5t77.5 83t144 23.5q92 0 145 -24.5t77.5 -84t24.5 -166.5t-24 -166.5t-77 -84t-146 -24.5q-91 0 -144 25.5zM346 123.5q20 10.5 30 44t10 102.5t-10 102.5t-30 44t-59 10.5q-38 0 -58 -10.5t-30 -44t-10 -102.5
t10 -102.5t30 -44t58 -10.5q39 0 59 10.5zM327 771h119l-115 -140h-87z" />
    <glyph glyph-name="ocircumflex" unicode="&#xf4;" horiz-adv-x="575" 
d="M143 20.5q-53 25.5 -77.5 85t-24.5 164.5q0 109 24.5 168.5t77.5 83t144 23.5q92 0 145 -24.5t77.5 -84t24.5 -166.5t-24 -166.5t-77 -84t-146 -24.5q-91 0 -144 25.5zM346 123.5q20 10.5 30 44t10 102.5t-10 102.5t-30 44t-59 10.5q-38 0 -58 -10.5t-30 -44t-10 -102.5
t10 -102.5t30 -44t58 -10.5q39 0 59 10.5zM239 773h102l98 -142h-86l-66 76l-70 -76h-86z" />
    <glyph glyph-name="otilde" unicode="&#xf5;" horiz-adv-x="575" 
d="M143 20.5q-53 25.5 -77.5 85t-24.5 164.5q0 109 24.5 168.5t77.5 83t144 23.5q92 0 145 -24.5t77.5 -84t24.5 -166.5t-24 -166.5t-77 -84t-146 -24.5q-91 0 -144 25.5zM346 123.5q20 10.5 30 44t10 102.5t-10 102.5t-30 44t-59 10.5q-38 0 -58 -10.5t-30 -44t-10 -102.5
t10 -102.5t30 -44t58 -10.5q39 0 59 10.5zM141.5 728q28.5 31 72.5 31q25 0 44 -7t43 -20q22 -11 33.5 -15.5t25.5 -4.5q20 0 31 13.5t12 38.5h74q-3 -66 -29.5 -100t-73.5 -34q-24 0 -44 7t-46 20q-18 10 -31 15t-26 5q-19 0 -30.5 -13t-13.5 -35h-74q4 68 32.5 99z" />
    <glyph glyph-name="odieresis" unicode="&#xf6;" horiz-adv-x="575" 
d="M143 20.5q-53 25.5 -77.5 85t-24.5 164.5q0 109 24.5 168.5t77.5 83t144 23.5q92 0 145 -24.5t77.5 -84t24.5 -166.5t-24 -166.5t-77 -84t-146 -24.5q-91 0 -144 25.5zM346 123.5q20 10.5 30 44t10 102.5t-10 102.5t-30 44t-59 10.5q-38 0 -58 -10.5t-30 -44t-10 -102.5
t10 -102.5t30 -44t58 -10.5q39 0 59 10.5zM136 642.5q-6 5.5 -6 15.5v97q0 10 5.5 16t15.5 6h68q10 0 15 -6t5 -16v-97q0 -21 -20 -21h-68q-9 0 -15 5.5zM332 642.5q-6 5.5 -6 15.5v97q0 10 5.5 16t15.5 6h69q9 0 14.5 -6.5t5.5 -15.5v-97q0 -21 -20 -21h-69q-9 0 -15 5.5z
" />
    <glyph glyph-name="divide" unicode="&#xf7;" 
d="M243.5 504.5q-6.5 6.5 -6.5 16.5v79q0 12 6 18.5t18 6.5h86q25 0 25 -25v-79q0 -23 -25 -23h-86q-11 0 -17.5 6.5zM80 416h448v-120h-448v120zM243.5 93.5q-6.5 6.5 -6.5 16.5v79q0 12 6 18.5t18 6.5h86q25 0 25 -25v-79q0 -23 -25 -23h-86q-11 0 -17.5 6.5z" />
    <glyph glyph-name="oslash" unicode="&#xf8;" horiz-adv-x="575" 
d="M491 470q22 -31 32.5 -80t10.5 -120q0 -107 -24 -166.5t-77 -84t-146 -24.5q-109 0 -163 37l-27 -32h-69l58 69q-45 62 -45 201q0 109 24.5 168.5t77.5 83t144 23.5q56 0 97 -8.5t70 -28.5l24 29h69zM193 197l170 203q-11 16 -28.5 21.5t-47.5 5.5q-38 0 -58 -10.5
t-30 -44t-10 -102.5q0 -48 4 -73zM382 341l-169 -203q11 -15 28.5 -20t45.5 -5q39 0 59 10.5t30 44t10 102.5q0 44 -4 71z" />
    <glyph glyph-name="ugrave" unicode="&#xf9;" horiz-adv-x="595" 
d="M95.5 37q-40.5 43 -40.5 120v380h148v-336q0 -43 19.5 -59.5t58.5 -16.5q28 0 57.5 10.5t52.5 28.5v373h149v-537h-123l-26 55q-93 -61 -182 -61q-73 0 -113.5 43zM157 771h120l82 -140h-87z" />
    <glyph glyph-name="uacute" unicode="&#xfa;" horiz-adv-x="595" 
d="M95.5 37q-40.5 43 -40.5 120v380h148v-336q0 -43 19.5 -59.5t58.5 -16.5q28 0 57.5 10.5t52.5 28.5v373h149v-537h-123l-26 55q-93 -61 -182 -61q-73 0 -113.5 43zM333 771h119l-115 -140h-87z" />
    <glyph glyph-name="ucircumflex" unicode="&#xfb;" horiz-adv-x="595" 
d="M95.5 37q-40.5 43 -40.5 120v380h148v-336q0 -43 19.5 -59.5t58.5 -16.5q28 0 57.5 10.5t52.5 28.5v373h149v-537h-123l-26 55q-93 -61 -182 -61q-73 0 -113.5 43zM245 773h102l98 -142h-86l-66 76l-70 -76h-86z" />
    <glyph glyph-name="udieresis" unicode="&#xfc;" horiz-adv-x="595" 
d="M95.5 37q-40.5 43 -40.5 120v380h148v-336q0 -43 19.5 -59.5t58.5 -16.5q28 0 57.5 10.5t52.5 28.5v373h149v-537h-123l-26 55q-93 -61 -182 -61q-73 0 -113.5 43zM142 642.5q-6 5.5 -6 15.5v97q0 10 5.5 16t15.5 6h68q10 0 15 -6t5 -16v-97q0 -21 -20 -21h-68
q-9 0 -15 5.5zM338 642.5q-6 5.5 -6 15.5v97q0 10 5.5 16t15.5 6h69q9 0 14.5 -6.5t5.5 -15.5v-97q0 -21 -20 -21h-69q-9 0 -15 5.5z" />
    <glyph glyph-name="yacute" unicode="&#xfd;" horiz-adv-x="569" 
d="M283 0q-133 0 -170 144l-101 393h154l85 -363q8 -33 24 -42t34 -11l97 416h150l-160 -675l-48 -99h-123zM315 771h119l-115 -140h-87z" />
    <glyph glyph-name="thorn" unicode="&#xfe;" horiz-adv-x="585" 
d="M57 763h148v-277q75 59 149 59q93 0 141.5 -73t48.5 -204q0 -135 -45 -205t-145 -70q-38 0 -77.5 9t-71.5 26v-265h-148v1000zM396 261q0 89 -24 127t-66 38q-50 0 -101 -30v-255q19 -12 46.5 -19t54.5 -7q90 0 90 146z" />
    <glyph glyph-name="ydieresis" unicode="&#xff;" horiz-adv-x="569" 
d="M283 0q-133 0 -170 144l-101 393h154l85 -363q8 -33 24 -42t34 -11l97 416h150l-160 -675l-48 -99h-123zM124 642.5q-6 5.5 -6 15.5v97q0 10 5.5 16t15.5 6h68q10 0 15 -6t5 -16v-97q0 -21 -20 -21h-68q-9 0 -15 5.5zM320 642.5q-6 5.5 -6 15.5v97q0 10 5.5 16t15.5 6h69
q9 0 14.5 -6.5t5.5 -15.5v-97q0 -21 -20 -21h-69q-9 0 -15 5.5z" />
    <glyph glyph-name="Amacron" unicode="&#x100;" horiz-adv-x="685" 
d="M249 740h187l232 -740h-154l-47 155h-252l-46 -155h-152zM432 288l-91 325l-91 -325h182zM195 895h281v-88h-281v88z" />
    <glyph glyph-name="amacron" unicode="&#x101;" horiz-adv-x="550" 
d="M71.5 30.5q-37.5 36.5 -37.5 99.5v48q0 64 44.5 102t132.5 38h137v37q0 27 -9 42.5t-34 23t-74 7.5h-161v86q99 30 215 30q106 0 158.5 -40t52.5 -139v-365h-117l-24 57q-11 -11 -39 -26t-66.5 -26t-78.5 -11q-62 0 -99.5 36.5zM305 107.5q34 10.5 43 15.5v125l-90 -6
q-76 -6 -76 -66v-22q0 -57 66 -57q23 0 57 10.5zM126 735h281v-88h-281v88z" />
    <glyph glyph-name="Abreve" unicode="&#x102;" horiz-adv-x="685" 
d="M249 740h187l232 -740h-154l-47 155h-252l-46 -155h-152zM432 288l-91 325l-91 -325h182zM231.5 820.5q-36.5 37.5 -36.5 113.5h69q0 -44 20 -63.5t50 -19.5q70 0 70 83h70q0 -77 -36.5 -114t-103.5 -37q-66 0 -102.5 37.5z" />
    <glyph glyph-name="abreve" unicode="&#x103;" horiz-adv-x="550" 
d="M71.5 30.5q-37.5 36.5 -37.5 99.5v48q0 64 44.5 102t132.5 38h137v37q0 27 -9 42.5t-34 23t-74 7.5h-161v86q99 30 215 30q106 0 158.5 -40t52.5 -139v-365h-117l-24 57q-11 -11 -39 -26t-66.5 -26t-78.5 -11q-62 0 -99.5 36.5zM305 107.5q34 10.5 43 15.5v125l-90 -6
q-76 -6 -76 -66v-22q0 -57 66 -57q23 0 57 10.5zM160.5 660.5q-36.5 37.5 -36.5 113.5h69q0 -44 20 -63.5t50 -19.5q70 0 70 83h70q0 -77 -36.5 -114t-103.5 -37q-66 0 -102.5 37.5z" />
    <glyph glyph-name="Aogonek" unicode="&#x104;" horiz-adv-x="685" 
d="M249 740h187l232 -740h-154l-47 155h-252l-46 -155h-152zM432 288l-91 325l-91 -325h182zM474.5 -165.5q-26.5 26.5 -26.5 63.5q0 67 67 102h54q-26 -16 -37.5 -32t-11.5 -36q0 -24 16 -37.5t42 -13.5h9v-69q-9 -4 -32 -4q-54 0 -80.5 26.5z" />
    <glyph glyph-name="aogonek" unicode="&#x105;" horiz-adv-x="550" 
d="M515 -119v-69q-9 -4 -32 -4q-54 0 -80.5 26.5t-26.5 63.5q0 67 67 102h-64l-24 57q-11 -11 -39 -26t-66.5 -26t-78.5 -11q-62 0 -99.5 36.5t-37.5 99.5v48q0 64 44.5 102t132.5 38h137v37q0 27 -9 42.5t-34 23t-74 7.5h-161v86q99 30 215 30q106 0 158.5 -40t52.5 -139
v-365h1q-26 -16 -37.5 -32t-11.5 -36q0 -24 16 -37.5t42 -13.5h9zM348 248l-90 -6q-76 -6 -76 -66v-22q0 -57 66 -57q23 0 57 10.5t43 15.5v125z" />
    <glyph glyph-name="Cacute" unicode="&#x106;" horiz-adv-x="586" 
d="M163 23.5q-57 29.5 -87.5 112t-30.5 236.5q0 148 31.5 230t89.5 113.5t149 31.5q68 0 128 -10.5t103 -24.5v-115q-30 7 -85 12t-115 5t-92 -18.5t-46.5 -70t-14.5 -154.5q0 -102 13 -153t45 -71t95 -20q122 0 200 10v-114q-89 -29 -233 -29q-93 0 -150 29.5zM360 931h119
l-115 -140h-87z" />
    <glyph glyph-name="cacute" unicode="&#x107;" horiz-adv-x="490" 
d="M100 55q-59 61 -59 211q0 107 26 168t76 86t127 25q97 0 187 -25v-85h-141q-48 0 -75 -14t-39.5 -50t-12.5 -104q0 -67 12.5 -101.5t39.5 -47t77 -12.5h147v-84q-38 -12 -93 -20t-106 -8q-107 0 -166 61zM310 771h119l-115 -140h-87z" />
    <glyph glyph-name="Ccircumflex" unicode="&#x108;" horiz-adv-x="586" 
d="M163 23.5q-57 29.5 -87.5 112t-30.5 236.5q0 148 31.5 230t89.5 113.5t149 31.5q68 0 128 -10.5t103 -24.5v-115q-30 7 -85 12t-115 5t-92 -18.5t-46.5 -70t-14.5 -154.5q0 -102 13 -153t45 -71t95 -20q122 0 200 10v-114q-89 -29 -233 -29q-93 0 -150 29.5zM267 933h102
l98 -142h-86l-66 76l-70 -76h-86z" />
    <glyph glyph-name="ccircumflex" unicode="&#x109;" horiz-adv-x="490" 
d="M100 55q-59 61 -59 211q0 107 26 168t76 86t127 25q97 0 187 -25v-85h-141q-48 0 -75 -14t-39.5 -50t-12.5 -104q0 -67 12.5 -101.5t39.5 -47t77 -12.5h147v-84q-38 -12 -93 -20t-106 -8q-107 0 -166 61zM222 773h102l98 -142h-86l-66 76l-70 -76h-86z" />
    <glyph glyph-name="Cdotaccent" unicode="&#x10a;" horiz-adv-x="586" 
d="M163 23.5q-57 29.5 -87.5 112t-30.5 236.5q0 148 31.5 230t89.5 113.5t149 31.5q68 0 128 -10.5t103 -24.5v-115q-30 7 -85 12t-115 5t-92 -18.5t-46.5 -70t-14.5 -154.5q0 -102 13 -153t45 -71t95 -20q122 0 200 10v-114q-89 -29 -233 -29q-93 0 -150 29.5zM263 809.5
q-6 5.5 -6 15.5v97q0 10 5.5 16t15.5 6h69q9 0 14.5 -6.5t5.5 -15.5v-97q0 -21 -20 -21h-69q-9 0 -15 5.5z" />
    <glyph glyph-name="cdotaccent" unicode="&#x10b;" horiz-adv-x="490" 
d="M100 55q-59 61 -59 211q0 107 26 168t76 86t127 25q97 0 187 -25v-85h-141q-48 0 -75 -14t-39.5 -50t-12.5 -104q0 -67 12.5 -101.5t39.5 -47t77 -12.5h147v-84q-38 -12 -93 -20t-106 -8q-107 0 -166 61zM219 649.5q-6 5.5 -6 15.5v97q0 10 5.5 16t15.5 6h69
q9 0 14.5 -6.5t5.5 -15.5v-97q0 -21 -20 -21h-69q-9 0 -15 5.5z" />
    <glyph glyph-name="Ccaron" unicode="&#x10c;" horiz-adv-x="586" 
d="M163 23.5q-57 29.5 -87.5 112t-30.5 236.5q0 148 31.5 230t89.5 113.5t149 31.5q68 0 128 -10.5t103 -24.5v-115q-30 7 -85 12t-115 5t-92 -18.5t-46.5 -70t-14.5 -154.5q0 -102 13 -153t45 -71t95 -20q122 0 200 10v-114q-89 -29 -233 -29q-93 0 -150 29.5zM163 933h86
l66 -76l70 76h86l-108 -142h-101z" />
    <glyph glyph-name="ccaron" unicode="&#x10d;" horiz-adv-x="490" 
d="M100 55q-59 61 -59 211q0 107 26 168t76 86t127 25q97 0 187 -25v-85h-141q-48 0 -75 -14t-39.5 -50t-12.5 -104q0 -67 12.5 -101.5t39.5 -47t77 -12.5h147v-84q-38 -12 -93 -20t-106 -8q-107 0 -166 61zM118 773h86l66 -76l70 76h86l-108 -142h-101z" />
    <glyph glyph-name="Dcaron" unicode="&#x10e;" horiz-adv-x="680" 
d="M64 740h313q142 0 200 -96t58 -274q0 -187 -64 -278.5t-194 -91.5h-313v740zM362 133q67 0 96 58.5t29 178.5q0 94 -13.5 145.5t-40.5 71.5t-71 20h-150v-474h150zM176 933h86l66 -76l70 76h86l-108 -142h-101z" />
    <glyph glyph-name="dcaron" unicode="&#x10f;" horiz-adv-x="583" 
d="M88.5 57q-47.5 63 -47.5 206q0 102 18.5 163t62.5 90t121 29q66 0 137 -25v243h149v-763h-125l-24 51q-28 -24 -68 -40.5t-79 -16.5q-97 0 -144.5 63zM380 143v270q-26 10 -46.5 15.5t-42.5 5.5q-39 0 -60.5 -13.5t-31.5 -49t-10 -101.5q0 -63 9.5 -96.5t30 -47
t56.5 -13.5q48 0 95 30zM580 719v64h134v-64l-8 -137h-117z" />
    <glyph glyph-name="Dcroat" unicode="&#x110;" horiz-adv-x="680" 
d="M577 644q58 -96 58 -274q0 -187 -64 -278.5t-194 -91.5h-313v324h-52v97h52v319h313q142 0 200 -96zM458 191.5q29 58.5 29 178.5q0 94 -13.5 145.5t-40.5 71.5t-71 20h-150v-186h119v-97h-119v-191h150q67 0 96 58.5z" />
    <glyph glyph-name="dcroat" unicode="&#x111;" horiz-adv-x="583" 
d="M587 615h-58v-615h-125l-24 51q-28 -24 -68 -40.5t-79 -16.5q-97 0 -144.5 63t-47.5 206q0 102 18.5 163t62.5 90t121 29q66 0 137 -25v95h-117v59h117v89h149v-89h58v-59zM380 413q-26 10 -46.5 15.5t-42.5 5.5q-39 0 -60.5 -13.5t-31.5 -49t-10 -101.5q0 -63 9.5 -96.5
t30 -47t56.5 -13.5q48 0 95 30v270z" />
    <glyph glyph-name="Emacron" unicode="&#x112;" horiz-adv-x="597" 
d="M118 27q-54 32 -54 131v413q0 90 49.5 129.5t119.5 39.5q153 0 320 -13v-124h-276q-65 0 -65 -61v-107l293 -8v-117l-293 -8v-102q0 -66 62 -66h279v-124q-133 -15 -309 -15q-72 0 -126 32zM167 895h281v-88h-281v88z" />
    <glyph glyph-name="emacron" unicode="&#x113;" horiz-adv-x="537" 
d="M140 19q-52 24 -75.5 83t-23.5 166q0 110 22 169.5t72.5 83.5t142.5 24q82 0 129 -16t68.5 -56t21.5 -113q0 -78 -44.5 -111t-129.5 -33h-135q2 -43 13 -66.5t39 -34t82 -10.5h157v-87q-53 -11 -96 -17t-100 -6q-91 0 -143 24zM308 304q31 0 44.5 12.5t13.5 42.5
q0 44 -20 61.5t-68 17.5q-35 0 -54.5 -11.5t-28.5 -40.5t-9 -82h122zM126 735h281v-88h-281v88z" />
    <glyph glyph-name="Ebreve" unicode="&#x114;" horiz-adv-x="597" 
d="M118 27q-54 32 -54 131v413q0 90 49.5 129.5t119.5 39.5q153 0 320 -13v-124h-276q-65 0 -65 -61v-107l293 -8v-117l-293 -8v-102q0 -66 62 -66h279v-124q-133 -15 -309 -15q-72 0 -126 32zM203.5 820.5q-36.5 37.5 -36.5 113.5h69q0 -44 20 -63.5t50 -19.5q70 0 70 83
h70q0 -77 -36.5 -114t-103.5 -37q-66 0 -102.5 37.5z" />
    <glyph glyph-name="ebreve" unicode="&#x115;" horiz-adv-x="537" 
d="M140 19q-52 24 -75.5 83t-23.5 166q0 110 22 169.5t72.5 83.5t142.5 24q82 0 129 -16t68.5 -56t21.5 -113q0 -78 -44.5 -111t-129.5 -33h-135q2 -43 13 -66.5t39 -34t82 -10.5h157v-87q-53 -11 -96 -17t-100 -6q-91 0 -143 24zM308 304q31 0 44.5 12.5t13.5 42.5
q0 44 -20 61.5t-68 17.5q-35 0 -54.5 -11.5t-28.5 -40.5t-9 -82h122zM160.5 660.5q-36.5 37.5 -36.5 113.5h69q0 -44 20 -63.5t50 -19.5q70 0 70 83h70q0 -77 -36.5 -114t-103.5 -37q-66 0 -102.5 37.5z" />
    <glyph glyph-name="Edotaccent" unicode="&#x116;" horiz-adv-x="597" 
d="M118 27q-54 32 -54 131v413q0 90 49.5 129.5t119.5 39.5q153 0 320 -13v-124h-276q-65 0 -65 -61v-107l293 -8v-117l-293 -8v-102q0 -66 62 -66h279v-124q-133 -15 -309 -15q-72 0 -126 32zM261 809.5q-6 5.5 -6 15.5v97q0 10 5.5 16t15.5 6h69q9 0 14.5 -6.5t5.5 -15.5
v-97q0 -21 -20 -21h-69q-9 0 -15 5.5z" />
    <glyph glyph-name="edotaccent" unicode="&#x117;" horiz-adv-x="537" 
d="M140 19q-52 24 -75.5 83t-23.5 166q0 110 22 169.5t72.5 83.5t142.5 24q82 0 129 -16t68.5 -56t21.5 -113q0 -78 -44.5 -111t-129.5 -33h-135q2 -43 13 -66.5t39 -34t82 -10.5h157v-87q-53 -11 -96 -17t-100 -6q-91 0 -143 24zM308 304q31 0 44.5 12.5t13.5 42.5
q0 44 -20 61.5t-68 17.5q-35 0 -54.5 -11.5t-28.5 -40.5t-9 -82h122zM219 649.5q-6 5.5 -6 15.5v97q0 10 5.5 16t15.5 6h69q9 0 14.5 -6.5t5.5 -15.5v-97q0 -21 -20 -21h-69q-9 0 -15 5.5z" />
    <glyph glyph-name="Eogonek" unicode="&#x118;" horiz-adv-x="597" 
d="M571 -109v-69q-9 -4 -32 -4q-54 0 -80.5 26.5t-26.5 63.5q0 61 56 96q-117 -9 -244 -9q-72 0 -126 32t-54 131v413q0 90 49.5 129.5t119.5 39.5q153 0 320 -13v-124h-276q-65 0 -65 -61v-107l293 -8v-117l-293 -8v-102q0 -66 62 -66h279v-124q-26 -16 -37.5 -32
t-11.5 -36q0 -24 16 -37.5t42 -13.5h9z" />
    <glyph glyph-name="eogonek" unicode="&#x119;" horiz-adv-x="537" 
d="M498 -95v-69q-9 -4 -32 -4q-54 0 -80.5 26.5t-26.5 63.5q0 48 36 81q-51 -8 -112 -8q-91 0 -143 24t-75.5 83t-23.5 166q0 110 22 169.5t72.5 83.5t142.5 24q82 0 129 -16t68.5 -56t21.5 -113q0 -78 -44.5 -111t-129.5 -33h-135q2 -43 13 -66.5t39 -34t82 -10.5h157v-81
h1h-0.5t-0.5 -1v-5l-12 -3q-36 -25 -36 -59q0 -24 16 -37.5t42 -13.5h9zM223.5 426.5q-19.5 -11.5 -28.5 -40.5t-9 -82h122q31 0 44.5 12.5t13.5 42.5q0 44 -20 61.5t-68 17.5q-35 0 -54.5 -11.5z" />
    <glyph glyph-name="Ecaron" unicode="&#x11a;" horiz-adv-x="597" 
d="M118 27q-54 32 -54 131v413q0 90 49.5 129.5t119.5 39.5q153 0 320 -13v-124h-276q-65 0 -65 -61v-107l293 -8v-117l-293 -8v-102q0 -66 62 -66h279v-124q-133 -15 -309 -15q-72 0 -126 32zM161 933h86l66 -76l70 76h86l-108 -142h-101z" />
    <glyph glyph-name="ecaron" unicode="&#x11b;" horiz-adv-x="537" 
d="M140 19q-52 24 -75.5 83t-23.5 166q0 110 22 169.5t72.5 83.5t142.5 24q82 0 129 -16t68.5 -56t21.5 -113q0 -78 -44.5 -111t-129.5 -33h-135q2 -43 13 -66.5t39 -34t82 -10.5h157v-87q-53 -11 -96 -17t-100 -6q-91 0 -143 24zM308 304q31 0 44.5 12.5t13.5 42.5
q0 44 -20 61.5t-68 17.5q-35 0 -54.5 -11.5t-28.5 -40.5t-9 -82h122zM118 773h86l66 -76l70 76h86l-108 -142h-101z" />
    <glyph glyph-name="Gcircumflex" unicode="&#x11c;" horiz-adv-x="666" 
d="M134 40q-50 45 -69.5 126.5t-19.5 203.5q0 128 22.5 209t82 124.5t168.5 43.5q71 0 128 -8.5t122 -24.5v-114q-39 5 -99.5 9.5t-123.5 4.5q-64 0 -96 -22.5t-44 -74t-12 -148.5t12 -147.5t39 -70.5t77 -20q38 0 75 6t64 15v144h-133v117q30 4 78.5 7t92.5 3q62 0 104 -3
v-420h-111l-20 50q-37 -22 -89.5 -38.5t-109.5 -16.5q-88 0 -138 45zM278 933h102l98 -142h-86l-66 76l-70 -76h-86z" />
    <glyph glyph-name="gcircumflex" unicode="&#x11d;" horiz-adv-x="582" 
d="M564 456l-82 -15q18 -19 29 -44t11 -68q0 -75 -47 -119.5t-147 -44.5h-95q-61 0 -61 -37q0 -16 13.5 -23t33.5 -7h148q96 0 145 -38.5t49 -122.5v-15q0 -81 -51 -125.5t-153 -44.5h-161q-78 0 -127 34t-49 95v16q0 40 22 70t59 47q-54 32 -54 89q0 40 23.5 67.5
t65.5 37.5q-45 24 -65.5 64t-20.5 90q0 89 55 132t168 43h291v-81zM371 295q17 19 17 55q0 41 -18 58.5t-55 17.5h-56q-39 0 -57.5 -17t-18.5 -57q0 -39 17.5 -57.5t53.5 -18.5h57q43 0 60 19zM235 -13q-34 0 -54.5 -16t-20.5 -45v-11q0 -29 19.5 -44t57.5 -15h102
q38 0 60 14.5t22 43.5v16q0 27 -19.5 42t-58.5 15h-108zM242 773h102l98 -142h-86l-66 76l-70 -76h-86z" />
    <glyph glyph-name="Gbreve" unicode="&#x11e;" horiz-adv-x="666" 
d="M134 40q-50 45 -69.5 126.5t-19.5 203.5q0 128 22.5 209t82 124.5t168.5 43.5q71 0 128 -8.5t122 -24.5v-114q-39 5 -99.5 9.5t-123.5 4.5q-64 0 -96 -22.5t-44 -74t-12 -148.5t12 -147.5t39 -70.5t77 -20q38 0 75 6t64 15v144h-133v117q30 4 78.5 7t92.5 3q62 0 104 -3
v-420h-111l-20 50q-37 -22 -89.5 -38.5t-109.5 -16.5q-88 0 -138 45zM216.5 820.5q-36.5 37.5 -36.5 113.5h69q0 -44 20 -63.5t50 -19.5q70 0 70 83h70q0 -77 -36.5 -114t-103.5 -37q-66 0 -102.5 37.5z" />
    <glyph glyph-name="gbreve" unicode="&#x11f;" horiz-adv-x="582" 
d="M564 456l-82 -15q18 -19 29 -44t11 -68q0 -75 -47 -119.5t-147 -44.5h-95q-61 0 -61 -37q0 -16 13.5 -23t33.5 -7h148q96 0 145 -38.5t49 -122.5v-15q0 -81 -51 -125.5t-153 -44.5h-161q-78 0 -127 34t-49 95v16q0 40 22 70t59 47q-54 32 -54 89q0 40 23.5 67.5
t65.5 37.5q-45 24 -65.5 64t-20.5 90q0 89 55 132t168 43h291v-81zM371 295q17 19 17 55q0 41 -18 58.5t-55 17.5h-56q-39 0 -57.5 -17t-18.5 -57q0 -39 17.5 -57.5t53.5 -18.5h57q43 0 60 19zM235 -13q-34 0 -54.5 -16t-20.5 -45v-11q0 -29 19.5 -44t57.5 -15h102
q38 0 60 14.5t22 43.5v16q0 27 -19.5 42t-58.5 15h-108zM180.5 660.5q-36.5 37.5 -36.5 113.5h69q0 -44 20 -63.5t50 -19.5q70 0 70 83h70q0 -77 -36.5 -114t-103.5 -37q-66 0 -102.5 37.5z" />
    <glyph glyph-name="Gdotaccent" unicode="&#x120;" horiz-adv-x="666" 
d="M134 40q-50 45 -69.5 126.5t-19.5 203.5q0 128 22.5 209t82 124.5t168.5 43.5q71 0 128 -8.5t122 -24.5v-114q-39 5 -99.5 9.5t-123.5 4.5q-64 0 -96 -22.5t-44 -74t-12 -148.5t12 -147.5t39 -70.5t77 -20q38 0 75 6t64 15v144h-133v117q30 4 78.5 7t92.5 3q62 0 104 -3
v-420h-111l-20 50q-37 -22 -89.5 -38.5t-109.5 -16.5q-88 0 -138 45zM274 809.5q-6 5.5 -6 15.5v97q0 10 5.5 16t15.5 6h69q9 0 14.5 -6.5t5.5 -15.5v-97q0 -21 -20 -21h-69q-9 0 -15 5.5z" />
    <glyph glyph-name="gdotaccent" unicode="&#x121;" horiz-adv-x="582" 
d="M564 456l-82 -15q18 -19 29 -44t11 -68q0 -75 -47 -119.5t-147 -44.5h-95q-61 0 -61 -37q0 -16 13.5 -23t33.5 -7h148q96 0 145 -38.5t49 -122.5v-15q0 -81 -51 -125.5t-153 -44.5h-161q-78 0 -127 34t-49 95v16q0 40 22 70t59 47q-54 32 -54 89q0 40 23.5 67.5
t65.5 37.5q-45 24 -65.5 64t-20.5 90q0 89 55 132t168 43h291v-81zM371 295q17 19 17 55q0 41 -18 58.5t-55 17.5h-56q-39 0 -57.5 -17t-18.5 -57q0 -39 17.5 -57.5t53.5 -18.5h57q43 0 60 19zM235 -13q-34 0 -54.5 -16t-20.5 -45v-11q0 -29 19.5 -44t57.5 -15h102
q38 0 60 14.5t22 43.5v16q0 27 -19.5 42t-58.5 15h-108zM239 649.5q-6 5.5 -6 15.5v97q0 10 5.5 16t15.5 6h69q9 0 14.5 -6.5t5.5 -15.5v-97q0 -21 -20 -21h-69q-9 0 -15 5.5z" />
    <glyph glyph-name="Gcommaaccent" unicode="&#x122;" horiz-adv-x="666" 
d="M134 40q-50 45 -69.5 126.5t-19.5 203.5q0 128 22.5 209t82 124.5t168.5 43.5q71 0 128 -8.5t122 -24.5v-114q-39 5 -99.5 9.5t-123.5 4.5q-64 0 -96 -22.5t-44 -74t-12 -148.5t12 -147.5t39 -70.5t77 -20q38 0 75 6t64 15v144h-133v117q30 4 78.5 7t92.5 3q62 0 104 -3
v-420h-111l-20 50q-37 -22 -89.5 -38.5t-109.5 -16.5q-88 0 -138 45zM266 -155l27 7q21 5 31.5 11.5t15 21t4.5 42.5h90q0 -78 -25 -110.5t-91 -32.5h-52v61z" />
    <glyph glyph-name="gcommaaccent" unicode="&#x123;" horiz-adv-x="582" 
d="M564 456l-82 -15q18 -19 29 -44t11 -68q0 -75 -47 -119.5t-147 -44.5h-95q-61 0 -61 -37q0 -16 13.5 -23t33.5 -7h148q96 0 145 -38.5t49 -122.5v-15q0 -81 -51 -125.5t-153 -44.5h-161q-78 0 -127 34t-49 95v16q0 40 22 70t59 47q-54 32 -54 89q0 40 23.5 67.5
t65.5 37.5q-45 24 -65.5 64t-20.5 90q0 89 55 132t168 43h291v-81zM371 295q17 19 17 55q0 41 -18 58.5t-55 17.5h-56q-39 0 -57.5 -17t-18.5 -57q0 -39 17.5 -57.5t53.5 -18.5h57q43 0 60 19zM235 -13q-34 0 -54.5 -16t-20.5 -45v-11q0 -29 19.5 -44t57.5 -15h102
q38 0 60 14.5t22 43.5v16q0 27 -19.5 42t-58.5 15h-108zM247 731.5q25 32.5 91 32.5h52v-60l-28 -8q-21 -5 -31 -11.5t-14.5 -21t-4.5 -42.5h-90q0 78 25 110.5z" />
    <glyph glyph-name="Hcircumflex" unicode="&#x124;" horiz-adv-x="703" 
d="M64 740h148v-308h279v308h149v-740h-149v299h-279v-299h-148v740zM304 933h102l98 -142h-86l-66 76l-70 -76h-86z" />
    <glyph glyph-name="hcircumflex" unicode="&#x125;" horiz-adv-x="595" 
d="M57 762h148v-280q30 26 77.5 45t93.5 19q165 0 165 -191v-355h-148v336q0 37 -21 57t-56 20q-55 0 -111 -40v-373h-148v762zM102 965h102l98 -142h-86l-66 76l-70 -76h-86z" />
    <glyph glyph-name="Hbar" unicode="&#x126;" horiz-adv-x="703" 
d="M692 518h-52v-518h-149v299h-279v-299h-148v518h-52v74h52v148h148v-148h279v148h149v-148h52v-74zM491 518h-279v-86h279v86z" />
    <glyph glyph-name="hbar" unicode="&#x127;" horiz-adv-x="595" 
d="M541 355v-355h-148v336q0 37 -21 57t-56 20q-55 0 -111 -40v-373h-148v615h-62v59h62v88h148v-88h114v-59h-114v-133q30 26 77.5 45t93.5 19q165 0 165 -191z" />
    <glyph glyph-name="Itilde" unicode="&#x128;" horiz-adv-x="276" 
d="M64 740h148v-740h-148v740zM-17.5 888q28.5 31 72.5 31q25 0 44 -7t43 -20q22 -11 33.5 -15.5t25.5 -4.5q20 0 31 13.5t12 38.5h74q-3 -66 -29.5 -100t-73.5 -34q-24 0 -44 7t-46 20q-18 10 -31 15t-26 5q-19 0 -30.5 -13t-13.5 -35h-74q4 68 32.5 99z" />
    <glyph glyph-name="itilde" unicode="&#x129;" horiz-adv-x="261" 
d="M57 537h148v-537h-148v537zM-15.5 728q28.5 31 72.5 31q25 0 44 -7t43 -20q22 -11 33.5 -15.5t25.5 -4.5q20 0 31 13.5t12 38.5h74q-3 -66 -29.5 -100t-73.5 -34q-24 0 -44 7t-46 20q-18 10 -31 15t-26 5q-19 0 -30.5 -13t-13.5 -35h-74q4 68 32.5 99z" />
    <glyph glyph-name="Imacron" unicode="&#x12a;" horiz-adv-x="276" 
d="M64 740h148v-740h-148v740zM-8 895h281v-88h-281v88z" />
    <glyph glyph-name="imacron" unicode="&#x12b;" horiz-adv-x="261" 
d="M57 537h148v-537h-148v537zM-13 735h281v-88h-281v88z" />
    <glyph glyph-name="Ibreve" unicode="&#x12c;" horiz-adv-x="276" 
d="M64 740h148v-740h-148v740zM28.5 820.5q-36.5 37.5 -36.5 113.5h69q0 -44 20 -63.5t50 -19.5q70 0 70 83h70q0 -77 -36.5 -114t-103.5 -37q-66 0 -102.5 37.5z" />
    <glyph glyph-name="ibreve" unicode="&#x12d;" horiz-adv-x="261" 
d="M57 537h148v-537h-148v537zM21.5 660.5q-36.5 37.5 -36.5 113.5h69q0 -44 20 -63.5t50 -19.5q70 0 70 83h70q0 -77 -36.5 -114t-103.5 -37q-66 0 -102.5 37.5z" />
    <glyph glyph-name="Iogonek" unicode="&#x12e;" horiz-adv-x="276" 
d="M64 740h148v-740h-148v740zM118.5 -165.5q-26.5 26.5 -26.5 63.5q0 67 67 102h54q-26 -16 -37.5 -32t-11.5 -36q0 -24 16 -37.5t42 -13.5h9v-69q-9 -4 -32 -4q-54 0 -80.5 26.5z" />
    <glyph glyph-name="iogonek" unicode="&#x12f;" horiz-adv-x="262" 
d="M59.5 621.5q-5.5 5.5 -5.5 14.5v98q0 21 21 21h114q9 0 14 -6t5 -15v-98q0 -20 -19 -20h-114q-10 0 -15.5 5.5zM57 537h148v-537h-148v537zM110.5 -165.5q-26.5 26.5 -26.5 63.5q0 67 67 102h54q-26 -16 -37.5 -32t-11.5 -36q0 -24 16 -37.5t42 -13.5h9v-69q-9 -4 -32 -4
q-54 0 -80.5 26.5z" />
    <glyph glyph-name="Idotaccent" unicode="&#x130;" horiz-adv-x="276" 
d="M64 740h148v-740h-148v740zM86 809.5q-6 5.5 -6 15.5v97q0 10 5.5 16t15.5 6h69q9 0 14.5 -6.5t5.5 -15.5v-97q0 -21 -20 -21h-69q-9 0 -15 5.5z" />
    <glyph glyph-name="dotlessi" unicode="&#x131;" horiz-adv-x="261" 
d="M57 537h148v-537h-148v537z" />
    <glyph glyph-name="Jcircumflex" unicode="&#x134;" horiz-adv-x="404" 
d="M84 0q-33 6 -58 14v118q70 -5 88 -5q39 0 58.5 18t19.5 59v536h148v-558q0 -96 -45.5 -142t-146.5 -46q-31 0 -64 6zM218 933h102l98 -142h-86l-66 76l-70 -76h-86z" />
    <glyph glyph-name="jcircumflex" unicode="&#x135;" horiz-adv-x="262" 
d="M57 537h148v-533q0 -63 -10 -129t-26 -112h-112v774zM83 773h102l98 -142h-86l-66 76l-70 -76h-86z" />
    <glyph glyph-name="Kcommaaccent" unicode="&#x136;" horiz-adv-x="645" 
d="M64 740h148v-306h98l152 306h158l-192 -372l198 -368h-158l-158 300h-98v-300h-148v740zM235 -155l27 7q21 5 31.5 11.5t15 21t4.5 42.5h90q0 -78 -25 -110.5t-91 -32.5h-52v61z" />
    <glyph glyph-name="kcommaaccent" unicode="&#x137;" horiz-adv-x="554" 
d="M57 763h148v-412h63l118 186h150l-158 -253l174 -284h-150l-136 218h-61v-218h-148v763zM190 -155l27 7q21 5 31.5 11.5t15 21t4.5 42.5h90q0 -78 -25 -110.5t-91 -32.5h-52v61z" />
    <glyph glyph-name="kgreenlandic" unicode="&#x138;" horiz-adv-x="554" 
d="M57 540h148v-200h58l118 197h155l-158 -263l174 -274h-151l-134 207h-62v-207h-148v540z" />
    <glyph glyph-name="Lacute" unicode="&#x139;" horiz-adv-x="535" 
d="M107 41q-43 41 -43 134v565h148v-541q0 -65 66 -65h234v-134h-273q-89 0 -132 41zM183 931h119l-115 -140h-87z" />
    <glyph glyph-name="lacute" unicode="&#x13a;" horiz-adv-x="313" 
d="M98.5 40.5q-41.5 42.5 -41.5 132.5v590h148v-568q0 -43 13 -61.5t43 -22.5l41 -6v-107h-77q-85 0 -126.5 42.5zM171 984h119l-115 -140h-87z" />
    <glyph glyph-name="Lcommaaccent" unicode="&#x13b;" horiz-adv-x="535" 
d="M107 41q-43 41 -43 134v565h148v-541q0 -65 66 -65h234v-134h-273q-89 0 -132 41zM203 -155l27 7q21 5 31.5 11.5t15 21t4.5 42.5h90q0 -78 -25 -110.5t-91 -32.5h-52v61z" />
    <glyph glyph-name="lcommaaccent" unicode="&#x13c;" horiz-adv-x="313" 
d="M98.5 40.5q-41.5 42.5 -41.5 132.5v590h148v-568q0 -43 13 -61.5t43 -22.5l41 -6v-107h-77q-85 0 -126.5 42.5zM99 -155l27 7q21 5 31.5 11.5t15 21t4.5 42.5h90q0 -78 -25 -110.5t-91 -32.5h-52v61z" />
    <glyph glyph-name="Lcaron" unicode="&#x13d;" horiz-adv-x="535" 
d="M107 41q-43 41 -43 134v565h148v-541q0 -65 66 -65h234v-134h-273q-89 0 -132 41zM283 719v64h134v-64l-8 -137h-117z" />
    <glyph glyph-name="lcaron" unicode="&#x13e;" horiz-adv-x="313" 
d="M98.5 40.5q-41.5 42.5 -41.5 132.5v590h148v-568q0 -43 13 -61.5t43 -22.5l41 -6v-107h-77q-85 0 -126.5 42.5zM256 719v64h134v-64l-8 -137h-117z" />
    <glyph glyph-name="Ldot" unicode="&#x13f;" horiz-adv-x="535" 
d="M107 41q-43 41 -43 134v565h148v-541q0 -65 66 -65h234v-134h-273q-89 0 -132 41zM361 341.5q-6 5.5 -6 14.5v88q0 22 21 22h85q22 0 22 -22v-88q0 -20 -22 -20h-85q-9 0 -15 5.5z" />
    <glyph glyph-name="ldot" unicode="&#x140;" horiz-adv-x="376" 
d="M98.5 40.5q-41.5 42.5 -41.5 132.5v590h148v-568q0 -43 13 -61.5t43 -22.5l41 -6v-107h-77q-85 0 -126.5 42.5zM264 312.5q-6 5.5 -6 14.5v88q0 22 21 22h85q22 0 22 -22v-88q0 -20 -22 -20h-85q-9 0 -15 5.5z" />
    <glyph glyph-name="Lslash" unicode="&#x141;" horiz-adv-x="535" 
d="M512 134v-134h-273q-89 0 -132 41t-43 134v158l-68 -29v79l68 29v328h148v-282l128 56v-79l-128 -56v-180q0 -65 66 -65h234z" />
    <glyph glyph-name="lslash" unicode="&#x142;" horiz-adv-x="313" 
d="M302 105v-107h-77q-85 0 -126.5 42.5t-41.5 132.5v189l-60 -24v80l60 24v321h148v-273l88 35v-80l-88 -34v-216q0 -43 13 -61.5t43 -22.5z" />
    <glyph glyph-name="Nacute" unicode="&#x143;" horiz-adv-x="704" 
d="M69 740h119l310 -488v488h148v-740h-119l-309 488v-488h-149v740zM387 931h119l-115 -140h-87z" />
    <glyph glyph-name="nacute" unicode="&#x144;" horiz-adv-x="595" 
d="M57 537h122l26 -55q33 27 79 45.5t90 18.5q91 0 129 -52t38 -140v-354h-148v335q0 38 -20.5 58t-56.5 20q-55 0 -111 -40v-373h-148v537zM337 771h119l-115 -140h-87z" />
    <glyph glyph-name="Ncommaaccent" unicode="&#x145;" horiz-adv-x="704" 
d="M69 740h119l310 -488v488h148v-740h-119l-309 488v-488h-149v740zM256 -155l27 7q21 5 31.5 11.5t15 21t4.5 42.5h90q0 -78 -25 -110.5t-91 -32.5h-52v61z" />
    <glyph glyph-name="ncommaaccent" unicode="&#x146;" horiz-adv-x="595" 
d="M57 537h122l26 -55q33 27 79 45.5t90 18.5q91 0 129 -52t38 -140v-354h-148v335q0 38 -20.5 58t-56.5 20q-55 0 -111 -40v-373h-148v537zM211 -155l27 7q21 5 31.5 11.5t15 21t4.5 42.5h90q0 -78 -25 -110.5t-91 -32.5h-52v61z" />
    <glyph glyph-name="Ncaron" unicode="&#x147;" horiz-adv-x="704" 
d="M69 740h119l310 -488v488h148v-740h-119l-309 488v-488h-149v740zM190 933h86l66 -76l70 76h86l-108 -142h-101z" />
    <glyph glyph-name="ncaron" unicode="&#x148;" horiz-adv-x="595" 
d="M57 537h122l26 -55q33 27 79 45.5t90 18.5q91 0 129 -52t38 -140v-354h-148v335q0 38 -20.5 58t-56.5 20q-55 0 -111 -40v-373h-148v537zM145 773h86l66 -76l70 76h86l-108 -142h-101z" />
    <glyph glyph-name="Eng" unicode="&#x14a;" horiz-adv-x="697" 
d="M646 740v-795q0 -96 -47 -142t-150 -46q-31 0 -64 6t-58 14v118q72 -5 93 -5q39 0 58.5 18t19.5 58v80l-280 442v-488h-149v740h119l310 -488v488h148z" />
    <glyph glyph-name="eng" unicode="&#x14b;" horiz-adv-x="595" 
d="M503 494q38 -52 38 -140v-382q0 -78 -31 -130t-82 -79h-118q37 33 60 81t23 125v366q0 38 -20.5 58t-56.5 20q-55 0 -111 -40v-373h-148v537h122l26 -55q33 27 79 45.5t90 18.5q91 0 129 -52z" />
    <glyph glyph-name="Omacron" unicode="&#x14c;" horiz-adv-x="699" 
d="M176 23q-65 29 -98 110t-33 236t33.5 236.5t98.5 111.5t173 30q109 0 173.5 -30t97.5 -111.5t33 -236.5t-33 -236t-97.5 -110t-173.5 -29t-174 29zM445.5 145.5q32.5 18.5 46.5 70t14 153.5q0 106 -14 157.5t-46.5 69.5t-95.5 18q-62 0 -94.5 -18t-47.5 -70t-15 -157
q0 -103 14 -154t46.5 -69.5t96.5 -18.5q63 0 95.5 18.5zM204 895h281v-88h-281v88z" />
    <glyph glyph-name="omacron" unicode="&#x14d;" horiz-adv-x="575" 
d="M143 20.5q-53 25.5 -77.5 85t-24.5 164.5q0 109 24.5 168.5t77.5 83t144 23.5q92 0 145 -24.5t77.5 -84t24.5 -166.5t-24 -166.5t-77 -84t-146 -24.5q-91 0 -144 25.5zM346 123.5q20 10.5 30 44t10 102.5t-10 102.5t-30 44t-59 10.5q-38 0 -58 -10.5t-30 -44t-10 -102.5
t10 -102.5t30 -44t58 -10.5q39 0 59 10.5zM143 735h281v-88h-281v88z" />
    <glyph glyph-name="Obreve" unicode="&#x14e;" horiz-adv-x="699" 
d="M176 23q-65 29 -98 110t-33 236t33.5 236.5t98.5 111.5t173 30q109 0 173.5 -30t97.5 -111.5t33 -236.5t-33 -236t-97.5 -110t-173.5 -29t-174 29zM445.5 145.5q32.5 18.5 46.5 70t14 153.5q0 106 -14 157.5t-46.5 69.5t-95.5 18q-62 0 -94.5 -18t-47.5 -70t-15 -157
q0 -103 14 -154t46.5 -69.5t96.5 -18.5q63 0 95.5 18.5zM240.5 820.5q-36.5 37.5 -36.5 113.5h69q0 -44 20 -63.5t50 -19.5q70 0 70 83h70q0 -77 -36.5 -114t-103.5 -37q-66 0 -102.5 37.5z" />
    <glyph glyph-name="obreve" unicode="&#x14f;" horiz-adv-x="575" 
d="M143 20.5q-53 25.5 -77.5 85t-24.5 164.5q0 109 24.5 168.5t77.5 83t144 23.5q92 0 145 -24.5t77.5 -84t24.5 -166.5t-24 -166.5t-77 -84t-146 -24.5q-91 0 -144 25.5zM346 123.5q20 10.5 30 44t10 102.5t-10 102.5t-30 44t-59 10.5q-38 0 -58 -10.5t-30 -44t-10 -102.5
t10 -102.5t30 -44t58 -10.5q39 0 59 10.5zM177.5 660.5q-36.5 37.5 -36.5 113.5h69q0 -44 20 -63.5t50 -19.5q70 0 70 83h70q0 -77 -36.5 -114t-103.5 -37q-66 0 -102.5 37.5z" />
    <glyph glyph-name="Ohungarumlaut" unicode="&#x150;" horiz-adv-x="699" 
d="M176 23q-65 29 -98 110t-33 236t33.5 236.5t98.5 111.5t173 30q109 0 173.5 -30t97.5 -111.5t33 -236.5t-33 -236t-97.5 -110t-173.5 -29t-174 29zM445.5 145.5q32.5 18.5 46.5 70t14 153.5q0 106 -14 157.5t-46.5 69.5t-95.5 18q-62 0 -94.5 -18t-47.5 -70t-15 -157
q0 -103 14 -154t46.5 -69.5t96.5 -18.5q63 0 95.5 18.5zM287 931h113l-101 -140h-87zM451 931h112l-100 -140h-87z" />
    <glyph glyph-name="ohungarumlaut" unicode="&#x151;" horiz-adv-x="575" 
d="M143 20.5q-53 25.5 -77.5 85t-24.5 164.5q0 109 24.5 168.5t77.5 83t144 23.5q92 0 145 -24.5t77.5 -84t24.5 -166.5t-24 -166.5t-77 -84t-146 -24.5q-91 0 -144 25.5zM346 123.5q20 10.5 30 44t10 102.5t-10 102.5t-30 44t-59 10.5q-38 0 -58 -10.5t-30 -44t-10 -102.5
t10 -102.5t30 -44t58 -10.5q39 0 59 10.5zM224 771h113l-101 -140h-87zM388 771h112l-100 -140h-87z" />
    <glyph glyph-name="OE" unicode="&#x152;" horiz-adv-x="1039" 
d="M654 542v-107l293 -8v-117l-293 -8v-102q0 -66 62 -66h279v-124q-133 -15 -309 -15q-40 0 -75.5 8.5t-62.5 33.5q-35 -24 -83.5 -33.5t-114.5 -9.5q-109 0 -174 29t-98 110t-33 236t33.5 236.5t98.5 111.5t173 30q69 0 118.5 -11t85.5 -37q45 41 121 41q153 0 320 -13
v-124h-276q-65 0 -65 -61zM445.5 145.5q32.5 18.5 46.5 70t14 153.5q0 106 -14 157.5t-46.5 69.5t-95.5 18q-62 0 -94.5 -18t-47.5 -70t-15 -157q0 -103 14 -154t46.5 -69.5t96.5 -18.5q63 0 95.5 18.5z" />
    <glyph glyph-name="oe" unicode="&#x153;" horiz-adv-x="876" 
d="M557 130q29 -25 97 -25h164v-87q-105 -23 -208 -23q-101 0 -151 57q-26 -31 -67.5 -44t-105.5 -13q-91 0 -143.5 25.5t-77 85.5t-24.5 164q0 109 25 168.5t77.5 83t143.5 23.5q61 0 103 -13t68 -43q49 56 156 56q83 0 130.5 -16.5t69.5 -59.5t22 -124q0 -64 -44 -96.5
t-114 -32.5h-152q2 -61 31 -86zM545 408q-20 -30 -20 -104h124q29 0 42.5 13t13.5 44q0 43 -21 60t-69 17q-50 0 -70 -30zM346 117q20 11 30 45.5t10 107.5t-10 107.5t-30 45.5t-59 11q-38 0 -58 -11t-30 -45.5t-10 -107.5t10 -107.5t30 -45.5t58 -11q39 0 59 11z" />
    <glyph glyph-name="Racute" unicode="&#x154;" horiz-adv-x="627" 
d="M64 740h306q98 0 154.5 -52.5t56.5 -184.5q0 -93 -31.5 -138t-85.5 -68l138 -297h-151l-119 274q-48 0 -120 2v-276h-148v740zM344 393q43 0 66 24.5t23 85.5q0 59 -23 81.5t-66 22.5h-132v-214h132zM345 931h119l-115 -140h-87z" />
    <glyph glyph-name="racute" unicode="&#x155;" horiz-adv-x="423" 
d="M57 537h114l34 -82q32 42 68.5 65.5t83.5 23.5q26 0 44 -5v-152q-52 5 -63 5q-43 0 -74 -14t-59 -44v-334h-148v537zM262 771h119l-115 -140h-87z" />
    <glyph glyph-name="Rcommaaccent" unicode="&#x156;" horiz-adv-x="627" 
d="M64 740h306q98 0 154.5 -52.5t56.5 -184.5q0 -93 -31.5 -138t-85.5 -68l138 -297h-151l-119 274q-48 0 -120 2v-276h-148v740zM344 393q43 0 66 24.5t23 85.5q0 59 -23 81.5t-66 22.5h-132v-214h132zM218 -155l27 7q21 5 31.5 11.5t15 21t4.5 42.5h90q0 -78 -25 -110.5
t-91 -32.5h-52v61z" />
    <glyph glyph-name="rcommaaccent" unicode="&#x157;" horiz-adv-x="423" 
d="M57 537h114l34 -82q32 42 68.5 65.5t83.5 23.5q26 0 44 -5v-152q-52 5 -63 5q-43 0 -74 -14t-59 -44v-334h-148v537zM44 -155l27 7q21 5 31.5 11.5t15 21t4.5 42.5h90q0 -78 -25 -110.5t-91 -32.5h-52v61z" />
    <glyph glyph-name="Rcaron" unicode="&#x158;" horiz-adv-x="627" 
d="M64 740h306q98 0 154.5 -52.5t56.5 -184.5q0 -93 -31.5 -138t-85.5 -68l138 -297h-151l-119 274q-48 0 -120 2v-276h-148v740zM344 393q43 0 66 24.5t23 85.5q0 59 -23 81.5t-66 22.5h-132v-214h132zM148 933h86l66 -76l70 76h86l-108 -142h-101z" />
    <glyph glyph-name="rcaron" unicode="&#x159;" horiz-adv-x="423" 
d="M57 537h114l34 -82q32 42 68.5 65.5t83.5 23.5q26 0 44 -5v-152q-52 5 -63 5q-43 0 -74 -14t-59 -44v-334h-148v537zM70 773h86l66 -76l70 76h86l-108 -142h-101z" />
    <glyph glyph-name="Sacute" unicode="&#x15a;" horiz-adv-x="589" 
d="M165 1q-65 7 -110 18v117q89 -9 225 -9q61 0 92 16.5t31 58.5v27q0 33 -19.5 50.5t-55.5 17.5h-63q-110 0 -164.5 48t-54.5 157v36q0 208 239 208q56 0 116 -7.5t108 -17.5v-117q-137 9 -207 9q-57 0 -86 -17.5t-29 -64.5v-20q0 -38 21.5 -55.5t65.5 -17.5h73
q96 0 146.5 -52.5t50.5 -137.5v-42q0 -84 -31 -130.5t-87 -64t-139 -17.5q-57 0 -122 7zM335 931h119l-115 -140h-87z" />
    <glyph glyph-name="sacute" unicode="&#x15b;" horiz-adv-x="505" 
d="M136.5 0.5q-60.5 6.5 -92.5 17.5v87h238q33 0 47 9t14 35v17q0 21 -13.5 31.5t-47.5 10.5h-84q-75 0 -119 34.5t-44 111.5v31q0 80 48.5 118.5t167.5 38.5q49 0 107 -7.5t88 -17.5v-87h-225q-31 0 -45 -10t-14 -35v-16q0 -25 15 -33.5t50 -8.5h86q80 0 118.5 -36.5
t38.5 -104.5v-48q0 -79 -54 -111.5t-164 -32.5q-55 0 -115.5 6.5zM286 771h119l-115 -140h-87z" />
    <glyph glyph-name="Scircumflex" unicode="&#x15c;" horiz-adv-x="589" 
d="M165 1q-65 7 -110 18v117q89 -9 225 -9q61 0 92 16.5t31 58.5v27q0 33 -19.5 50.5t-55.5 17.5h-63q-110 0 -164.5 48t-54.5 157v36q0 208 239 208q56 0 116 -7.5t108 -17.5v-117q-137 9 -207 9q-57 0 -86 -17.5t-29 -64.5v-20q0 -38 21.5 -55.5t65.5 -17.5h73
q96 0 146.5 -52.5t50.5 -137.5v-42q0 -84 -31 -130.5t-87 -64t-139 -17.5q-57 0 -122 7zM242 933h102l98 -142h-86l-66 76l-70 -76h-86z" />
    <glyph glyph-name="scircumflex" unicode="&#x15d;" horiz-adv-x="505" 
d="M136.5 0.5q-60.5 6.5 -92.5 17.5v87h238q33 0 47 9t14 35v17q0 21 -13.5 31.5t-47.5 10.5h-84q-75 0 -119 34.5t-44 111.5v31q0 80 48.5 118.5t167.5 38.5q49 0 107 -7.5t88 -17.5v-87h-225q-31 0 -45 -10t-14 -35v-16q0 -25 15 -33.5t50 -8.5h86q80 0 118.5 -36.5
t38.5 -104.5v-48q0 -79 -54 -111.5t-164 -32.5q-55 0 -115.5 6.5zM198 773h102l98 -142h-86l-66 76l-70 -76h-86z" />
    <glyph glyph-name="Scedilla" unicode="&#x15e;" horiz-adv-x="589" 
d="M493.5 385.5q50.5 -52.5 50.5 -137.5v-42q0 -110 -54 -157t-158 -54l-29 -46q31 -3 49 -20t18 -47q0 -38 -27 -59t-80 -21h-48v61l18 3q41 4 41 34t-46 36l37 58q-56 2 -113 8.5t-97 16.5v117q89 -9 225 -9q61 0 92 16.5t31 58.5v27q0 33 -19.5 50.5t-55.5 17.5h-63
q-110 0 -164.5 48t-54.5 157v36q0 208 239 208q56 0 116 -7.5t108 -17.5v-117q-137 9 -207 9q-57 0 -86 -17.5t-29 -64.5v-20q0 -38 21.5 -55.5t65.5 -17.5h73q96 0 146.5 -52.5z" />
    <glyph glyph-name="scedilla" unicode="&#x15f;" horiz-adv-x="505" 
d="M431.5 290.5q38.5 -36.5 38.5 -104.5v-48q0 -72 -45.5 -105t-136.5 -38l-29 -46q31 -3 49 -20t18 -47q0 -38 -27 -59t-80 -21h-48v61l18 3q41 4 41 34t-46 36l37 59q-53 2 -102 7.5t-75 15.5v87h238q33 0 47 9t14 35v17q0 21 -13.5 31.5t-47.5 10.5h-84q-75 0 -119 34.5
t-44 111.5v31q0 80 48.5 118.5t167.5 38.5q49 0 107 -7.5t88 -17.5v-87h-225q-31 0 -45 -10t-14 -35v-16q0 -25 15 -33.5t50 -8.5h86q80 0 118.5 -36.5z" />
    <glyph glyph-name="Scaron" unicode="&#x160;" horiz-adv-x="589" 
d="M165 1q-65 7 -110 18v117q89 -9 225 -9q61 0 92 16.5t31 58.5v27q0 33 -19.5 50.5t-55.5 17.5h-63q-110 0 -164.5 48t-54.5 157v36q0 208 239 208q56 0 116 -7.5t108 -17.5v-117q-137 9 -207 9q-57 0 -86 -17.5t-29 -64.5v-20q0 -38 21.5 -55.5t65.5 -17.5h73
q96 0 146.5 -52.5t50.5 -137.5v-42q0 -84 -31 -130.5t-87 -64t-139 -17.5q-57 0 -122 7zM138 933h86l66 -76l70 76h86l-108 -142h-101z" />
    <glyph glyph-name="scaron" unicode="&#x161;" horiz-adv-x="505" 
d="M136.5 0.5q-60.5 6.5 -92.5 17.5v87h238q33 0 47 9t14 35v17q0 21 -13.5 31.5t-47.5 10.5h-84q-75 0 -119 34.5t-44 111.5v31q0 80 48.5 118.5t167.5 38.5q49 0 107 -7.5t88 -17.5v-87h-225q-31 0 -45 -10t-14 -35v-16q0 -25 15 -33.5t50 -8.5h86q80 0 118.5 -36.5
t38.5 -104.5v-48q0 -79 -54 -111.5t-164 -32.5q-55 0 -115.5 6.5zM94 773h86l66 -76l70 76h86l-108 -142h-101z" />
    <glyph glyph-name="uni0162" unicode="&#x162;" horiz-adv-x="587" 
d="M338 0l-32 -51q31 -3 49 -20t18 -47q0 -38 -27 -59t-80 -21h-48v61l18 3q41 4 41 34t-46 36l40 64h-52v607h-203v133h555v-133h-204v-607h-29z" />
    <glyph glyph-name="uni0163" unicode="&#x163;" horiz-adv-x="389" 
d="M237 418v-226q0 -40 14 -56t39 -20l68 -6v-110h-97h-7l-32 -51q31 -3 49 -20t18 -47q0 -38 -27 -59t-80 -21h-48v61l18 3q41 4 41 34t-46 36l45 71q-56 14 -80 57t-22 127l5 227h-84v95l89 24l20 150h117v-150h126v-119h-126z" />
    <glyph glyph-name="Tcaron" unicode="&#x164;" horiz-adv-x="587" 
d="M219 607h-203v133h555v-133h-204v-607h-148v607zM141 933h86l66 -76l70 76h86l-108 -142h-101z" />
    <glyph glyph-name="tcaron" unicode="&#x165;" horiz-adv-x="389" 
d="M160 18q-38 18 -55 60t-15 113l5 227h-84v95l89 24l20 150h117v-150h126v-119h-126v-226q0 -40 14 -56t39 -20l68 -6v-110h-97q-63 0 -101 18zM288 719v64h134v-64l-8 -137h-117z" />
    <glyph glyph-name="Tbar" unicode="&#x166;" horiz-adv-x="587" 
d="M367 607v-186h169v-75h-169v-346h-148v346h-169v75h169v186h-203v133h555v-133h-204z" />
    <glyph glyph-name="tbar" unicode="&#x167;" horiz-adv-x="389" 
d="M237 418v-94h121v-59h-121v-73q0 -40 14 -56t39 -20l68 -6v-110h-97q-63 0 -101 18t-55 60t-15 113l2 74h-81v59h82l2 94h-84v95l89 24l20 150h117v-150h126v-119h-126z" />
    <glyph glyph-name="Utilde" unicode="&#x168;" horiz-adv-x="686" 
d="M129 47.5q-75 52.5 -75 190.5v502h148v-501q0 -59 35.5 -85t105.5 -26t105 26t35 85v501h149v-502q0 -138 -75.5 -190.5t-213.5 -52.5q-139 0 -214 52.5zM178.5 888q28.5 31 72.5 31q25 0 44 -7t43 -20q22 -11 33.5 -15.5t25.5 -4.5q20 0 31 13.5t12 38.5h74
q-3 -66 -29.5 -100t-73.5 -34q-24 0 -44 7t-46 20q-18 10 -31 15t-26 5q-19 0 -30.5 -13t-13.5 -35h-74q4 68 32.5 99z" />
    <glyph glyph-name="utilde" unicode="&#x169;" horiz-adv-x="595" 
d="M95.5 37q-40.5 43 -40.5 120v380h148v-336q0 -43 19.5 -59.5t58.5 -16.5q28 0 57.5 10.5t52.5 28.5v373h149v-537h-123l-26 55q-93 -61 -182 -61q-73 0 -113.5 43zM146.5 728q28.5 31 72.5 31q25 0 44 -7t43 -20q22 -11 33.5 -15.5t25.5 -4.5q20 0 31 13.5t12 38.5h74
q-3 -66 -29.5 -100t-73.5 -34q-24 0 -44 7t-46 20q-18 10 -31 15t-26 5q-19 0 -30.5 -13t-13.5 -35h-74q4 68 32.5 99z" />
    <glyph glyph-name="Umacron" unicode="&#x16a;" horiz-adv-x="686" 
d="M129 47.5q-75 52.5 -75 190.5v502h148v-501q0 -59 35.5 -85t105.5 -26t105 26t35 85v501h149v-502q0 -138 -75.5 -190.5t-213.5 -52.5q-139 0 -214 52.5zM188 895h281v-88h-281v88z" />
    <glyph glyph-name="umacron" unicode="&#x16b;" horiz-adv-x="595" 
d="M95.5 37q-40.5 43 -40.5 120v380h148v-336q0 -43 19.5 -59.5t58.5 -16.5q28 0 57.5 10.5t52.5 28.5v373h149v-537h-123l-26 55q-93 -61 -182 -61q-73 0 -113.5 43zM149 735h281v-88h-281v88z" />
    <glyph glyph-name="Ubreve" unicode="&#x16c;" horiz-adv-x="686" 
d="M129 47.5q-75 52.5 -75 190.5v502h148v-501q0 -59 35.5 -85t105.5 -26t105 26t35 85v501h149v-502q0 -138 -75.5 -190.5t-213.5 -52.5q-139 0 -214 52.5zM224.5 820.5q-36.5 37.5 -36.5 113.5h69q0 -44 20 -63.5t50 -19.5q70 0 70 83h70q0 -77 -36.5 -114t-103.5 -37
q-66 0 -102.5 37.5z" />
    <glyph glyph-name="ubreve" unicode="&#x16d;" horiz-adv-x="595" 
d="M95.5 37q-40.5 43 -40.5 120v380h148v-336q0 -43 19.5 -59.5t58.5 -16.5q28 0 57.5 10.5t52.5 28.5v373h149v-537h-123l-26 55q-93 -61 -182 -61q-73 0 -113.5 43zM183.5 660.5q-36.5 37.5 -36.5 113.5h69q0 -44 20 -63.5t50 -19.5q70 0 70 83h70q0 -77 -36.5 -114
t-103.5 -37q-66 0 -102.5 37.5z" />
    <glyph glyph-name="Uring" unicode="&#x16e;" horiz-adv-x="686" 
d="M129 47.5q-75 52.5 -75 190.5v502h148v-501q0 -59 35.5 -85t105.5 -26t105 26t35 85v501h149v-502q0 -138 -75.5 -190.5t-213.5 -52.5q-139 0 -214 52.5zM241.5 792.5q-30.5 25.5 -30.5 87.5t31 88t93 26t92 -26t30 -88t-30 -87.5t-92 -25.5q-63 0 -93.5 25.5zM376.5 835
q12.5 13 12.5 45q0 33 -13 46.5t-41 13.5q-29 0 -42.5 -13.5t-13.5 -46.5q0 -32 13.5 -45t42.5 -13t41.5 13z" />
    <glyph glyph-name="uring" unicode="&#x16f;" horiz-adv-x="595" 
d="M95.5 37q-40.5 43 -40.5 120v380h148v-336q0 -43 19.5 -59.5t58.5 -16.5q28 0 57.5 10.5t52.5 28.5v373h149v-537h-123l-26 55q-93 -61 -182 -61q-73 0 -113.5 43zM200.5 610.5q-30.5 25.5 -30.5 87.5t31 88t93 26t92 -26t30 -88t-30 -87.5t-92 -25.5q-63 0 -93.5 25.5z
M335.5 653q12.5 13 12.5 45q0 33 -13 46.5t-41 13.5q-29 0 -42.5 -13.5t-13.5 -46.5q0 -32 13.5 -45t42.5 -13t41.5 13z" />
    <glyph glyph-name="Uhungarumlaut" unicode="&#x170;" horiz-adv-x="686" 
d="M129 47.5q-75 52.5 -75 190.5v502h148v-501q0 -59 35.5 -85t105.5 -26t105 26t35 85v501h149v-502q0 -138 -75.5 -190.5t-213.5 -52.5q-139 0 -214 52.5zM271 931h113l-101 -140h-87zM435 931h112l-100 -140h-87z" />
    <glyph glyph-name="uhungarumlaut" unicode="&#x171;" horiz-adv-x="595" 
d="M95.5 37q-40.5 43 -40.5 120v380h148v-336q0 -43 19.5 -59.5t58.5 -16.5q28 0 57.5 10.5t52.5 28.5v373h149v-537h-123l-26 55q-93 -61 -182 -61q-73 0 -113.5 43zM230 771h113l-101 -140h-87zM394 771h112l-100 -140h-87z" />
    <glyph glyph-name="Uogonek" unicode="&#x172;" horiz-adv-x="686" 
d="M632 740v-502q0 -115 -53.5 -170t-151.5 -68h1q-26 -16 -37.5 -32t-11.5 -36q0 -24 16 -37.5t42 -13.5h9v-69q-9 -4 -32 -4q-54 0 -80.5 26.5t-26.5 63.5q0 62 59 97h-23q-139 0 -214 52.5t-75 190.5v502h148v-501q0 -59 35.5 -85t105.5 -26t105 26t35 85v501h149z" />
    <glyph glyph-name="uogonek" unicode="&#x173;" horiz-adv-x="595" 
d="M558 -119v-69q-9 -4 -32 -4q-54 0 -80.5 26.5t-26.5 63.5q0 67 67 102h-69l-26 55q-93 -61 -182 -61q-73 0 -113.5 43t-40.5 120v380h148v-336q0 -43 19.5 -59.5t58.5 -16.5q28 0 57.5 10.5t52.5 28.5v373h149v-537q-26 -16 -37.5 -32t-11.5 -36q0 -24 16 -37.5t42 -13.5
h9z" />
    <glyph glyph-name="Wcircumflex" unicode="&#x174;" horiz-adv-x="991" 
d="M17 740h153l119 -522l139 522h136l138 -522l119 522h153l-177 -740h-151l-150 522l-151 -522h-151zM475 933h102l98 -142h-86l-66 76l-70 -76h-86z" />
    <glyph glyph-name="wcircumflex" unicode="&#x175;" horiz-adv-x="826" 
d="M12 537h153l85 -400l106 400h122l106 -400l77 400h153l-140 -537h-164l-96 327l-99 -327h-161zM371 773h102l98 -142h-86l-66 76l-70 -76h-86z" />
    <glyph glyph-name="Ycircumflex" unicode="&#x176;" horiz-adv-x="628" 
d="M240 224l-223 516h154l146 -365l145 365h148l-222 -516v-224h-148v224zM269 933h102l98 -142h-86l-66 76l-70 -76h-86z" />
    <glyph glyph-name="ycircumflex" unicode="&#x177;" horiz-adv-x="569" 
d="M283 0q-133 0 -170 144l-101 393h154l85 -363q8 -33 24 -42t34 -11l97 416h150l-160 -675l-48 -99h-123zM227 773h102l98 -142h-86l-66 76l-70 -76h-86z" />
    <glyph glyph-name="Ydieresis" unicode="&#x178;" horiz-adv-x="628" 
d="M240 224l-223 516h154l146 -365l145 365h148l-222 -516v-224h-148v224zM155 802.5q-6 5.5 -6 15.5v97q0 10 5.5 16t15.5 6h69q9 0 14.5 -6.5t5.5 -15.5v-97q0 -21 -20 -21h-69q-9 0 -15 5.5zM367.5 802.5q-5.5 5.5 -5.5 15.5v97q0 10 5 16t15 6h69q9 0 14.5 -6.5
t5.5 -15.5v-97q0 -21 -20 -21h-69q-9 0 -14.5 5.5z" />
    <glyph glyph-name="Zacute" unicode="&#x179;" horiz-adv-x="574" 
d="M38 119l319 488h-319v133h500v-118l-319 -489h319v-133h-500v119zM327 931h119l-115 -140h-87z" />
    <glyph glyph-name="zacute" unicode="&#x17a;" horiz-adv-x="505" 
d="M45 107l253 311h-263v119h435v-107l-254 -311h254v-119h-425v107zM285 771h119l-115 -140h-87z" />
    <glyph glyph-name="Zdotaccent" unicode="&#x17b;" horiz-adv-x="574" 
d="M38 119l319 488h-319v133h500v-118l-319 -489h319v-133h-500v119zM230 809.5q-6 5.5 -6 15.5v97q0 10 5.5 16t15.5 6h69q9 0 14.5 -6.5t5.5 -15.5v-97q0 -21 -20 -21h-69q-9 0 -15 5.5z" />
    <glyph glyph-name="zdotaccent" unicode="&#x17c;" horiz-adv-x="505" 
d="M45 107l253 311h-263v119h435v-107l-254 -311h254v-119h-425v107zM194 649.5q-6 5.5 -6 15.5v97q0 10 5.5 16t15.5 6h69q9 0 14.5 -6.5t5.5 -15.5v-97q0 -21 -20 -21h-69q-9 0 -15 5.5z" />
    <glyph glyph-name="Zcaron" unicode="&#x17d;" horiz-adv-x="574" 
d="M38 119l319 488h-319v133h500v-118l-319 -489h319v-133h-500v119zM130 933h86l66 -76l70 76h86l-108 -142h-101z" />
    <glyph glyph-name="zcaron" unicode="&#x17e;" horiz-adv-x="505" 
d="M45 107l253 311h-263v119h435v-107l-254 -311h254v-119h-425v107zM93 773h86l66 -76l70 76h86l-108 -142h-101z" />
    <glyph glyph-name="uni018F" unicode="&#x18f;" horiz-adv-x="625" 
d="M107 72.5q-68 78.5 -68 254.5v96h392q-2 76 -22.5 117t-61 57.5t-110.5 16.5q-79 0 -164 -11v115q83 29 201 29q103 0 168.5 -29t101.5 -109t36 -227q0 -153 -34 -238t-94 -117.5t-148 -32.5q-129 0 -197 78.5zM393 165.5q31 38.5 35 138.5h-239q2 -66 13 -104
t35.5 -55.5t67.5 -17.5q57 0 88 38.5z" />
    <glyph glyph-name="florin" unicode="&#x192;" 
d="M61.5 -198q-29.5 6 -46.5 14l15 91h49q46 0 69 32t37 112l55 324h-86l17 104h81l25 133q16 88 60.5 137.5t128.5 49.5q72 0 115 -19l-14 -92h-49q-47 0 -68.5 -27.5t-31.5 -88.5l-18 -93h109l-17 -104h-104l-49 -287q-25 -151 -73.5 -221.5t-139.5 -70.5q-35 0 -64.5 6z
" />
    <glyph glyph-name="Ohorn" unicode="&#x1a0;" horiz-adv-x="699" 
d="M648.5 734.5q-23.5 -45.5 -65.5 -63.5q36 -43 53.5 -116t17.5 -186q0 -155 -33 -236t-97.5 -110t-173.5 -29t-174 29t-98 110t-33 236t33.5 236.5t98.5 111.5t173 30q57 0 99 -7h49q35 0 53.5 25.5t18.5 84.5h102q0 -70 -23.5 -115.5zM445.5 145.5q32.5 18.5 46.5 70
t14 153.5q0 106 -14 157.5t-46.5 69.5t-95.5 18q-62 0 -94.5 -18t-47.5 -70t-15 -157q0 -103 14 -154t46.5 -69.5t96.5 -18.5q63 0 95.5 18.5z" />
    <glyph glyph-name="ohorn" unicode="&#x1a1;" horiz-adv-x="575" 
d="M545 538.5q-20 -43.5 -57 -64.5q24 -31 35 -81t11 -123q0 -107 -24 -166.5t-77 -84t-146 -24.5q-91 0 -144 25.5t-77.5 85t-24.5 164.5q0 109 24.5 168.5t77.5 83t144 23.5q58 0 94 -8h10q35 0 53 25t18 85h103q0 -65 -20 -108.5zM346 123.5q20 10.5 30 44t10 102.5
t-10 102.5t-30 44t-59 10.5q-38 0 -58 -10.5t-30 -44t-10 -102.5t10 -102.5t30 -44t58 -10.5q39 0 59 10.5z" />
    <glyph glyph-name="Uhorn" unicode="&#x1af;" horiz-adv-x="686" 
d="M697.5 734.5q-23.5 -45.5 -65.5 -63.5v-433q0 -138 -75.5 -190.5t-213.5 -52.5q-139 0 -214 52.5t-75 190.5v502h148v-501q0 -59 35.5 -85t105.5 -26t105 26t35 85v501h64q35 0 53 25.5t18 84.5h103q0 -70 -23.5 -115.5z" />
    <glyph glyph-name="uhorn" unicode="&#x1b0;" horiz-adv-x="595" 
d="M605 532q-23 -45 -65 -63v-469h-123l-26 55q-93 -61 -182 -61q-73 0 -113.5 43t-40.5 120v380h148v-336q0 -43 19.5 -59.5t58.5 -16.5q28 0 57.5 10.5t52.5 28.5v373h63q35 0 53 25t18 85h103q0 -70 -23 -115z" />
    <glyph glyph-name="Gcaron" unicode="&#x1e6;" horiz-adv-x="666" 
d="M134 40q-50 45 -69.5 126.5t-19.5 203.5q0 128 22.5 209t82 124.5t168.5 43.5q71 0 128 -8.5t122 -24.5v-114q-39 5 -99.5 9.5t-123.5 4.5q-64 0 -96 -22.5t-44 -74t-12 -148.5t12 -147.5t39 -70.5t77 -20q38 0 75 6t64 15v144h-133v117q30 4 78.5 7t92.5 3q62 0 104 -3
v-420h-111l-20 50q-37 -22 -89.5 -38.5t-109.5 -16.5q-88 0 -138 45zM174 933h86l66 -76l70 76h86l-108 -142h-101z" />
    <glyph glyph-name="gcaron" unicode="&#x1e7;" horiz-adv-x="582" 
d="M564 456l-82 -15q18 -19 29 -44t11 -68q0 -75 -47 -119.5t-147 -44.5h-95q-61 0 -61 -37q0 -16 13.5 -23t33.5 -7h148q96 0 145 -38.5t49 -122.5v-15q0 -81 -51 -125.5t-153 -44.5h-161q-78 0 -127 34t-49 95v16q0 40 22 70t59 47q-54 32 -54 89q0 40 23.5 67.5
t65.5 37.5q-45 24 -65.5 64t-20.5 90q0 89 55 132t168 43h291v-81zM371 295q17 19 17 55q0 41 -18 58.5t-55 17.5h-56q-39 0 -57.5 -17t-18.5 -57q0 -39 17.5 -57.5t53.5 -18.5h57q43 0 60 19zM235 -13q-34 0 -54.5 -16t-20.5 -45v-11q0 -29 19.5 -44t57.5 -15h102
q38 0 60 14.5t22 43.5v16q0 27 -19.5 42t-58.5 15h-108zM138 773h86l66 -76l70 76h86l-108 -142h-101z" />
    <glyph glyph-name="uni01EA" unicode="&#x1ea;" horiz-adv-x="699" 
d="M386.5 -33.5q-10.5 -15.5 -10.5 -34.5q0 -24 16 -37.5t42 -13.5h9v-69q-9 -4 -32 -4q-54 0 -80.5 26.5t-26.5 63.5q0 61 57 96h-11q-109 0 -174 29t-98 110t-33 236t33.5 236.5t98.5 111.5t173 30q109 0 173.5 -30t97.5 -111.5t33 -236.5q0 -137 -25.5 -215.5t-76 -113.5
t-132.5 -43q-23 -15 -33.5 -30.5zM207 215q14 -51 46.5 -69.5t96.5 -18.5q63 0 95.5 18.5t46.5 70t14 153.5q0 106 -14 157.5t-46.5 69.5t-95.5 18q-62 0 -94.5 -18t-47.5 -70t-15 -157q0 -103 14 -154z" />
    <glyph glyph-name="uni01EB" unicode="&#x1eb;" horiz-adv-x="575" 
d="M302 -68q0 -24 16 -37.5t42 -13.5h9v-69q-9 -4 -32 -4q-54 0 -80.5 26.5t-26.5 63.5q0 63 58 97h-1q-91 0 -144 25.5t-77.5 85t-24.5 164.5q0 109 24.5 168.5t77.5 83t144 23.5q92 0 145 -24.5t77.5 -84t24.5 -166.5q0 -94 -18.5 -151t-58.5 -85.5t-109 -35.5
q-46 -28 -46 -66zM199 167.5q10 -33.5 30 -44t58 -10.5q39 0 59 10.5t30 44t10 102.5t-10 102.5t-30 44t-59 10.5q-38 0 -58 -10.5t-30 -44t-10 -102.5t10 -102.5z" />
    <glyph glyph-name="Aringacute" unicode="&#x1fa;" horiz-adv-x="685" 
d="M248.5 792.5q-30.5 25.5 -30.5 87.5q0 53 23 79.5t69 32.5l76 129h119l-109 -133q34 -9 51 -35t17 -73q0 -62 -30 -87.5t-92 -25.5q-63 0 -93.5 25.5zM299.5 926.5q-13.5 -13.5 -13.5 -46.5q0 -32 13.5 -45t42.5 -13t41.5 13t12.5 45q0 33 -13 46.5t-41 13.5
q-29 0 -42.5 -13.5zM668 0h-154l-47 155h-252l-46 -155h-152l232 740h187zM432 288l-91 325l-91 -325h182z" />
    <glyph glyph-name="aringacute" unicode="&#x1fb;" horiz-adv-x="550" 
d="M177.5 610.5q-30.5 25.5 -30.5 87.5q0 54 23.5 80.5t71.5 31.5l71 121h119l-104 -126q33 -10 49 -35.5t16 -71.5q0 -62 -30 -87.5t-92 -25.5q-63 0 -93.5 25.5zM228.5 744.5q-13.5 -13.5 -13.5 -46.5q0 -32 13.5 -45t42.5 -13t41.5 13t12.5 45q0 33 -13 46.5t-41 13.5
q-29 0 -42.5 -13.5zM443.5 504q52.5 -40 52.5 -139v-365h-117l-24 57q-11 -11 -39 -26t-66.5 -26t-78.5 -11q-62 0 -99.5 36.5t-37.5 99.5v48q0 64 44.5 102t132.5 38h137v37q0 27 -9 42.5t-34 23t-74 7.5h-161v86q99 30 215 30q106 0 158.5 -40zM348 248l-90 -6
q-76 -6 -76 -66v-22q0 -57 66 -57q23 0 57 10.5t43 15.5v125z" />
    <glyph glyph-name="AEacute" unicode="&#x1fc;" horiz-adv-x="981" 
d="M519 21.5q-42 26.5 -49 92.5v40h-217l-91 -154h-145l300 549q56 106 127 148.5t187 42.5q113 0 305 -13v-124h-273q-32 0 -46 -13.5t-14 -41.5v-113l286 -8v-117l-286 -8v-102q0 -40 19.5 -53t56.5 -13h257v-123q-151 -16 -292 -16q-83 0 -125 26.5zM470 280v282
l-151 -282h151zM577 931h119l-115 -140h-87z" />
    <glyph glyph-name="aeacute" unicode="&#x1fd;" horiz-adv-x="852" 
d="M71 33q-35 39 -35 99v44q0 63 44 101.5t134 38.5h137v42q0 37 -24 53.5t-82 16.5h-172v86q47 15 89.5 22.5t97.5 7.5q57 0 101.5 -17t67.5 -46q53 64 166 64q76 0 121 -17t66.5 -58.5t21.5 -115.5q0 -73 -45 -103.5t-137 -30.5h-127q0 -47 17.5 -72t48.5 -34t82 -9h143
v-87q-83 -24 -216 -24q-61 0 -109.5 25t-71.5 64q-35 -37 -91 -63t-120 -26q-72 0 -107 39zM618 313q27 0 40 11t13 34q0 43 -21 59.5t-67 16.5q-36 0 -54.5 -11t-25.5 -36.5t-8 -73.5h123zM307.5 110q29.5 13 52.5 35q-11 42 -11 100l-106 -9q-30 -2 -44 -18.5t-14 -40.5
v-20q0 -60 63 -60q30 0 59.5 13zM468 771h119l-115 -140h-87z" />
    <glyph glyph-name="Oslashacute" unicode="&#x1fe;" horiz-adv-x="699" 
d="M638.5 547q15.5 -71 15.5 -178q0 -155 -33 -236t-97.5 -110t-173.5 -29q-58 0 -102 7t-77 25l-17 -26h-98l52 79q-32 43 -47.5 113t-15.5 177q0 155 33.5 236.5t98.5 111.5t173 30q58 0 101.5 -7.5t77.5 -25.5l17 26h98l-53 -80q32 -42 47.5 -113zM205 224l244 370
q-17 11 -40.5 15.5t-58.5 4.5q-62 0 -94.5 -18t-47.5 -70t-15 -157q0 -98 12 -145zM445.5 145.5q32.5 18.5 46.5 70t14 153.5q0 97 -11 146l-244 -368q32 -20 99 -20q63 0 95.5 18.5zM395 931h119l-115 -140h-87z" />
    <glyph glyph-name="oslashacute" unicode="&#x1ff;" horiz-adv-x="575" 
d="M491 470q22 -31 32.5 -80t10.5 -120q0 -107 -24 -166.5t-77 -84t-146 -24.5q-109 0 -163 37l-27 -32h-69l58 69q-45 62 -45 201q0 109 24.5 168.5t77.5 83t144 23.5q56 0 97 -8.5t70 -28.5l24 29h69zM193 197l170 203q-11 16 -28.5 21.5t-47.5 5.5q-38 0 -58 -10.5
t-30 -44t-10 -102.5q0 -48 4 -73zM382 341l-169 -203q11 -15 28.5 -20t45.5 -5q39 0 59 10.5t30 44t10 102.5q0 44 -4 71zM327 771h119l-115 -140h-87z" />
    <glyph glyph-name="uni0200" unicode="&#x200;" horiz-adv-x="685" 
d="M249 740h187l232 -740h-154l-47 155h-252l-46 -155h-152zM432 288l-91 325l-91 -325h182zM109 931h120l82 -140h-87zM288 931h119l83 -140h-88z" />
    <glyph glyph-name="uni0201" unicode="&#x201;" horiz-adv-x="550" 
d="M71.5 30.5q-37.5 36.5 -37.5 99.5v48q0 64 44.5 102t132.5 38h137v37q0 27 -9 42.5t-34 23t-74 7.5h-161v86q99 30 215 30q106 0 158.5 -40t52.5 -139v-365h-117l-24 57q-11 -11 -39 -26t-66.5 -26t-78.5 -11q-62 0 -99.5 36.5zM305 107.5q34 10.5 43 15.5v125l-90 -6
q-76 -6 -76 -66v-22q0 -57 66 -57q23 0 57 10.5zM40 771h119l83 -140h-87zM218 771h120l82 -140h-87z" />
    <glyph glyph-name="uni0202" unicode="&#x202;" horiz-adv-x="685" 
d="M249 740h187l232 -740h-154l-47 155h-252l-46 -155h-152zM432 288l-91 325l-91 -325h182zM444.5 899.5q36.5 -37.5 36.5 -113.5h-69q0 44 -20 63.5t-50 19.5q-70 0 -70 -83h-70q0 77 36.5 114t103.5 37q66 0 102.5 -37.5z" />
    <glyph glyph-name="uni0203" unicode="&#x203;" horiz-adv-x="550" 
d="M71.5 30.5q-37.5 36.5 -37.5 99.5v48q0 64 44.5 102t132.5 38h137v37q0 27 -9 42.5t-34 23t-74 7.5h-161v86q99 30 215 30q106 0 158.5 -40t52.5 -139v-365h-117l-24 57q-11 -11 -39 -26t-66.5 -26t-78.5 -11q-62 0 -99.5 36.5zM305 107.5q34 10.5 43 15.5v125l-90 -6
q-76 -6 -76 -66v-22q0 -57 66 -57q23 0 57 10.5zM374.5 739.5q36.5 -37.5 36.5 -113.5h-69q0 44 -20 63.5t-50 19.5q-70 0 -70 -83h-70q0 77 36.5 114t103.5 37q66 0 102.5 -37.5z" />
    <glyph glyph-name="uni0204" unicode="&#x204;" horiz-adv-x="597" 
d="M118 27q-54 32 -54 131v413q0 90 49.5 129.5t119.5 39.5q153 0 320 -13v-124h-276q-65 0 -65 -61v-107l293 -8v-117l-293 -8v-102q0 -66 62 -66h279v-124q-133 -15 -309 -15q-72 0 -126 32zM81 931h120l82 -140h-87zM260 931h119l83 -140h-88z" />
    <glyph glyph-name="uni0205" unicode="&#x205;" horiz-adv-x="537" 
d="M140 19q-52 24 -75.5 83t-23.5 166q0 110 22 169.5t72.5 83.5t142.5 24q82 0 129 -16t68.5 -56t21.5 -113q0 -78 -44.5 -111t-129.5 -33h-135q2 -43 13 -66.5t39 -34t82 -10.5h157v-87q-53 -11 -96 -17t-100 -6q-91 0 -143 24zM308 304q31 0 44.5 12.5t13.5 42.5
q0 44 -20 61.5t-68 17.5q-35 0 -54.5 -11.5t-28.5 -40.5t-9 -82h122zM40 771h119l83 -140h-87zM218 771h120l82 -140h-87z" />
    <glyph glyph-name="uni0206" unicode="&#x206;" horiz-adv-x="597" 
d="M118 27q-54 32 -54 131v413q0 90 49.5 129.5t119.5 39.5q153 0 320 -13v-124h-276q-65 0 -65 -61v-107l293 -8v-117l-293 -8v-102q0 -66 62 -66h279v-124q-133 -15 -309 -15q-72 0 -126 32zM416.5 899.5q36.5 -37.5 36.5 -113.5h-69q0 44 -20 63.5t-50 19.5
q-70 0 -70 -83h-70q0 77 36.5 114t103.5 37q66 0 102.5 -37.5z" />
    <glyph glyph-name="uni0207" unicode="&#x207;" horiz-adv-x="537" 
d="M140 19q-52 24 -75.5 83t-23.5 166q0 110 22 169.5t72.5 83.5t142.5 24q82 0 129 -16t68.5 -56t21.5 -113q0 -78 -44.5 -111t-129.5 -33h-135q2 -43 13 -66.5t39 -34t82 -10.5h157v-87q-53 -11 -96 -17t-100 -6q-91 0 -143 24zM308 304q31 0 44.5 12.5t13.5 42.5
q0 44 -20 61.5t-68 17.5q-35 0 -54.5 -11.5t-28.5 -40.5t-9 -82h122zM374.5 739.5q36.5 -37.5 36.5 -113.5h-69q0 44 -20 63.5t-50 19.5q-70 0 -70 -83h-70q0 77 36.5 114t103.5 37q66 0 102.5 -37.5z" />
    <glyph glyph-name="uni0208" unicode="&#x208;" horiz-adv-x="276" 
d="M64 740h148v-740h-148v740zM-94 931h120l82 -140h-87zM85 931h119l83 -140h-88z" />
    <glyph glyph-name="uni0209" unicode="&#x209;" horiz-adv-x="261" 
d="M57 537h148v-537h-148v537zM-99 771h119l83 -140h-87zM79 771h120l82 -140h-87z" />
    <glyph glyph-name="uni020A" unicode="&#x20a;" horiz-adv-x="276" 
d="M64 740h148v-740h-148v740zM241.5 899.5q36.5 -37.5 36.5 -113.5h-69q0 44 -20 63.5t-50 19.5q-70 0 -70 -83h-70q0 77 36.5 114t103.5 37q66 0 102.5 -37.5z" />
    <glyph glyph-name="uni020B" unicode="&#x20b;" horiz-adv-x="261" 
d="M57 537h148v-537h-148v537zM235.5 739.5q36.5 -37.5 36.5 -113.5h-69q0 44 -20 63.5t-50 19.5q-70 0 -70 -83h-70q0 77 36.5 114t103.5 37q66 0 102.5 -37.5z" />
    <glyph glyph-name="uni020C" unicode="&#x20c;" horiz-adv-x="699" 
d="M176 23q-65 29 -98 110t-33 236t33.5 236.5t98.5 111.5t173 30q109 0 173.5 -30t97.5 -111.5t33 -236.5t-33 -236t-97.5 -110t-173.5 -29t-174 29zM445.5 145.5q32.5 18.5 46.5 70t14 153.5q0 106 -14 157.5t-46.5 69.5t-95.5 18q-62 0 -94.5 -18t-47.5 -70t-15 -157
q0 -103 14 -154t46.5 -69.5t96.5 -18.5q63 0 95.5 18.5zM118 931h120l82 -140h-87zM297 931h119l83 -140h-88z" />
    <glyph glyph-name="uni020D" unicode="&#x20d;" horiz-adv-x="575" 
d="M143 20.5q-53 25.5 -77.5 85t-24.5 164.5q0 109 24.5 168.5t77.5 83t144 23.5q92 0 145 -24.5t77.5 -84t24.5 -166.5t-24 -166.5t-77 -84t-146 -24.5q-91 0 -144 25.5zM346 123.5q20 10.5 30 44t10 102.5t-10 102.5t-30 44t-59 10.5q-38 0 -58 -10.5t-30 -44t-10 -102.5
t10 -102.5t30 -44t58 -10.5q39 0 59 10.5zM58 771h119l83 -140h-87zM236 771h120l82 -140h-87z" />
    <glyph glyph-name="uni020E" unicode="&#x20e;" horiz-adv-x="699" 
d="M176 23q-65 29 -98 110t-33 236t33.5 236.5t98.5 111.5t173 30q109 0 173.5 -30t97.5 -111.5t33 -236.5t-33 -236t-97.5 -110t-173.5 -29t-174 29zM445.5 145.5q32.5 18.5 46.5 70t14 153.5q0 106 -14 157.5t-46.5 69.5t-95.5 18q-62 0 -94.5 -18t-47.5 -70t-15 -157
q0 -103 14 -154t46.5 -69.5t96.5 -18.5q63 0 95.5 18.5zM453.5 899.5q36.5 -37.5 36.5 -113.5h-69q0 44 -20 63.5t-50 19.5q-70 0 -70 -83h-70q0 77 36.5 114t103.5 37q66 0 102.5 -37.5z" />
    <glyph glyph-name="uni020F" unicode="&#x20f;" horiz-adv-x="575" 
d="M143 20.5q-53 25.5 -77.5 85t-24.5 164.5q0 109 24.5 168.5t77.5 83t144 23.5q92 0 145 -24.5t77.5 -84t24.5 -166.5t-24 -166.5t-77 -84t-146 -24.5q-91 0 -144 25.5zM346 123.5q20 10.5 30 44t10 102.5t-10 102.5t-30 44t-59 10.5q-38 0 -58 -10.5t-30 -44t-10 -102.5
t10 -102.5t30 -44t58 -10.5q39 0 59 10.5zM391.5 739.5q36.5 -37.5 36.5 -113.5h-69q0 44 -20 63.5t-50 19.5q-70 0 -70 -83h-70q0 77 36.5 114t103.5 37q66 0 102.5 -37.5z" />
    <glyph glyph-name="uni0210" unicode="&#x210;" horiz-adv-x="627" 
d="M64 740h306q98 0 154.5 -52.5t56.5 -184.5q0 -93 -31.5 -138t-85.5 -68l138 -297h-151l-119 274q-48 0 -120 2v-276h-148v740zM344 393q43 0 66 24.5t23 85.5q0 59 -23 81.5t-66 22.5h-132v-214h132zM68 931h120l82 -140h-87zM247 931h119l83 -140h-88z" />
    <glyph glyph-name="uni0211" unicode="&#x211;" horiz-adv-x="423" 
d="M57 537h114l34 -82q32 42 68.5 65.5t83.5 23.5q26 0 44 -5v-152q-52 5 -63 5q-43 0 -74 -14t-59 -44v-334h-148v537zM-8 771h119l83 -140h-87zM170 771h120l82 -140h-87z" />
    <glyph glyph-name="uni0212" unicode="&#x212;" horiz-adv-x="627" 
d="M64 740h306q98 0 154.5 -52.5t56.5 -184.5q0 -93 -31.5 -138t-85.5 -68l138 -297h-151l-119 274q-48 0 -120 2v-276h-148v740zM344 393q43 0 66 24.5t23 85.5q0 59 -23 81.5t-66 22.5h-132v-214h132zM403.5 899.5q36.5 -37.5 36.5 -113.5h-69q0 44 -20 63.5t-50 19.5
q-70 0 -70 -83h-70q0 77 36.5 114t103.5 37q66 0 102.5 -37.5z" />
    <glyph glyph-name="uni0213" unicode="&#x213;" horiz-adv-x="423" 
d="M57 537h114l34 -82q32 42 68.5 65.5t83.5 23.5q26 0 44 -5v-152q-52 5 -63 5q-43 0 -74 -14t-59 -44v-334h-148v537zM326.5 739.5q36.5 -37.5 36.5 -113.5h-69q0 44 -20 63.5t-50 19.5q-70 0 -70 -83h-70q0 77 36.5 114t103.5 37q66 0 102.5 -37.5z" />
    <glyph glyph-name="uni0214" unicode="&#x214;" horiz-adv-x="686" 
d="M129 47.5q-75 52.5 -75 190.5v502h148v-501q0 -59 35.5 -85t105.5 -26t105 26t35 85v501h149v-502q0 -138 -75.5 -190.5t-213.5 -52.5q-139 0 -214 52.5zM102 931h120l82 -140h-87zM281 931h119l83 -140h-88z" />
    <glyph glyph-name="uni0215" unicode="&#x215;" horiz-adv-x="595" 
d="M95.5 37q-40.5 43 -40.5 120v380h148v-336q0 -43 19.5 -59.5t58.5 -16.5q28 0 57.5 10.5t52.5 28.5v373h149v-537h-123l-26 55q-93 -61 -182 -61q-73 0 -113.5 43zM63 771h119l83 -140h-87zM241 771h120l82 -140h-87z" />
    <glyph glyph-name="uni0216" unicode="&#x216;" horiz-adv-x="686" 
d="M129 47.5q-75 52.5 -75 190.5v502h148v-501q0 -59 35.5 -85t105.5 -26t105 26t35 85v501h149v-502q0 -138 -75.5 -190.5t-213.5 -52.5q-139 0 -214 52.5zM437.5 899.5q36.5 -37.5 36.5 -113.5h-69q0 44 -20 63.5t-50 19.5q-70 0 -70 -83h-70q0 77 36.5 114t103.5 37
q66 0 102.5 -37.5z" />
    <glyph glyph-name="uni0217" unicode="&#x217;" horiz-adv-x="595" 
d="M95.5 37q-40.5 43 -40.5 120v380h148v-336q0 -43 19.5 -59.5t58.5 -16.5q28 0 57.5 10.5t52.5 28.5v373h149v-537h-123l-26 55q-93 -61 -182 -61q-73 0 -113.5 43zM397.5 739.5q36.5 -37.5 36.5 -113.5h-69q0 44 -20 63.5t-50 19.5q-70 0 -70 -83h-70q0 77 36.5 114
t103.5 37q66 0 102.5 -37.5z" />
    <glyph glyph-name="Scommaaccent" unicode="&#x218;" horiz-adv-x="589" 
d="M165 1q-65 7 -110 18v117q89 -9 225 -9q61 0 92 16.5t31 58.5v27q0 33 -19.5 50.5t-55.5 17.5h-63q-110 0 -164.5 48t-54.5 157v36q0 208 239 208q56 0 116 -7.5t108 -17.5v-117q-137 9 -207 9q-57 0 -86 -17.5t-29 -64.5v-20q0 -38 21.5 -55.5t65.5 -17.5h73
q96 0 146.5 -52.5t50.5 -137.5v-42q0 -84 -31 -130.5t-87 -64t-139 -17.5q-57 0 -122 7zM203 -155l27 7q21 5 31.5 11.5t15 21t4.5 42.5h90q0 -78 -25 -110.5t-91 -32.5h-52v61z" />
    <glyph glyph-name="scommaaccent" unicode="&#x219;" horiz-adv-x="505" 
d="M136.5 0.5q-60.5 6.5 -92.5 17.5v87h238q33 0 47 9t14 35v17q0 21 -13.5 31.5t-47.5 10.5h-84q-75 0 -119 34.5t-44 111.5v31q0 80 48.5 118.5t167.5 38.5q49 0 107 -7.5t88 -17.5v-87h-225q-31 0 -45 -10t-14 -35v-16q0 -25 15 -33.5t50 -8.5h86q80 0 118.5 -36.5
t38.5 -104.5v-48q0 -79 -54 -111.5t-164 -32.5q-55 0 -115.5 6.5zM160 -155l27 7q21 5 31.5 11.5t15 21t4.5 42.5h90q0 -78 -25 -110.5t-91 -32.5h-52v61z" />
    <glyph glyph-name="uni021A" unicode="&#x21a;" horiz-adv-x="587" 
d="M219 607h-203v133h555v-133h-204v-607h-148v607zM175 -155l27 7q21 5 31.5 11.5t15 21t4.5 42.5h90q0 -78 -25 -110.5t-91 -32.5h-52v61z" />
    <glyph glyph-name="uni021B" unicode="&#x21b;" horiz-adv-x="389" 
d="M160 18q-38 18 -55 60t-15 113l5 227h-84v95l89 24l20 150h117v-150h126v-119h-126v-226q0 -40 14 -56t39 -20l68 -6v-110h-97q-63 0 -101 18zM113 -155l27 7q21 5 31.5 11.5t15 21t4.5 42.5h90q0 -78 -25 -110.5t-91 -32.5h-52v61z" />
    <glyph glyph-name="uni022A" unicode="&#x22a;" horiz-adv-x="699" 
d="M176 23q-65 29 -98 110t-33 236t33.5 236.5t98.5 111.5t173 30q109 0 173.5 -30t97.5 -111.5t33 -236.5t-33 -236t-97.5 -110t-173.5 -29t-174 29zM445.5 145.5q32.5 18.5 46.5 70t14 153.5q0 106 -14 157.5t-46.5 69.5t-95.5 18q-62 0 -94.5 -18t-47.5 -70t-15 -157
q0 -103 14 -154t46.5 -69.5t96.5 -18.5q63 0 95.5 18.5zM193 802.5q-6 5.5 -6 15.5v97q0 10 5.5 16t15.5 6h69q9 0 14.5 -6.5t5.5 -15.5v-97q0 -21 -20 -21h-69q-9 0 -15 5.5zM405.5 802.5q-5.5 5.5 -5.5 15.5v97q0 10 5 16t15 6h69q9 0 14.5 -6.5t5.5 -15.5v-97
q0 -21 -20 -21h-69q-9 0 -14.5 5.5zM209 1082h281v-88h-281v88z" />
    <glyph glyph-name="uni022B" unicode="&#x22b;" horiz-adv-x="575" 
d="M143 20.5q-53 25.5 -77.5 85t-24.5 164.5q0 109 24.5 168.5t77.5 83t144 23.5q92 0 145 -24.5t77.5 -84t24.5 -166.5t-24 -166.5t-77 -84t-146 -24.5q-91 0 -144 25.5zM346 123.5q20 10.5 30 44t10 102.5t-10 102.5t-30 44t-59 10.5q-38 0 -58 -10.5t-30 -44t-10 -102.5
t10 -102.5t30 -44t58 -10.5q39 0 59 10.5zM136 642.5q-6 5.5 -6 15.5v97q0 10 5.5 16t15.5 6h68q10 0 15 -6t5 -16v-97q0 -21 -20 -21h-68q-9 0 -15 5.5zM332 642.5q-6 5.5 -6 15.5v97q0 10 5.5 16t15.5 6h69q9 0 14.5 -6.5t5.5 -15.5v-97q0 -21 -20 -21h-69q-9 0 -15 5.5z
M143 922h281v-88h-281v88z" />
    <glyph glyph-name="uni022C" unicode="&#x22c;" horiz-adv-x="699" 
d="M176 23q-65 29 -98 110t-33 236t33.5 236.5t98.5 111.5t173 30q109 0 173.5 -30t97.5 -111.5t33 -236.5t-33 -236t-97.5 -110t-173.5 -29t-174 29zM445.5 145.5q32.5 18.5 46.5 70t14 153.5q0 106 -14 157.5t-46.5 69.5t-95.5 18q-62 0 -94.5 -18t-47.5 -70t-15 -157
q0 -103 14 -154t46.5 -69.5t96.5 -18.5q63 0 95.5 18.5zM216 1060h281v-88h-281v88zM194.5 888q28.5 31 72.5 31q25 0 44 -7t43 -20q22 -11 33.5 -15.5t25.5 -4.5q20 0 31 13.5t12 38.5h74q-3 -66 -29.5 -100t-73.5 -34q-24 0 -44 7t-46 20q-18 10 -31 15t-26 5
q-19 0 -30.5 -13t-13.5 -35h-74q4 68 32.5 99z" />
    <glyph glyph-name="uni022D" unicode="&#x22d;" horiz-adv-x="575" 
d="M143 20.5q-53 25.5 -77.5 85t-24.5 164.5q0 109 24.5 168.5t77.5 83t144 23.5q92 0 145 -24.5t77.5 -84t24.5 -166.5t-24 -166.5t-77 -84t-146 -24.5q-91 0 -144 25.5zM346 123.5q20 10.5 30 44t10 102.5t-10 102.5t-30 44t-59 10.5q-38 0 -58 -10.5t-30 -44t-10 -102.5
t10 -102.5t30 -44t58 -10.5q39 0 59 10.5zM143 922h281v-88h-281v88zM124.5 728q28.5 31 72.5 31q25 0 44 -7t43 -20q22 -11 33.5 -15.5t25.5 -4.5q20 0 31 13.5t12 38.5h74q-3 -66 -29.5 -100t-73.5 -34q-24 0 -44 7t-46 20q-18 10 -31 15t-26 5q-19 0 -30.5 -13t-13.5 -35
h-74q4 68 32.5 99z" />
    <glyph glyph-name="uni0230" unicode="&#x230;" horiz-adv-x="699" 
d="M176 23q-65 29 -98 110t-33 236t33.5 236.5t98.5 111.5t173 30q109 0 173.5 -30t97.5 -111.5t33 -236.5t-33 -236t-97.5 -110t-173.5 -29t-174 29zM445.5 145.5q32.5 18.5 46.5 70t14 153.5q0 106 -14 157.5t-46.5 69.5t-95.5 18q-62 0 -94.5 -18t-47.5 -70t-15 -157
q0 -103 14 -154t46.5 -69.5t96.5 -18.5q63 0 95.5 18.5zM298 809.5q-6 5.5 -6 15.5v97q0 10 5.5 16t15.5 6h69q9 0 14.5 -6.5t5.5 -15.5v-97q0 -21 -20 -21h-69q-9 0 -15 5.5zM204 1079h281v-88h-281v88z" />
    <glyph glyph-name="uni0231" unicode="&#x231;" horiz-adv-x="575" 
d="M143 20.5q-53 25.5 -77.5 85t-24.5 164.5q0 109 24.5 168.5t77.5 83t144 23.5q92 0 145 -24.5t77.5 -84t24.5 -166.5t-24 -166.5t-77 -84t-146 -24.5q-91 0 -144 25.5zM346 123.5q20 10.5 30 44t10 102.5t-10 102.5t-30 44t-59 10.5q-38 0 -58 -10.5t-30 -44t-10 -102.5
t10 -102.5t30 -44t58 -10.5q39 0 59 10.5zM236 649.5q-6 5.5 -6 15.5v97q0 10 5.5 16t15.5 6h69q9 0 14.5 -6.5t5.5 -15.5v-97q0 -21 -20 -21h-69q-9 0 -15 5.5zM143 919h281v-88h-281v88z" />
    <glyph glyph-name="uni0232" unicode="&#x232;" horiz-adv-x="628" 
d="M240 224l-223 516h154l146 -365l145 365h148l-222 -516v-224h-148v224zM171 895h281v-88h-281v88z" />
    <glyph glyph-name="uni0233" unicode="&#x233;" horiz-adv-x="569" 
d="M283 0q-133 0 -170 144l-101 393h154l85 -363q8 -33 24 -42t34 -11l97 416h150l-160 -675l-48 -99h-123zM131 735h281v-88h-281v88z" />
    <glyph glyph-name="uni0237" unicode="&#x237;" horiz-adv-x="262" 
d="M57 537h148v-533q0 -63 -10 -129t-26 -112h-112v774z" />
    <glyph glyph-name="uni0259" unicode="&#x259;" horiz-adv-x="537" 
d="M397 520q52 -24 75.5 -83t23.5 -166q0 -110 -22 -169.5t-72.5 -83.5t-142.5 -24q-82 0 -129 16t-68.5 56t-21.5 113q0 78 44.5 111t129.5 33h135q-2 43 -13 66.5t-39 34t-82 10.5h-157v87q53 11 96 17t100 6q91 0 143 -24zM229 235q-31 0 -44.5 -12.5t-13.5 -42.5
q0 -44 20 -61.5t68 -17.5q35 0 54.5 11.5t28.5 40.5t9 82h-122z" />
    <glyph glyph-name="uni02B9" unicode="&#x2b9;" horiz-adv-x="174" 
d="M159 763l-37 -317h-103l5 317h135z" />
    <glyph glyph-name="uni02BA" unicode="&#x2ba;" horiz-adv-x="357" 
d="M159 763l-37 -317h-103l5 317h135zM341 763l-37 -317h-103l5 317h135z" />
    <glyph glyph-name="uni02BB" unicode="&#x2bb;" horiz-adv-x="219" 
d="M150.5 752.5q13.5 -2.5 17.5 -3.5v-47q-14 0 -20.5 -4t-6.5 -16v-26h10q9 0 15 -5.5t6 -16.5v-87q0 -23 -21 -23h-84q-21 0 -21 23v137q0 40 21.5 55.5t53.5 15.5q16 0 29.5 -2.5z" />
    <glyph glyph-name="uni02BC" unicode="&#x2bc;" horiz-adv-x="228" 
d="M46 496v55q28 0 28 28v29h-10q-22 0 -22 22v101q0 24 22 24h91q20 0 20 -24v-153q0 -48 -28.5 -66.5t-66.5 -18.5q-22 0 -34 3z" />
    <glyph glyph-name="uni02BE" unicode="&#x2be;" horiz-adv-x="207" 
d="M25 645q37 0 54 12t17 40q0 29 -17 41t-54 12v62q76 0 112.5 -26.5t36.5 -88.5t-36.5 -88t-112.5 -26v62z" />
    <glyph glyph-name="uni02BF" unicode="&#x2bf;" horiz-adv-x="207" 
d="M69 609q-37 26 -37 88t37 88.5t113 26.5v-62q-38 0 -55 -12t-17 -41q0 -28 17.5 -40t54.5 -12v-62q-76 0 -113 26z" />
    <glyph glyph-name="circumflex" unicode="&#x2c6;" horiz-adv-x="386" 
d="M147 773h102l98 -142h-86l-66 76l-70 -76h-86z" />
    <glyph glyph-name="caron" unicode="&#x2c7;" horiz-adv-x="386" 
d="M39 773h86l66 -76l70 76h86l-108 -142h-101z" />
    <glyph glyph-name="uni02C8" unicode="&#x2c8;" horiz-adv-x="176" 
d="M146 763v-260h-116v260h116z" />
    <glyph glyph-name="uni02C9" unicode="&#x2c9;" horiz-adv-x="338" 
d="M29 735h281v-88h-281v88z" />
    <glyph glyph-name="uni02CA" unicode="&#x2ca;" horiz-adv-x="233" 
d="M98 771h119l-115 -140h-87z" />
    <glyph glyph-name="uni02CB" unicode="&#x2cb;" horiz-adv-x="233" 
d="M15 771h120l82 -140h-87z" />
    <glyph glyph-name="uni02CC" unicode="&#x2cc;" horiz-adv-x="176" 
d="M146 23v-260h-116v260h116z" />
    <glyph glyph-name="breve" unicode="&#x2d8;" horiz-adv-x="351" 
d="M72.5 660.5q-36.5 37.5 -36.5 113.5h69q0 -44 20 -63.5t50 -19.5q70 0 70 83h70q0 -77 -36.5 -114t-103.5 -37q-66 0 -102.5 37.5z" />
    <glyph glyph-name="dotaccent" unicode="&#x2d9;" horiz-adv-x="187" 
d="M43 642.5q-6 5.5 -6 15.5v97q0 10 5.5 16t15.5 6h69q9 0 14.5 -6.5t5.5 -15.5v-97q0 -21 -20 -21h-69q-9 0 -15 5.5z" />
    <glyph glyph-name="ring" unicode="&#x2da;" horiz-adv-x="324" 
d="M69.5 610.5q-30.5 25.5 -30.5 87.5t31 88t93 26t92 -26t30 -88t-30 -87.5t-92 -25.5q-63 0 -93.5 25.5zM204.5 653q12.5 13 12.5 45q0 33 -13 46.5t-41 13.5q-29 0 -42.5 -13.5t-13.5 -46.5q0 -32 13.5 -45t42.5 -13t41.5 13z" />
    <glyph glyph-name="ogonek" unicode="&#x2db;" horiz-adv-x="213" 
d="M63.5 -165.5q-26.5 26.5 -26.5 63.5q0 67 67 102h54q-26 -16 -37.5 -32t-11.5 -36q0 -24 16 -37.5t42 -13.5h9v-69q-9 -4 -32 -4q-54 0 -80.5 26.5z" />
    <glyph glyph-name="tilde" unicode="&#x2dc;" horiz-adv-x="423" 
d="M63.5 728q28.5 31 72.5 31q25 0 44 -7t43 -20q22 -11 33.5 -15.5t25.5 -4.5q20 0 31 13.5t12 38.5h74q-3 -66 -29.5 -100t-73.5 -34q-24 0 -44 7t-46 20q-18 10 -31 15t-26 5q-19 0 -30.5 -13t-13.5 -35h-74q4 68 32.5 99z" />
    <glyph glyph-name="hungarumlaut" unicode="&#x2dd;" horiz-adv-x="399" 
d="M90 771h113l-101 -140h-87zM254 771h112l-100 -140h-87z" />
    <glyph glyph-name="gravecomb" unicode="&#x300;" horiz-adv-x="0" 
d="M-405 771h120l82 -140h-87z" />
    <glyph glyph-name="acutecomb" unicode="&#x301;" horiz-adv-x="0" 
d="M-229 771h119l-115 -140h-87z" />
    <glyph glyph-name="uni0302" unicode="&#x302;" horiz-adv-x="0" 
d="M-317 773h102l98 -142h-86l-66 76l-70 -76h-86z" />
    <glyph glyph-name="tildecomb" unicode="&#x303;" horiz-adv-x="0" 
d="M-431.5 728q28.5 31 72.5 31q25 0 44 -7t43 -20q22 -11 33.5 -15.5t25.5 -4.5q20 0 31 13.5t12 38.5h74q-3 -66 -29.5 -100t-73.5 -34q-24 0 -44 7t-46 20q-18 10 -31 15t-26 5q-19 0 -30.5 -13t-13.5 -35h-74q4 68 32.5 99z" />
    <glyph glyph-name="uni0304" unicode="&#x304;" horiz-adv-x="0" 
d="M-413 735h281v-88h-281v88z" />
    <glyph glyph-name="uni0306" unicode="&#x306;" horiz-adv-x="0" 
d="M-378.5 660.5q-36.5 37.5 -36.5 113.5h69q0 -44 20 -63.5t50 -19.5q70 0 70 83h70q0 -77 -36.5 -114t-103.5 -37q-66 0 -102.5 37.5z" />
    <glyph glyph-name="uni0307" unicode="&#x307;" horiz-adv-x="0" 
d="M-320 649.5q-6 5.5 -6 15.5v97q0 10 5.5 16t15.5 6h69q9 0 14.5 -6.5t5.5 -15.5v-97q0 -21 -20 -21h-69q-9 0 -15 5.5z" />
    <glyph glyph-name="uni0308" unicode="&#x308;" horiz-adv-x="0" 
d="M-420 642.5q-6 5.5 -6 15.5v97q0 10 5.5 16t15.5 6h68q10 0 15 -6t5 -16v-97q0 -21 -20 -21h-68q-9 0 -15 5.5zM-224 642.5q-6 5.5 -6 15.5v97q0 10 5.5 16t15.5 6h69q9 0 14.5 -6.5t5.5 -15.5v-97q0 -21 -20 -21h-69q-9 0 -15 5.5z" />
    <glyph glyph-name="hookabovecomb" unicode="&#x309;" horiz-adv-x="0" 
d="M-338 659q40 11 40 40q0 28 -33 28q-11 0 -33 -6v58q24 8 52 8q46 0 69 -21.5t23 -61.5t-28.5 -66.5t-89.5 -43.5v65z" />
    <glyph glyph-name="uni030A" unicode="&#x30a;" horiz-adv-x="0" 
d="M-361.5 610.5q-30.5 25.5 -30.5 87.5t31 88t93 26t92 -26t30 -88t-30 -87.5t-92 -25.5q-63 0 -93.5 25.5zM-226.5 653q12.5 13 12.5 45q0 33 -13 46.5t-41 13.5q-29 0 -42.5 -13.5t-13.5 -46.5q0 -32 13.5 -45t42.5 -13t41.5 13z" />
    <glyph glyph-name="uni030B" unicode="&#x30b;" horiz-adv-x="0" 
d="M-332 771h113l-101 -140h-87zM-168 771h112l-100 -140h-87z" />
    <glyph glyph-name="uni030C" unicode="&#x30c;" horiz-adv-x="0" 
d="M-421 773h86l66 -76l70 76h86l-108 -142h-101z" />
    <glyph glyph-name="uni030F" unicode="&#x30f;" horiz-adv-x="0" 
d="M-536 771h119l83 -140h-87zM-358 771h120l82 -140h-87z" />
    <glyph glyph-name="uni0311" unicode="&#x311;" horiz-adv-x="0" 
d="M-164.5 739.5q36.5 -37.5 36.5 -113.5h-69q0 44 -20 63.5t-50 19.5q-70 0 -70 -83h-70q0 77 36.5 114t103.5 37q66 0 102.5 -37.5z" />
    <glyph glyph-name="uni0312" unicode="&#x312;" horiz-adv-x="0" 
d="M-366 731.5q25 32.5 91 32.5h52v-60l-28 -8q-21 -5 -31 -11.5t-14.5 -21t-4.5 -42.5h-90q0 78 25 110.5z" />
    <glyph glyph-name="uni031B" unicode="&#x31b;" horiz-adv-x="0" 
d="M-260 537h80q35 0 53 25t18 85h103q0 -93 -40 -141.5t-107 -48.5h-107v80z" />
    <glyph glyph-name="dotbelowcomb" unicode="&#x323;" horiz-adv-x="0" 
d="M-320.5 -220.5q-5.5 5.5 -5.5 15.5v97q0 22 20 22h69q9 0 14.5 -6.5t5.5 -15.5v-97q0 -21 -20 -21h-69q-9 0 -14.5 5.5z" />
    <glyph glyph-name="uni0324" unicode="&#x324;" horiz-adv-x="0" 
d="M-428.5 -207.5q-5.5 5.5 -5.5 15.5v97q0 22 20 22h69q9 0 14.5 -6.5t5.5 -15.5v-97q0 -21 -20 -21h-69q-9 0 -14.5 5.5zM-216 -207.5q-6 5.5 -6 15.5v97q0 10 5.5 16t15.5 6h68q10 0 15 -6t5 -16v-97q0 -21 -20 -21h-68q-9 0 -15 5.5z" />
    <glyph glyph-name="uni0326" unicode="&#x326;" horiz-adv-x="0" 
d="M-401 -155l27 7q21 5 31.5 11.5t15 21t4.5 42.5h90q0 -78 -25 -110.5t-91 -32.5h-52v61z" />
    <glyph glyph-name="uni0327" unicode="&#x327;" horiz-adv-x="0" 
d="M-207 -71q18 -17 18 -47q0 -38 -27 -59t-80 -21h-48v61l18 3q41 4 41 34t-46 36l51 81h67l-43 -68q31 -3 49 -20z" />
    <glyph glyph-name="uni0328" unicode="&#x328;" horiz-adv-x="0" 
d="M-336.5 -165.5q-26.5 26.5 -26.5 63.5q0 67 67 102h54q-26 -16 -37.5 -32t-11.5 -36q0 -24 16 -37.5t42 -13.5h9v-69q-9 -4 -32 -4q-54 0 -80.5 26.5z" />
    <glyph glyph-name="uni032E" unicode="&#x32e;" horiz-adv-x="0" 
d="M-370.5 -189.5q-36.5 37.5 -36.5 113.5h69q0 -44 20 -63.5t50 -19.5q70 0 70 83h70q0 -77 -36.5 -114t-103.5 -37q-66 0 -102.5 37.5z" />
    <glyph glyph-name="uni0331" unicode="&#x331;" horiz-adv-x="0" 
d="M-408 -125h281v-88h-281v88z" />
    <glyph glyph-name="uni0335" unicode="&#x335;" horiz-adv-x="0" 
d="M-320 342h302v-68h-302v68z" />
    <glyph glyph-name="uni03A9" unicode="&#x3a9;" horiz-adv-x="762" 
d="M630.5 646q78.5 -93 78.5 -248q0 -83 -32 -148.5t-90 -121.5l137 -9v-119h-276v129q57 52 85 118.5t28 142.5q0 92 -41 154t-139 62q-101 0 -142.5 -61.5t-41.5 -155.5q0 -79 28.5 -140t93.5 -120v-129h-277v120l138 9q-65 47 -98 117.5t-33 156.5q0 89 32 164.5
t106 123.5t194 48q171 0 249.5 -93z" />
    <glyph glyph-name="uni03BC" unicode="&#x3bc;" horiz-adv-x="595" 
d="M540 537v-537h-123l-18 55q-55 -61 -136 -61q-28 0 -60 8v-271h-148v806h148v-336q0 -42 20.5 -59t57.5 -17q60 0 110 39v373h149z" />
    <glyph glyph-name="pi" unicode="&#x3c0;" horiz-adv-x="637" 
d="M581 537v-134h-85v-243q0 -30 11 -41t37 -11h45v-87q-39 -27 -103 -27q-138 0 -138 159v250h-105v-403h-148v403h-80v134h566z" />
    <glyph glyph-name="uni1E02" unicode="&#x1e02;" horiz-adv-x="627" 
d="M64 740h291q211 0 211 -194q0 -66 -27 -107.5t-76 -54.5q54 -13 90.5 -58t36.5 -122q0 -110 -55.5 -157t-166.5 -47h-304v740zM356 435q32 0 50.5 24t18.5 64q0 44 -19.5 64t-51.5 20h-142v-172h144zM364 133q85 0 85 97q0 42 -23.5 66.5t-61.5 24.5h-152v-188h152z
M242 809.5q-6 5.5 -6 15.5v97q0 10 5.5 16t15.5 6h69q9 0 14.5 -6.5t5.5 -15.5v-97q0 -21 -20 -21h-69q-9 0 -15 5.5z" />
    <glyph glyph-name="uni1E03" unicode="&#x1e03;" horiz-adv-x="585" 
d="M275.5 9q-36.5 15 -70.5 42l-24 -51h-124v763h148v-263q35 19 75 32t74 13q69 0 110.5 -28.5t60.5 -90t19 -163.5q0 -136 -45 -202.5t-138 -66.5q-49 0 -85.5 15zM372.5 150q23.5 35 23.5 120q0 65 -12 99.5t-31.5 45.5t-46.5 11q-49 0 -101 -30v-255q48 -26 101 -26
q43 0 66.5 35zM80 849.5q-6 5.5 -6 15.5v97q0 10 5.5 16t15.5 6h69q9 0 14.5 -6.5t5.5 -15.5v-97q0 -21 -20 -21h-69q-9 0 -15 5.5z" />
    <glyph glyph-name="uni1E08" unicode="&#x1e08;" horiz-adv-x="586" 
d="M364 791h-87l83 140h119zM254 595.5q-32 -18.5 -46.5 -70t-14.5 -154.5q0 -102 13 -153t45 -71t95 -20q122 0 200 10v-114q-68 -23 -166 -27l-30 -47q31 -3 49 -20t18 -47q0 -38 -27 -59t-80 -21h-48v61l18 3q41 4 41 34t-46 36l37 58q-93 0 -150 30t-87 112t-30 236
q0 148 31.5 230t89.5 113.5t149 31.5q68 0 128 -10.5t103 -24.5v-115q-30 7 -85 12t-115 5t-92 -18.5z" />
    <glyph glyph-name="uni1E09" unicode="&#x1e09;" horiz-adv-x="490" 
d="M314 631h-87l83 140h119zM313 -4l-30 -47q31 -3 49 -20t18 -47q0 -38 -27 -59t-80 -21h-48v61l18 3q41 4 41 34t-46 36l37 59q-97 5 -150.5 67t-53.5 204q0 107 26 168t76 86t127 25q97 0 187 -25v-85h-141q-48 0 -75 -14t-39.5 -50t-12.5 -104q0 -67 12.5 -101.5
t39.5 -47t77 -12.5h147v-84q-70 -22 -152 -26z" />
    <glyph glyph-name="uni1E0A" unicode="&#x1e0a;" horiz-adv-x="680" 
d="M64 740h313q142 0 200 -96t58 -274q0 -187 -64 -278.5t-194 -91.5h-313v740zM362 133q67 0 96 58.5t29 178.5q0 94 -13.5 145.5t-40.5 71.5t-71 20h-150v-474h150zM276 809.5q-6 5.5 -6 15.5v97q0 10 5.5 16t15.5 6h69q9 0 14.5 -6.5t5.5 -15.5v-97q0 -21 -20 -21h-69
q-9 0 -15 5.5z" />
    <glyph glyph-name="uni1E0B" unicode="&#x1e0b;" horiz-adv-x="583" 
d="M88.5 57q-47.5 63 -47.5 206q0 102 18.5 163t62.5 90t121 29q66 0 137 -25v243h149v-763h-125l-24 51q-28 -24 -68 -40.5t-79 -16.5q-97 0 -144.5 63zM380 143v270q-26 10 -46.5 15.5t-42.5 5.5q-39 0 -60.5 -13.5t-31.5 -49t-10 -101.5q0 -63 9.5 -96.5t30 -47
t56.5 -13.5q48 0 95 30zM403 849.5q-6 5.5 -6 15.5v97q0 10 5.5 16t15.5 6h69q9 0 14.5 -6.5t5.5 -15.5v-97q0 -21 -20 -21h-69q-9 0 -15 5.5z" />
    <glyph glyph-name="uni1E0C" unicode="&#x1e0c;" horiz-adv-x="680" 
d="M64 740h313q142 0 200 -96t58 -274q0 -187 -64 -278.5t-194 -91.5h-313v740zM362 133q67 0 96 58.5t29 178.5q0 94 -13.5 145.5t-40.5 71.5t-71 20h-150v-474h150zM246 -220.5q-6 5.5 -6 15.5v97q0 10 5.5 16t15.5 6h69q9 0 14.5 -6.5t5.5 -15.5v-97q0 -21 -20 -21h-69
q-9 0 -15 5.5z" />
    <glyph glyph-name="uni1E0D" unicode="&#x1e0d;" horiz-adv-x="583" 
d="M88.5 57q-47.5 63 -47.5 206q0 102 18.5 163t62.5 90t121 29q66 0 137 -25v243h149v-763h-125l-24 51q-28 -24 -68 -40.5t-79 -16.5q-97 0 -144.5 63zM380 143v270q-26 10 -46.5 15.5t-42.5 5.5q-39 0 -60.5 -13.5t-31.5 -49t-10 -101.5q0 -63 9.5 -96.5t30 -47
t56.5 -13.5q48 0 95 30zM229.5 -220.5q-5.5 5.5 -5.5 15.5v97q0 22 20 22h69q9 0 14.5 -6.5t5.5 -15.5v-97q0 -21 -20 -21h-69q-9 0 -14.5 5.5z" />
    <glyph glyph-name="uni1E0E" unicode="&#x1e0e;" horiz-adv-x="680" 
d="M64 740h313q142 0 200 -96t58 -274q0 -187 -64 -278.5t-194 -91.5h-313v740zM362 133q67 0 96 58.5t29 178.5q0 94 -13.5 145.5t-40.5 71.5t-71 20h-150v-474h150zM156 -125h281v-88h-281v88z" />
    <glyph glyph-name="uni1E0F" unicode="&#x1e0f;" horiz-adv-x="583" 
d="M88.5 57q-47.5 63 -47.5 206q0 102 18.5 163t62.5 90t121 29q66 0 137 -25v243h149v-763h-125l-24 51q-28 -24 -68 -40.5t-79 -16.5q-97 0 -144.5 63zM380 143v270q-26 10 -46.5 15.5t-42.5 5.5q-39 0 -60.5 -13.5t-31.5 -49t-10 -101.5q0 -63 9.5 -96.5t30 -47
t56.5 -13.5q48 0 95 30zM144 -125h281v-88h-281v88z" />
    <glyph glyph-name="uni1E14" unicode="&#x1e14;" horiz-adv-x="597" 
d="M118 27q-54 32 -54 131v413q0 90 49.5 129.5t119.5 39.5q153 0 320 -13v-124h-276q-65 0 -65 -61v-107l293 -8v-117l-293 -8v-102q0 -66 62 -66h279v-124q-133 -15 -309 -15q-72 0 -126 32zM167 895h281v-88h-281v88zM150 1073h120l82 -140h-87z" />
    <glyph glyph-name="uni1E15" unicode="&#x1e15;" horiz-adv-x="537" 
d="M140 19q-52 24 -75.5 83t-23.5 166q0 110 22 169.5t72.5 83.5t142.5 24q82 0 129 -16t68.5 -56t21.5 -113q0 -78 -44.5 -111t-129.5 -33h-135q2 -43 13 -66.5t39 -34t82 -10.5h157v-87q-53 -11 -96 -17t-100 -6q-91 0 -143 24zM308 304q31 0 44.5 12.5t13.5 42.5
q0 44 -20 61.5t-68 17.5q-35 0 -54.5 -11.5t-28.5 -40.5t-9 -82h122zM126 735h281v-88h-281v88zM112 906h120l82 -140h-87z" />
    <glyph glyph-name="uni1E16" unicode="&#x1e16;" horiz-adv-x="597" 
d="M118 27q-54 32 -54 131v413q0 90 49.5 129.5t119.5 39.5q153 0 320 -13v-124h-276q-65 0 -65 -61v-107l293 -8v-117l-293 -8v-102q0 -66 62 -66h279v-124q-133 -15 -309 -15q-72 0 -126 32zM167 895h281v-88h-281v88zM348 1073h119l-115 -140h-87z" />
    <glyph glyph-name="uni1E17" unicode="&#x1e17;" horiz-adv-x="537" 
d="M140 19q-52 24 -75.5 83t-23.5 166q0 110 22 169.5t72.5 83.5t142.5 24q82 0 129 -16t68.5 -56t21.5 -113q0 -78 -44.5 -111t-129.5 -33h-135q2 -43 13 -66.5t39 -34t82 -10.5h157v-87q-53 -11 -96 -17t-100 -6q-91 0 -143 24zM308 304q31 0 44.5 12.5t13.5 42.5
q0 44 -20 61.5t-68 17.5q-35 0 -54.5 -11.5t-28.5 -40.5t-9 -82h122zM126 735h281v-88h-281v88zM303 906h119l-115 -140h-87z" />
    <glyph glyph-name="uni1E1C" unicode="&#x1e1c;" horiz-adv-x="597" 
d="M203.5 820.5q-36.5 37.5 -36.5 113.5h69q0 -44 20 -63.5t50 -19.5q70 0 70 83h70q0 -77 -36.5 -114t-103.5 -37q-66 0 -102.5 37.5zM212 542v-107l293 -8v-117l-293 -8v-102q0 -66 62 -66h279v-124q-74 -9 -176 -12l-31 -49q31 -3 49 -20t18 -47q0 -38 -27 -59t-80 -21
h-48v61l18 3q41 4 41 34t-46 36l38 60q-23 -1 -65 -1q-72 0 -126 32t-54 131v413q0 90 49.5 129.5t119.5 39.5q153 0 320 -13v-124h-276q-65 0 -65 -61z" />
    <glyph glyph-name="uni1E1D" unicode="&#x1e1d;" horiz-adv-x="537" 
d="M160.5 660.5q-36.5 37.5 -36.5 113.5h69q0 -44 20 -63.5t50 -19.5q70 0 70 83h70q0 -77 -36.5 -114t-103.5 -37q-66 0 -102.5 37.5zM201 149.5q11 -23.5 39 -34t82 -10.5h157v-87q-44 -9 -81.5 -15t-85.5 -8l-29 -46q31 -3 49 -20t18 -47q0 -38 -27 -59t-80 -21h-48v61
l18 3q41 4 41 34t-46 36l38 60q-76 5 -120.5 31.5t-64.5 83.5t-20 157q0 110 22 169.5t72.5 83.5t142.5 24q82 0 129 -16t68.5 -56t21.5 -113q0 -78 -44.5 -111t-129.5 -33h-135q2 -43 13 -66.5zM223.5 426.5q-19.5 -11.5 -28.5 -40.5t-9 -82h122q31 0 44.5 12.5t13.5 42.5
q0 44 -20 61.5t-68 17.5q-35 0 -54.5 -11.5z" />
    <glyph glyph-name="uni1E1E" unicode="&#x1e1e;" horiz-adv-x="583" 
d="M64 571q0 90 49.5 129.5t119.5 39.5q199 0 320 -13v-124h-279q-30 0 -46 -16.5t-16 -42.5v-127l293 -8v-117l-293 -8v-284h-148v571zM261 809.5q-6 5.5 -6 15.5v97q0 10 5.5 16t15.5 6h69q9 0 14.5 -6.5t5.5 -15.5v-97q0 -21 -20 -21h-69q-9 0 -15 5.5z" />
    <glyph glyph-name="uni1E1F" unicode="&#x1e1f;" horiz-adv-x="393" 
d="M94 418h-76v95l76 24v36q0 103 42 149.5t137 46.5q57 0 111 -15v-106h-82q-34 0 -46.5 -15.5t-12.5 -51.5v-44h136v-119h-136v-418h-149v418zM221 871.5q-6 5.5 -6 15.5v97q0 10 5.5 16t15.5 6h69q9 0 14.5 -6.5t5.5 -15.5v-97q0 -21 -20 -21h-69q-9 0 -15 5.5z" />
    <glyph glyph-name="uni1E20" unicode="&#x1e20;" horiz-adv-x="666" 
d="M134 40q-50 45 -69.5 126.5t-19.5 203.5q0 128 22.5 209t82 124.5t168.5 43.5q71 0 128 -8.5t122 -24.5v-114q-39 5 -99.5 9.5t-123.5 4.5q-64 0 -96 -22.5t-44 -74t-12 -148.5t12 -147.5t39 -70.5t77 -20q38 0 75 6t64 15v144h-133v117q30 4 78.5 7t92.5 3q62 0 104 -3
v-420h-111l-20 50q-37 -22 -89.5 -38.5t-109.5 -16.5q-88 0 -138 45zM180 895h281v-88h-281v88z" />
    <glyph glyph-name="uni1E21" unicode="&#x1e21;" horiz-adv-x="582" 
d="M564 456l-82 -15q18 -19 29 -44t11 -68q0 -75 -47 -119.5t-147 -44.5h-95q-61 0 -61 -37q0 -16 13.5 -23t33.5 -7h148q96 0 145 -38.5t49 -122.5v-15q0 -81 -51 -125.5t-153 -44.5h-161q-78 0 -127 34t-49 95v16q0 40 22 70t59 47q-54 32 -54 89q0 40 23.5 67.5
t65.5 37.5q-45 24 -65.5 64t-20.5 90q0 89 55 132t168 43h291v-81zM371 295q17 19 17 55q0 41 -18 58.5t-55 17.5h-56q-39 0 -57.5 -17t-18.5 -57q0 -39 17.5 -57.5t53.5 -18.5h57q43 0 60 19zM235 -13q-34 0 -54.5 -16t-20.5 -45v-11q0 -29 19.5 -44t57.5 -15h102
q38 0 60 14.5t22 43.5v16q0 27 -19.5 42t-58.5 15h-108zM146 735h281v-88h-281v88z" />
    <glyph glyph-name="uni1E24" unicode="&#x1e24;" horiz-adv-x="703" 
d="M64 740h148v-308h279v308h149v-740h-149v299h-279v-299h-148v740zM303 -220.5q-6 5.5 -6 15.5v97q0 10 5.5 16t15.5 6h69q9 0 14.5 -6.5t5.5 -15.5v-97q0 -21 -20 -21h-69q-9 0 -15 5.5z" />
    <glyph glyph-name="uni1E25" unicode="&#x1e25;" horiz-adv-x="595" 
d="M57 762h148v-280q30 26 77.5 45t93.5 19q165 0 165 -191v-355h-148v336q0 37 -21 57t-56 20q-55 0 -111 -40v-373h-148v762zM243.5 -220.5q-5.5 5.5 -5.5 15.5v97q0 22 20 22h69q9 0 14.5 -6.5t5.5 -15.5v-97q0 -21 -20 -21h-69q-9 0 -14.5 5.5z" />
    <glyph glyph-name="uni1E2A" unicode="&#x1e2a;" horiz-adv-x="703" 
d="M64 740h148v-308h279v308h149v-740h-149v299h-279v-299h-148v740zM250.5 -189.5q-36.5 37.5 -36.5 113.5h69q0 -44 20 -63.5t50 -19.5q70 0 70 83h70q0 -77 -36.5 -114t-103.5 -37q-66 0 -102.5 37.5z" />
    <glyph glyph-name="uni1E2B" unicode="&#x1e2b;" horiz-adv-x="595" 
d="M57 762h148v-280q30 26 77.5 45t93.5 19q165 0 165 -191v-355h-148v336q0 37 -21 57t-56 20q-55 0 -111 -40v-373h-148v762zM195.5 -189.5q-36.5 37.5 -36.5 113.5h69q0 -44 20 -63.5t50 -19.5q70 0 70 83h70q0 -77 -36.5 -114t-103.5 -37q-66 0 -102.5 37.5z" />
    <glyph glyph-name="uni1E2E" unicode="&#x1e2e;" horiz-adv-x="276" 
d="M64 740h148v-740h-148v740zM-24 802.5q-6 5.5 -6 15.5v97q0 10 5.5 16t15.5 6h69q9 0 14.5 -6.5t5.5 -15.5v-97q0 -21 -20 -21h-69q-9 0 -15 5.5zM188.5 802.5q-5.5 5.5 -5.5 15.5v97q0 10 5 16t15 6h69q9 0 14.5 -6.5t5.5 -15.5v-97q0 -21 -20 -21h-69q-9 0 -14.5 5.5z
M176 1110h119l-115 -140h-87z" />
    <glyph glyph-name="uni1E2F" unicode="&#x1e2f;" horiz-adv-x="261" 
d="M57 537h148v-537h-148v537zM-20 642.5q-6 5.5 -6 15.5v97q0 10 5.5 16t15.5 6h68q10 0 15 -6t5 -16v-97q0 -21 -20 -21h-68q-9 0 -15 5.5zM176 642.5q-6 5.5 -6 15.5v97q0 10 5.5 16t15.5 6h69q9 0 14.5 -6.5t5.5 -15.5v-97q0 -21 -20 -21h-69q-9 0 -15 5.5zM163 958h119
l-115 -140h-87z" />
    <glyph glyph-name="uni1E36" unicode="&#x1e36;" horiz-adv-x="535" 
d="M107 41q-43 41 -43 134v565h148v-541q0 -65 66 -65h234v-134h-273q-89 0 -132 41zM240 -220.5q-6 5.5 -6 15.5v97q0 10 5.5 16t15.5 6h69q9 0 14.5 -6.5t5.5 -15.5v-97q0 -21 -20 -21h-69q-9 0 -15 5.5z" />
    <glyph glyph-name="uni1E37" unicode="&#x1e37;" horiz-adv-x="313" 
d="M98.5 40.5q-41.5 42.5 -41.5 132.5v590h148v-568q0 -43 13 -61.5t43 -22.5l41 -6v-107h-77q-85 0 -126.5 42.5zM131.5 -220.5q-5.5 5.5 -5.5 15.5v97q0 22 20 22h69q9 0 14.5 -6.5t5.5 -15.5v-97q0 -21 -20 -21h-69q-9 0 -14.5 5.5z" />
    <glyph glyph-name="uni1E3A" unicode="&#x1e3a;" horiz-adv-x="535" 
d="M107 41q-43 41 -43 134v565h148v-541q0 -65 66 -65h234v-134h-273q-89 0 -132 41zM150 -125h281v-88h-281v88z" />
    <glyph glyph-name="uni1E3B" unicode="&#x1e3b;" horiz-adv-x="313" 
d="M98.5 40.5q-41.5 42.5 -41.5 132.5v590h148v-568q0 -43 13 -61.5t43 -22.5l41 -6v-107h-77q-85 0 -126.5 42.5zM46 -125h281v-88h-281v88z" />
    <glyph glyph-name="uni1E40" unicode="&#x1e40;" horiz-adv-x="883" 
d="M696 0l-57 484l-129 -484h-139l-129 478l-55 -478h-143l86 740h142l170 -567l169 567h141l87 -740h-143zM382 809.5q-6 5.5 -6 15.5v97q0 10 5.5 16t15.5 6h69q9 0 14.5 -6.5t5.5 -15.5v-97q0 -21 -20 -21h-69q-9 0 -15 5.5z" />
    <glyph glyph-name="uni1E41" unicode="&#x1e41;" horiz-adv-x="931" 
d="M57 537h122l26 -55q41 31 82 47.5t97 16.5q49 0 83 -20.5t52 -55.5q41 31 91 53.5t97 22.5q92 0 131 -51t39 -147v-348h-148v335q0 38 -20.5 58t-56.5 20q-29 0 -59.5 -12t-55.5 -30q4 -26 4 -39v-332h-148v335q0 38 -20.5 58t-56.5 20q-55 0 -111 -40v-373h-148v537z
M430 649.5q-6 5.5 -6 15.5v97q0 10 5.5 16t15.5 6h69q9 0 14.5 -6.5t5.5 -15.5v-97q0 -21 -20 -21h-69q-9 0 -15 5.5z" />
    <glyph glyph-name="uni1E42" unicode="&#x1e42;" horiz-adv-x="883" 
d="M696 0l-57 484l-129 -484h-139l-129 478l-55 -478h-143l86 740h142l170 -567l169 567h141l87 -740h-143zM385 -220.5q-6 5.5 -6 15.5v97q0 10 5.5 16t15.5 6h69q9 0 14.5 -6.5t5.5 -15.5v-97q0 -21 -20 -21h-69q-9 0 -15 5.5z" />
    <glyph glyph-name="uni1E43" unicode="&#x1e43;" horiz-adv-x="931" 
d="M57 537h122l26 -55q41 31 82 47.5t97 16.5q49 0 83 -20.5t52 -55.5q41 31 91 53.5t97 22.5q92 0 131 -51t39 -147v-348h-148v335q0 38 -20.5 58t-56.5 20q-29 0 -59.5 -12t-55.5 -30q4 -26 4 -39v-332h-148v335q0 38 -20.5 58t-56.5 20q-55 0 -111 -40v-373h-148v537z
M412.5 -220.5q-5.5 5.5 -5.5 15.5v97q0 22 20 22h69q9 0 14.5 -6.5t5.5 -15.5v-97q0 -21 -20 -21h-69q-9 0 -14.5 5.5z" />
    <glyph glyph-name="uni1E44" unicode="&#x1e44;" horiz-adv-x="704" 
d="M69 740h119l310 -488v488h148v-740h-119l-309 488v-488h-149v740zM293 -220.5q-6 5.5 -6 15.5v97q0 10 5.5 16t15.5 6h69q9 0 14.5 -6.5t5.5 -15.5v-97q0 -21 -20 -21h-69q-9 0 -15 5.5z" />
    <glyph glyph-name="uni1E45" unicode="&#x1e45;" horiz-adv-x="595" 
d="M57 537h122l26 -55q33 27 79 45.5t90 18.5q91 0 129 -52t38 -140v-354h-148v335q0 38 -20.5 58t-56.5 20q-55 0 -111 -40v-373h-148v537zM243.5 -220.5q-5.5 5.5 -5.5 15.5v97q0 22 20 22h69q9 0 14.5 -6.5t5.5 -15.5v-97q0 -21 -20 -21h-69q-9 0 -14.5 5.5z" />
    <glyph glyph-name="uni1E46" unicode="&#x1e46;" horiz-adv-x="704" 
d="M69 740h119l310 -488v488h148v-740h-119l-309 488v-488h-149v740zM293 -220.5q-6 5.5 -6 15.5v97q0 10 5.5 16t15.5 6h69q9 0 14.5 -6.5t5.5 -15.5v-97q0 -21 -20 -21h-69q-9 0 -15 5.5z" />
    <glyph glyph-name="uni1E47" unicode="&#x1e47;" horiz-adv-x="595" 
d="M57 537h122l26 -55q33 27 79 45.5t90 18.5q91 0 129 -52t38 -140v-354h-148v335q0 38 -20.5 58t-56.5 20q-55 0 -111 -40v-373h-148v537zM243.5 -220.5q-5.5 5.5 -5.5 15.5v97q0 22 20 22h69q9 0 14.5 -6.5t5.5 -15.5v-97q0 -21 -20 -21h-69q-9 0 -14.5 5.5z" />
    <glyph glyph-name="uni1E48" unicode="&#x1e48;" horiz-adv-x="704" 
d="M69 740h119l310 -488v488h148v-740h-119l-309 488v-488h-149v740zM203 -125h281v-88h-281v88z" />
    <glyph glyph-name="uni1E49" unicode="&#x1e49;" horiz-adv-x="595" 
d="M57 537h122l26 -55q33 27 79 45.5t90 18.5q91 0 129 -52t38 -140v-354h-148v335q0 38 -20.5 58t-56.5 20q-55 0 -111 -40v-373h-148v537zM158 -125h281v-88h-281v88z" />
    <glyph glyph-name="uni1E4C" unicode="&#x1e4c;" horiz-adv-x="699" 
d="M176 23q-65 29 -98 110t-33 236t33.5 236.5t98.5 111.5t173 30q109 0 173.5 -30t97.5 -111.5t33 -236.5t-33 -236t-97.5 -110t-173.5 -29t-174 29zM445.5 145.5q32.5 18.5 46.5 70t14 153.5q0 106 -14 157.5t-46.5 69.5t-95.5 18q-62 0 -94.5 -18t-47.5 -70t-15 -157
q0 -103 14 -154t46.5 -69.5t96.5 -18.5q63 0 95.5 18.5zM194.5 888q28.5 31 72.5 31q25 0 44 -7t43 -20q22 -11 33.5 -15.5t25.5 -4.5q20 0 31 13.5t12 38.5h74q-3 -66 -29.5 -100t-73.5 -34q-24 0 -44 7t-46 20q-18 10 -31 15t-26 5q-19 0 -30.5 -13t-13.5 -35h-74
q4 68 32.5 99zM373 1096h119l-115 -140h-87z" />
    <glyph glyph-name="uni1E4D" unicode="&#x1e4d;" horiz-adv-x="575" 
d="M143 20.5q-53 25.5 -77.5 85t-24.5 164.5q0 109 24.5 168.5t77.5 83t144 23.5q92 0 145 -24.5t77.5 -84t24.5 -166.5t-24 -166.5t-77 -84t-146 -24.5q-91 0 -144 25.5zM346 123.5q20 10.5 30 44t10 102.5t-10 102.5t-30 44t-59 10.5q-38 0 -58 -10.5t-30 -44t-10 -102.5
t10 -102.5t30 -44t58 -10.5q39 0 59 10.5zM141.5 728q28.5 31 72.5 31q25 0 44 -7t43 -20q22 -11 33.5 -15.5t25.5 -4.5q20 0 31 13.5t12 38.5h74q-3 -66 -29.5 -100t-73.5 -34q-24 0 -44 7t-46 20q-18 10 -31 15t-26 5q-19 0 -30.5 -13t-13.5 -35h-74q4 68 32.5 99z
M320 928h119l-115 -140h-87z" />
    <glyph glyph-name="uni1E4E" unicode="&#x1e4e;" horiz-adv-x="699" 
d="M176 23q-65 29 -98 110t-33 236t33.5 236.5t98.5 111.5t173 30q109 0 173.5 -30t97.5 -111.5t33 -236.5t-33 -236t-97.5 -110t-173.5 -29t-174 29zM445.5 145.5q32.5 18.5 46.5 70t14 153.5q0 106 -14 157.5t-46.5 69.5t-95.5 18q-62 0 -94.5 -18t-47.5 -70t-15 -157
q0 -103 14 -154t46.5 -69.5t96.5 -18.5q63 0 95.5 18.5zM194.5 888q28.5 31 72.5 31q25 0 44 -7t43 -20q22 -11 33.5 -15.5t25.5 -4.5q20 0 31 13.5t12 38.5h74q-3 -66 -29.5 -100t-73.5 -34q-24 0 -44 7t-46 20q-18 10 -31 15t-26 5q-19 0 -30.5 -13t-13.5 -35h-74
q4 68 32.5 99zM190 967.5q-6 5.5 -6 15.5v97q0 10 5.5 16t15.5 6h69q9 0 14.5 -6.5t5.5 -15.5v-97q0 -21 -20 -21h-69q-9 0 -15 5.5zM402.5 967.5q-5.5 5.5 -5.5 15.5v97q0 10 5 16t15 6h69q9 0 14.5 -6.5t5.5 -15.5v-97q0 -21 -20 -21h-69q-9 0 -14.5 5.5z" />
    <glyph glyph-name="uni1E4F" unicode="&#x1e4f;" horiz-adv-x="575" 
d="M143 20.5q-53 25.5 -77.5 85t-24.5 164.5q0 109 24.5 168.5t77.5 83t144 23.5q92 0 145 -24.5t77.5 -84t24.5 -166.5t-24 -166.5t-77 -84t-146 -24.5q-91 0 -144 25.5zM346 123.5q20 10.5 30 44t10 102.5t-10 102.5t-30 44t-59 10.5q-38 0 -58 -10.5t-30 -44t-10 -102.5
t10 -102.5t30 -44t58 -10.5q39 0 59 10.5zM141.5 728q28.5 31 72.5 31q25 0 44 -7t43 -20q22 -11 33.5 -15.5t25.5 -4.5q20 0 31 13.5t12 38.5h74q-3 -66 -29.5 -100t-73.5 -34q-24 0 -44 7t-46 20q-18 10 -31 15t-26 5q-19 0 -30.5 -13t-13.5 -35h-74q4 68 32.5 99z
M146 807.5q-6 5.5 -6 15.5v97q0 10 5.5 16t15.5 6h68q10 0 15 -6t5 -16v-97q0 -21 -20 -21h-68q-9 0 -15 5.5zM342 807.5q-6 5.5 -6 15.5v97q0 10 5.5 16t15.5 6h69q9 0 14.5 -6.5t5.5 -15.5v-97q0 -21 -20 -21h-69q-9 0 -15 5.5z" />
    <glyph glyph-name="uni1E50" unicode="&#x1e50;" horiz-adv-x="699" 
d="M176 23q-65 29 -98 110t-33 236t33.5 236.5t98.5 111.5t173 30q109 0 173.5 -30t97.5 -111.5t33 -236.5t-33 -236t-97.5 -110t-173.5 -29t-174 29zM445.5 145.5q32.5 18.5 46.5 70t14 153.5q0 106 -14 157.5t-46.5 69.5t-95.5 18q-62 0 -94.5 -18t-47.5 -70t-15 -157
q0 -103 14 -154t46.5 -69.5t96.5 -18.5q63 0 95.5 18.5zM204 895h281v-88h-281v88zM187 1080h120l82 -140h-87z" />
    <glyph glyph-name="uni1E51" unicode="&#x1e51;" horiz-adv-x="575" 
d="M143 20.5q-53 25.5 -77.5 85t-24.5 164.5q0 109 24.5 168.5t77.5 83t144 23.5q92 0 145 -24.5t77.5 -84t24.5 -166.5t-24 -166.5t-77 -84t-146 -24.5q-91 0 -144 25.5zM346 123.5q20 10.5 30 44t10 102.5t-10 102.5t-30 44t-59 10.5q-38 0 -58 -10.5t-30 -44t-10 -102.5
t10 -102.5t30 -44t58 -10.5q39 0 59 10.5zM143 735h281v-88h-281v88zM137 906h120l82 -140h-87z" />
    <glyph glyph-name="uni1E52" unicode="&#x1e52;" horiz-adv-x="699" 
d="M176 23q-65 29 -98 110t-33 236t33.5 236.5t98.5 111.5t173 30q109 0 173.5 -30t97.5 -111.5t33 -236.5t-33 -236t-97.5 -110t-173.5 -29t-174 29zM445.5 145.5q32.5 18.5 46.5 70t14 153.5q0 106 -14 157.5t-46.5 69.5t-95.5 18q-62 0 -94.5 -18t-47.5 -70t-15 -157
q0 -103 14 -154t46.5 -69.5t96.5 -18.5q63 0 95.5 18.5zM204 895h281v-88h-281v88zM387 1080h119l-115 -140h-87z" />
    <glyph glyph-name="uni1E53" unicode="&#x1e53;" horiz-adv-x="575" 
d="M143 20.5q-53 25.5 -77.5 85t-24.5 164.5q0 109 24.5 168.5t77.5 83t144 23.5q92 0 145 -24.5t77.5 -84t24.5 -166.5t-24 -166.5t-77 -84t-146 -24.5q-91 0 -144 25.5zM346 123.5q20 10.5 30 44t10 102.5t-10 102.5t-30 44t-59 10.5q-38 0 -58 -10.5t-30 -44t-10 -102.5
t10 -102.5t30 -44t58 -10.5q39 0 59 10.5zM143 735h281v-88h-281v88zM320 906h119l-115 -140h-87z" />
    <glyph glyph-name="uni1E56" unicode="&#x1e56;" horiz-adv-x="621" 
d="M64 740h312q93 0 153 -52t60 -202q0 -260 -207 -260q-32 0 -83 5.5t-87 10.5v-242h-148v740zM359 359q40 0 60.5 30t20.5 96q0 122 -78 122h-150v-248h147zM252 809.5q-6 5.5 -6 15.5v97q0 10 5.5 16t15.5 6h69q9 0 14.5 -6.5t5.5 -15.5v-97q0 -21 -20 -21h-69
q-9 0 -15 5.5z" />
    <glyph glyph-name="uni1E57" unicode="&#x1e57;" horiz-adv-x="585" 
d="M57 537h124l24 -51q75 59 149 59q97 0 143.5 -72t46.5 -205q0 -138 -42.5 -206.5t-147.5 -68.5q-38 0 -77.5 9t-71.5 26v-265h-148v774zM371.5 148.5q24.5 33.5 24.5 119.5t-24 122t-66 36q-50 0 -101 -30v-255q19 -12 46.5 -19t54.5 -7q41 0 65.5 33.5zM231 649.5
q-6 5.5 -6 15.5v97q0 10 5.5 16t15.5 6h69q9 0 14.5 -6.5t5.5 -15.5v-97q0 -21 -20 -21h-69q-9 0 -15 5.5z" />
    <glyph glyph-name="uni1E5A" unicode="&#x1e5a;" horiz-adv-x="627" 
d="M64 740h306q98 0 154.5 -52.5t56.5 -184.5q0 -93 -31.5 -138t-85.5 -68l138 -297h-151l-119 274q-48 0 -120 2v-276h-148v740zM344 393q43 0 66 24.5t23 85.5q0 59 -23 81.5t-66 22.5h-132v-214h132zM255 -220.5q-6 5.5 -6 15.5v97q0 10 5.5 16t15.5 6h69q9 0 14.5 -6.5
t5.5 -15.5v-97q0 -21 -20 -21h-69q-9 0 -15 5.5z" />
    <glyph glyph-name="uni1E5B" unicode="&#x1e5b;" horiz-adv-x="423" 
d="M57 537h114l34 -82q32 42 68.5 65.5t83.5 23.5q26 0 44 -5v-152q-52 5 -63 5q-43 0 -74 -14t-59 -44v-334h-148v537zM77.5 -220.5q-5.5 5.5 -5.5 15.5v97q0 22 20 22h69q9 0 14.5 -6.5t5.5 -15.5v-97q0 -21 -20 -21h-69q-9 0 -14.5 5.5z" />
    <glyph glyph-name="uni1E5E" unicode="&#x1e5e;" horiz-adv-x="627" 
d="M64 740h306q98 0 154.5 -52.5t56.5 -184.5q0 -93 -31.5 -138t-85.5 -68l138 -297h-151l-119 274q-48 0 -120 2v-276h-148v740zM344 393q43 0 66 24.5t23 85.5q0 59 -23 81.5t-66 22.5h-132v-214h132zM165 -125h281v-88h-281v88z" />
    <glyph glyph-name="uni1E5F" unicode="&#x1e5f;" horiz-adv-x="423" 
d="M57 537h114l34 -82q32 42 68.5 65.5t83.5 23.5q26 0 44 -5v-152q-52 5 -63 5q-43 0 -74 -14t-59 -44v-334h-148v537zM-8 -125h281v-88h-281v88z" />
    <glyph glyph-name="uni1E60" unicode="&#x1e60;" horiz-adv-x="589" 
d="M165 1q-65 7 -110 18v117q89 -9 225 -9q61 0 92 16.5t31 58.5v27q0 33 -19.5 50.5t-55.5 17.5h-63q-110 0 -164.5 48t-54.5 157v36q0 208 239 208q56 0 116 -7.5t108 -17.5v-117q-137 9 -207 9q-57 0 -86 -17.5t-29 -64.5v-20q0 -38 21.5 -55.5t65.5 -17.5h73
q96 0 146.5 -52.5t50.5 -137.5v-42q0 -84 -31 -130.5t-87 -64t-139 -17.5q-57 0 -122 7zM238 809.5q-6 5.5 -6 15.5v97q0 10 5.5 16t15.5 6h69q9 0 14.5 -6.5t5.5 -15.5v-97q0 -21 -20 -21h-69q-9 0 -15 5.5z" />
    <glyph glyph-name="uni1E61" unicode="&#x1e61;" horiz-adv-x="505" 
d="M136.5 0.5q-60.5 6.5 -92.5 17.5v87h238q33 0 47 9t14 35v17q0 21 -13.5 31.5t-47.5 10.5h-84q-75 0 -119 34.5t-44 111.5v31q0 80 48.5 118.5t167.5 38.5q49 0 107 -7.5t88 -17.5v-87h-225q-31 0 -45 -10t-14 -35v-16q0 -25 15 -33.5t50 -8.5h86q80 0 118.5 -36.5
t38.5 -104.5v-48q0 -79 -54 -111.5t-164 -32.5q-55 0 -115.5 6.5zM195 649.5q-6 5.5 -6 15.5v97q0 10 5.5 16t15.5 6h69q9 0 14.5 -6.5t5.5 -15.5v-97q0 -21 -20 -21h-69q-9 0 -15 5.5z" />
    <glyph glyph-name="uni1E62" unicode="&#x1e62;" horiz-adv-x="589" 
d="M165 1q-65 7 -110 18v117q89 -9 225 -9q61 0 92 16.5t31 58.5v27q0 33 -19.5 50.5t-55.5 17.5h-63q-110 0 -164.5 48t-54.5 157v36q0 208 239 208q56 0 116 -7.5t108 -17.5v-117q-137 9 -207 9q-57 0 -86 -17.5t-29 -64.5v-20q0 -38 21.5 -55.5t65.5 -17.5h73
q96 0 146.5 -52.5t50.5 -137.5v-42q0 -84 -31 -130.5t-87 -64t-139 -17.5q-57 0 -122 7zM241 -220.5q-6 5.5 -6 15.5v97q0 10 5.5 16t15.5 6h69q9 0 14.5 -6.5t5.5 -15.5v-97q0 -21 -20 -21h-69q-9 0 -15 5.5z" />
    <glyph glyph-name="uni1E63" unicode="&#x1e63;" horiz-adv-x="505" 
d="M136.5 0.5q-60.5 6.5 -92.5 17.5v87h238q33 0 47 9t14 35v17q0 21 -13.5 31.5t-47.5 10.5h-84q-75 0 -119 34.5t-44 111.5v31q0 80 48.5 118.5t167.5 38.5q49 0 107 -7.5t88 -17.5v-87h-225q-31 0 -45 -10t-14 -35v-16q0 -25 15 -33.5t50 -8.5h86q80 0 118.5 -36.5
t38.5 -104.5v-48q0 -79 -54 -111.5t-164 -32.5q-55 0 -115.5 6.5zM192.5 -220.5q-5.5 5.5 -5.5 15.5v97q0 22 20 22h69q9 0 14.5 -6.5t5.5 -15.5v-97q0 -21 -20 -21h-69q-9 0 -14.5 5.5z" />
    <glyph glyph-name="uni1E64" unicode="&#x1e64;" horiz-adv-x="589" 
d="M165 1q-65 7 -110 18v117q89 -9 225 -9q61 0 92 16.5t31 58.5v27q0 33 -19.5 50.5t-55.5 17.5h-63q-110 0 -164.5 48t-54.5 157v36q0 208 239 208q56 0 116 -7.5t108 -17.5v-117q-137 9 -207 9q-57 0 -86 -17.5t-29 -64.5v-20q0 -38 21.5 -55.5t65.5 -17.5h73
q96 0 146.5 -52.5t50.5 -137.5v-42q0 -84 -31 -130.5t-87 -64t-139 -17.5q-57 0 -122 7zM309 931h119l-115 -140h-87zM282 966.5q-6 5.5 -6 15.5v97q0 10 5.5 16t15.5 6h69q9 0 14.5 -6.5t5.5 -15.5v-97q0 -21 -20 -21h-69q-9 0 -15 5.5z" />
    <glyph glyph-name="uni1E65" unicode="&#x1e65;" horiz-adv-x="505" 
d="M136.5 0.5q-60.5 6.5 -92.5 17.5v87h238q33 0 47 9t14 35v17q0 21 -13.5 31.5t-47.5 10.5h-84q-75 0 -119 34.5t-44 111.5v31q0 80 48.5 118.5t167.5 38.5q49 0 107 -7.5t88 -17.5v-87h-225q-31 0 -45 -10t-14 -35v-16q0 -25 15 -33.5t50 -8.5h86q80 0 118.5 -36.5
t38.5 -104.5v-48q0 -79 -54 -111.5t-164 -32.5q-55 0 -115.5 6.5zM253 771h119l-115 -140h-87zM220 806.5q-6 5.5 -6 15.5v97q0 10 5.5 16t15.5 6h69q9 0 14.5 -6.5t5.5 -15.5v-97q0 -21 -20 -21h-69q-9 0 -15 5.5z" />
    <glyph glyph-name="uni1E66" unicode="&#x1e66;" horiz-adv-x="589" 
d="M165 1q-65 7 -110 18v117q89 -9 225 -9q61 0 92 16.5t31 58.5v27q0 33 -19.5 50.5t-55.5 17.5h-63q-110 0 -164.5 48t-54.5 157v36q0 208 239 208q56 0 116 -7.5t108 -17.5v-117q-137 9 -207 9q-57 0 -86 -17.5t-29 -64.5v-20q0 -38 21.5 -55.5t65.5 -17.5h73
q96 0 146.5 -52.5t50.5 -137.5v-42q0 -84 -31 -130.5t-87 -64t-139 -17.5q-57 0 -122 7zM138 933h86l66 -76l70 76h86l-108 -142h-101zM238 973.5q-6 5.5 -6 15.5v97q0 10 5.5 16t15.5 6h69q9 0 14.5 -6.5t5.5 -15.5v-97q0 -21 -20 -21h-69q-9 0 -15 5.5z" />
    <glyph glyph-name="uni1E67" unicode="&#x1e67;" horiz-adv-x="505" 
d="M136.5 0.5q-60.5 6.5 -92.5 17.5v87h238q33 0 47 9t14 35v17q0 21 -13.5 31.5t-47.5 10.5h-84q-75 0 -119 34.5t-44 111.5v31q0 80 48.5 118.5t167.5 38.5q49 0 107 -7.5t88 -17.5v-87h-225q-31 0 -45 -10t-14 -35v-16q0 -25 15 -33.5t50 -8.5h86q80 0 118.5 -36.5
t38.5 -104.5v-48q0 -79 -54 -111.5t-164 -32.5q-55 0 -115.5 6.5zM94 773h86l66 -76l70 76h86l-108 -142h-101zM195 813.5q-6 5.5 -6 15.5v97q0 10 5.5 16t15.5 6h69q9 0 14.5 -6.5t5.5 -15.5v-97q0 -21 -20 -21h-69q-9 0 -15 5.5z" />
    <glyph glyph-name="uni1E68" unicode="&#x1e68;" horiz-adv-x="589" 
d="M165 1q-65 7 -110 18v117q89 -9 225 -9q61 0 92 16.5t31 58.5v27q0 33 -19.5 50.5t-55.5 17.5h-63q-110 0 -164.5 48t-54.5 157v36q0 208 239 208q56 0 116 -7.5t108 -17.5v-117q-137 9 -207 9q-57 0 -86 -17.5t-29 -64.5v-20q0 -38 21.5 -55.5t65.5 -17.5h73
q96 0 146.5 -52.5t50.5 -137.5v-42q0 -84 -31 -130.5t-87 -64t-139 -17.5q-57 0 -122 7zM241 -220.5q-6 5.5 -6 15.5v97q0 10 5.5 16t15.5 6h69q9 0 14.5 -6.5t5.5 -15.5v-97q0 -21 -20 -21h-69q-9 0 -15 5.5zM238 809.5q-6 5.5 -6 15.5v97q0 10 5.5 16t15.5 6h69
q9 0 14.5 -6.5t5.5 -15.5v-97q0 -21 -20 -21h-69q-9 0 -15 5.5z" />
    <glyph glyph-name="uni1E69" unicode="&#x1e69;" horiz-adv-x="505" 
d="M136.5 0.5q-60.5 6.5 -92.5 17.5v87h238q33 0 47 9t14 35v17q0 21 -13.5 31.5t-47.5 10.5h-84q-75 0 -119 34.5t-44 111.5v31q0 80 48.5 118.5t167.5 38.5q49 0 107 -7.5t88 -17.5v-87h-225q-31 0 -45 -10t-14 -35v-16q0 -25 15 -33.5t50 -8.5h86q80 0 118.5 -36.5
t38.5 -104.5v-48q0 -79 -54 -111.5t-164 -32.5q-55 0 -115.5 6.5zM192.5 -220.5q-5.5 5.5 -5.5 15.5v97q0 22 20 22h69q9 0 14.5 -6.5t5.5 -15.5v-97q0 -21 -20 -21h-69q-9 0 -14.5 5.5zM195 649.5q-6 5.5 -6 15.5v97q0 10 5.5 16t15.5 6h69q9 0 14.5 -6.5t5.5 -15.5v-97
q0 -21 -20 -21h-69q-9 0 -15 5.5z" />
    <glyph glyph-name="uni1E6A" unicode="&#x1e6a;" horiz-adv-x="587" 
d="M219 607h-203v133h555v-133h-204v-607h-148v607zM241 809.5q-6 5.5 -6 15.5v97q0 10 5.5 16t15.5 6h69q9 0 14.5 -6.5t5.5 -15.5v-97q0 -21 -20 -21h-69q-9 0 -15 5.5z" />
    <glyph glyph-name="uni1E6B" unicode="&#x1e6b;" horiz-adv-x="389" 
d="M160 18q-38 18 -55 60t-15 113l5 227h-84v95l89 24l20 150h117v-150h126v-119h-126v-226q0 -40 14 -56t39 -20l68 -6v-110h-97q-63 0 -101 18zM128 744.5q-6 5.5 -6 15.5v97q0 10 5.5 16t15.5 6h69q9 0 14.5 -6.5t5.5 -15.5v-97q0 -21 -20 -21h-69q-9 0 -15 5.5z" />
    <glyph glyph-name="uni1E6C" unicode="&#x1e6c;" horiz-adv-x="587" 
d="M219 607h-203v133h555v-133h-204v-607h-148v607zM244 -220.5q-6 5.5 -6 15.5v97q0 10 5.5 16t15.5 6h69q9 0 14.5 -6.5t5.5 -15.5v-97q0 -21 -20 -21h-69q-9 0 -15 5.5z" />
    <glyph glyph-name="uni1E6D" unicode="&#x1e6d;" horiz-adv-x="389" 
d="M160 18q-38 18 -55 60t-15 113l5 227h-84v95l89 24l20 150h117v-150h126v-119h-126v-226q0 -40 14 -56t39 -20l68 -6v-110h-97q-63 0 -101 18zM155.5 -220.5q-5.5 5.5 -5.5 15.5v97q0 22 20 22h69q9 0 14.5 -6.5t5.5 -15.5v-97q0 -21 -20 -21h-69q-9 0 -14.5 5.5z" />
    <glyph glyph-name="uni1E6E" unicode="&#x1e6e;" horiz-adv-x="587" 
d="M219 607h-203v133h555v-133h-204v-607h-148v607zM154 -125h281v-88h-281v88z" />
    <glyph glyph-name="uni1E6F" unicode="&#x1e6f;" horiz-adv-x="389" 
d="M160 18q-38 18 -55 60t-15 113l5 227h-84v95l89 24l20 150h117v-150h126v-119h-126v-226q0 -40 14 -56t39 -20l68 -6v-110h-97q-63 0 -101 18zM70 -125h281v-88h-281v88z" />
    <glyph glyph-name="uni1E78" unicode="&#x1e78;" horiz-adv-x="686" 
d="M129 47.5q-75 52.5 -75 190.5v502h148v-501q0 -59 35.5 -85t105.5 -26t105 26t35 85v501h149v-502q0 -138 -75.5 -190.5t-213.5 -52.5q-139 0 -214 52.5zM178.5 888q28.5 31 72.5 31q25 0 44 -7t43 -20q22 -11 33.5 -15.5t25.5 -4.5q20 0 31 13.5t12 38.5h74
q-3 -66 -29.5 -100t-73.5 -34q-24 0 -44 7t-46 20q-18 10 -31 15t-26 5q-19 0 -30.5 -13t-13.5 -35h-74q4 68 32.5 99zM379 1081h119l-115 -140h-87z" />
    <glyph glyph-name="uni1E79" unicode="&#x1e79;" horiz-adv-x="595" 
d="M95.5 37q-40.5 43 -40.5 120v380h148v-336q0 -43 19.5 -59.5t58.5 -16.5q28 0 57.5 10.5t52.5 28.5v373h149v-537h-123l-26 55q-93 -61 -182 -61q-73 0 -113.5 43zM146.5 728q28.5 31 72.5 31q25 0 44 -7t43 -20q22 -11 33.5 -15.5t25.5 -4.5q20 0 31 13.5t12 38.5h74
q-3 -66 -29.5 -100t-73.5 -34q-24 0 -44 7t-46 20q-18 10 -31 15t-26 5q-19 0 -30.5 -13t-13.5 -35h-74q4 68 32.5 99zM326 928h119l-115 -140h-87z" />
    <glyph glyph-name="uni1E7A" unicode="&#x1e7a;" horiz-adv-x="686" 
d="M129 47.5q-75 52.5 -75 190.5v502h148v-501q0 -59 35.5 -85t105.5 -26t105 26t35 85v501h149v-502q0 -138 -75.5 -190.5t-213.5 -52.5q-139 0 -214 52.5zM188 895h281v-88h-281v88zM172 944.5q-6 5.5 -6 15.5v97q0 10 5.5 16t15.5 6h69q9 0 14.5 -6.5t5.5 -15.5v-97
q0 -21 -20 -21h-69q-9 0 -15 5.5zM384.5 944.5q-5.5 5.5 -5.5 15.5v97q0 10 5 16t15 6h69q9 0 14.5 -6.5t5.5 -15.5v-97q0 -21 -20 -21h-69q-9 0 -14.5 5.5z" />
    <glyph glyph-name="uni1E7B" unicode="&#x1e7b;" horiz-adv-x="595" 
d="M95.5 37q-40.5 43 -40.5 120v380h148v-336q0 -43 19.5 -59.5t58.5 -16.5q28 0 57.5 10.5t52.5 28.5v373h149v-537h-123l-26 55q-93 -61 -182 -61q-73 0 -113.5 43zM149 735h281v-88h-281v88zM142 791.5q-6 5.5 -6 15.5v97q0 10 5.5 16t15.5 6h68q10 0 15 -6t5 -16v-97
q0 -21 -20 -21h-68q-9 0 -15 5.5zM338 791.5q-6 5.5 -6 15.5v97q0 10 5.5 16t15.5 6h69q9 0 14.5 -6.5t5.5 -15.5v-97q0 -21 -20 -21h-69q-9 0 -15 5.5z" />
    <glyph glyph-name="Wgrave" unicode="&#x1e80;" horiz-adv-x="991" 
d="M17 740h153l119 -522l139 522h136l138 -522l119 522h153l-177 -740h-151l-150 522l-151 -522h-151zM382 931h120l82 -140h-87z" />
    <glyph glyph-name="wgrave" unicode="&#x1e81;" horiz-adv-x="826" 
d="M12 537h153l85 -400l106 400h122l106 -400l77 400h153l-140 -537h-164l-96 327l-99 -327h-161zM283 771h120l82 -140h-87z" />
    <glyph glyph-name="Wacute" unicode="&#x1e82;" horiz-adv-x="991" 
d="M17 740h153l119 -522l139 522h136l138 -522l119 522h153l-177 -740h-151l-150 522l-151 -522h-151zM568 931h119l-115 -140h-87z" />
    <glyph glyph-name="wacute" unicode="&#x1e83;" horiz-adv-x="826" 
d="M12 537h153l85 -400l106 400h122l106 -400l77 400h153l-140 -537h-164l-96 327l-99 -327h-161zM459 771h119l-115 -140h-87z" />
    <glyph glyph-name="Wdieresis" unicode="&#x1e84;" horiz-adv-x="991" 
d="M17 740h153l119 -522l139 522h136l138 -522l119 522h153l-177 -740h-151l-150 522l-151 -522h-151zM361 802.5q-6 5.5 -6 15.5v97q0 10 5.5 16t15.5 6h69q9 0 14.5 -6.5t5.5 -15.5v-97q0 -21 -20 -21h-69q-9 0 -15 5.5zM573.5 802.5q-5.5 5.5 -5.5 15.5v97q0 10 5 16
t15 6h69q9 0 14.5 -6.5t5.5 -15.5v-97q0 -21 -20 -21h-69q-9 0 -14.5 5.5z" />
    <glyph glyph-name="wdieresis" unicode="&#x1e85;" horiz-adv-x="826" 
d="M12 537h153l85 -400l106 400h122l106 -400l77 400h153l-140 -537h-164l-96 327l-99 -327h-161zM268 642.5q-6 5.5 -6 15.5v97q0 10 5.5 16t15.5 6h68q10 0 15 -6t5 -16v-97q0 -21 -20 -21h-68q-9 0 -15 5.5zM464 642.5q-6 5.5 -6 15.5v97q0 10 5.5 16t15.5 6h69
q9 0 14.5 -6.5t5.5 -15.5v-97q0 -21 -20 -21h-69q-9 0 -15 5.5z" />
    <glyph glyph-name="uni1E8E" unicode="&#x1e8e;" horiz-adv-x="628" 
d="M240 224l-223 516h154l146 -365l145 365h148l-222 -516v-224h-148v224zM268 -220.5q-6 5.5 -6 15.5v97q0 10 5.5 16t15.5 6h69q9 0 14.5 -6.5t5.5 -15.5v-97q0 -21 -20 -21h-69q-9 0 -15 5.5z" />
    <glyph glyph-name="uni1E8F" unicode="&#x1e8f;" horiz-adv-x="569" 
d="M283 0q-133 0 -170 144l-101 393h154l85 -363q8 -33 24 -42t34 -11l97 416h150l-160 -675l-48 -99h-123zM466.5 -220.5q-5.5 5.5 -5.5 15.5v97q0 22 20 22h69q9 0 14.5 -6.5t5.5 -15.5v-97q0 -21 -20 -21h-69q-9 0 -14.5 5.5z" />
    <glyph glyph-name="uni1E92" unicode="&#x1e92;" horiz-adv-x="574" 
d="M38 119l319 488h-319v133h500v-118l-319 -489h319v-133h-500v119zM233 -220.5q-6 5.5 -6 15.5v97q0 10 5.5 16t15.5 6h69q9 0 14.5 -6.5t5.5 -15.5v-97q0 -21 -20 -21h-69q-9 0 -15 5.5z" />
    <glyph glyph-name="uni1E93" unicode="&#x1e93;" horiz-adv-x="505" 
d="M45 107l253 311h-263v119h435v-107l-254 -311h254v-119h-425v107zM191.5 -220.5q-5.5 5.5 -5.5 15.5v97q0 22 20 22h69q9 0 14.5 -6.5t5.5 -15.5v-97q0 -21 -20 -21h-69q-9 0 -14.5 5.5z" />
    <glyph glyph-name="uni1E97" unicode="&#x1e97;" horiz-adv-x="389" 
d="M160 18q-38 18 -55 60t-15 113l5 227h-84v95l89 24l20 150h117v-150h126v-119h-126v-226q0 -40 14 -56t39 -20l68 -6v-110h-97q-63 0 -101 18zM48 737.5q-6 5.5 -6 15.5v97q0 10 5.5 16t15.5 6h68q10 0 15 -6t5 -16v-97q0 -21 -20 -21h-68q-9 0 -15 5.5zM244 737.5
q-6 5.5 -6 15.5v97q0 10 5.5 16t15.5 6h69q9 0 14.5 -6.5t5.5 -15.5v-97q0 -21 -20 -21h-69q-9 0 -15 5.5z" />
    <glyph glyph-name="uni1E9E" unicode="&#x1e9e;" horiz-adv-x="723" 
d="M625.5 367.5q51.5 -44.5 51.5 -132.5v-42q0 -79 -28.5 -122.5t-79.5 -60t-127 -16.5q-39 0 -83 5t-77 13v117q41 -1 138 -1q54 0 81.5 16t27.5 58v23q0 37 -21.5 52.5t-68.5 15.5h-122v119h108l-47 89l88 106h-179q-37 0 -56 -18t-19 -51v-538h-148v536q0 106 60.5 155
t156.5 49q179 0 349 -11l-4 -7l4 3l-60 -199l-96 -114h6q94 0 145.5 -44.5z" />
    <glyph glyph-name="uni1EA0" unicode="&#x1ea0;" horiz-adv-x="685" 
d="M249 740h187l232 -740h-154l-47 155h-252l-46 -155h-152zM432 288l-91 325l-91 -325h182zM292 -220.5q-6 5.5 -6 15.5v97q0 10 5.5 16t15.5 6h69q9 0 14.5 -6.5t5.5 -15.5v-97q0 -21 -20 -21h-69q-9 0 -15 5.5z" />
    <glyph glyph-name="uni1EA1" unicode="&#x1ea1;" horiz-adv-x="550" 
d="M71.5 30.5q-37.5 36.5 -37.5 99.5v48q0 64 44.5 102t132.5 38h137v37q0 27 -9 42.5t-34 23t-74 7.5h-161v86q99 30 215 30q106 0 158.5 -40t52.5 -139v-365h-117l-24 57q-11 -11 -39 -26t-66.5 -26t-78.5 -11q-62 0 -99.5 36.5zM305 107.5q34 10.5 43 15.5v125l-90 -6
q-76 -6 -76 -66v-22q0 -57 66 -57q23 0 57 10.5zM216.5 -220.5q-5.5 5.5 -5.5 15.5v97q0 22 20 22h69q9 0 14.5 -6.5t5.5 -15.5v-97q0 -21 -20 -21h-69q-9 0 -14.5 5.5z" />
    <glyph glyph-name="uni1EA2" unicode="&#x1ea2;" horiz-adv-x="685" 
d="M249 740h187l232 -740h-154l-47 155h-252l-46 -155h-152zM432 288l-91 325l-91 -325h182zM311 834q40 11 40 40q0 28 -33 28q-11 0 -33 -6v58q24 8 52 8q46 0 69 -21.5t23 -61.5t-28.5 -66.5t-89.5 -43.5v65z" />
    <glyph glyph-name="uni1EA3" unicode="&#x1ea3;" horiz-adv-x="550" 
d="M71.5 30.5q-37.5 36.5 -37.5 99.5v48q0 64 44.5 102t132.5 38h137v37q0 27 -9 42.5t-34 23t-74 7.5h-161v86q99 30 215 30q106 0 158.5 -40t52.5 -139v-365h-117l-24 57q-11 -11 -39 -26t-66.5 -26t-78.5 -11q-62 0 -99.5 36.5zM305 107.5q34 10.5 43 15.5v125l-90 -6
q-76 -6 -76 -66v-22q0 -57 66 -57q23 0 57 10.5zM242 659q40 11 40 40q0 28 -33 28q-11 0 -33 -6v58q24 8 52 8q46 0 69 -21.5t23 -61.5t-28.5 -66.5t-89.5 -43.5v65z" />
    <glyph glyph-name="uni1EA4" unicode="&#x1ea4;" horiz-adv-x="685" 
d="M249 740h187l232 -740h-154l-47 155h-252l-46 -155h-152zM432 288l-91 325l-91 -325h182zM600 1001l-78 -125h-87l45 125h120zM395 900l98 -109h-86l-65 43l-70 -43h-87l109 109h101z" />
    <glyph glyph-name="uni1EA5" unicode="&#x1ea5;" horiz-adv-x="550" 
d="M71.5 30.5q-37.5 36.5 -37.5 99.5v48q0 64 44.5 102t132.5 38h137v37q0 27 -9 42.5t-34 23t-74 7.5h-161v86q99 30 215 30q106 0 158.5 -40t52.5 -139v-365h-117l-24 57q-11 -11 -39 -26t-66.5 -26t-78.5 -11q-62 0 -99.5 36.5zM305 107.5q34 10.5 43 15.5v125l-90 -6
q-76 -6 -76 -66v-22q0 -57 66 -57q23 0 57 10.5zM529 841l-78 -125h-87l45 125h120zM324 740l98 -109h-86l-65 43l-70 -43h-87l109 109h101z" />
    <glyph glyph-name="uni1EA6" unicode="&#x1ea6;" horiz-adv-x="685" 
d="M249 740h187l232 -740h-154l-47 155h-252l-46 -155h-152zM432 288l-91 325l-91 -325h182zM203 1001l46 -125h-87l-79 125h120zM395 900l98 -109h-86l-65 43l-70 -43h-87l109 109h101z" />
    <glyph glyph-name="uni1EA7" unicode="&#x1ea7;" horiz-adv-x="550" 
d="M71.5 30.5q-37.5 36.5 -37.5 99.5v48q0 64 44.5 102t132.5 38h137v37q0 27 -9 42.5t-34 23t-74 7.5h-161v86q99 30 215 30q106 0 158.5 -40t52.5 -139v-365h-117l-24 57q-11 -11 -39 -26t-66.5 -26t-78.5 -11q-62 0 -99.5 36.5zM305 107.5q34 10.5 43 15.5v125l-90 -6
q-76 -6 -76 -66v-22q0 -57 66 -57q23 0 57 10.5zM132 841l46 -125h-87l-79 125h120zM324 740l98 -109h-86l-65 43l-70 -43h-87l109 109h101z" />
    <glyph glyph-name="uni1EA8" unicode="&#x1ea8;" horiz-adv-x="685" 
d="M249 740h187l232 -740h-154l-47 155h-252l-46 -155h-152zM432 288l-91 325l-91 -325h182zM459 911q31 9 31 33q0 12 -5.5 17.5t-19.5 5.5q-17 0 -32 -6v51q24 8 52 8q37 0 56 -17.5t19 -48.5q0 -40 -24 -66.5t-77 -41.5v65zM294 900h101l98 -109h-86l-65 43l-70 -43h-87z
" />
    <glyph glyph-name="uni1EA9" unicode="&#x1ea9;" horiz-adv-x="550" 
d="M71.5 30.5q-37.5 36.5 -37.5 99.5v48q0 64 44.5 102t132.5 38h137v37q0 27 -9 42.5t-34 23t-74 7.5h-161v86q99 30 215 30q106 0 158.5 -40t52.5 -139v-365h-117l-24 57q-11 -11 -39 -26t-66.5 -26t-78.5 -11q-62 0 -99.5 36.5zM305 107.5q34 10.5 43 15.5v125l-90 -6
q-76 -6 -76 -66v-22q0 -57 66 -57q23 0 57 10.5zM388 751q31 9 31 33q0 12 -5.5 17.5t-19.5 5.5q-17 0 -32 -6v51q24 8 52 8q37 0 56 -17.5t19 -48.5q0 -40 -24 -66.5t-77 -41.5v65zM223 740h101l98 -109h-86l-65 43l-70 -43h-87z" />
    <glyph glyph-name="uni1EAA" unicode="&#x1eaa;" horiz-adv-x="685" 
d="M249 740h187l232 -740h-154l-47 155h-252l-46 -155h-152zM432 288l-91 325l-91 -325h182zM332 1026q4 -1 19.5 -6.5t29.5 -5.5q19 0 29 8.5t10 24.5h74q-5 -59 -25 -81.5t-61 -22.5q-23 0 -47.5 7.5t-29.5 8.5q-3 1 -20.5 6.5t-29.5 5.5q-14 0 -22 -8.5t-10 -21.5h-74
q5 58 27.5 79.5t60.5 21.5q29 0 69 -16zM493 791h-86l-65 43l-70 -43h-87l109 109h101z" />
    <glyph glyph-name="uni1EAB" unicode="&#x1eab;" horiz-adv-x="550" 
d="M71.5 30.5q-37.5 36.5 -37.5 99.5v48q0 64 44.5 102t132.5 38h137v37q0 27 -9 42.5t-34 23t-74 7.5h-161v86q99 30 215 30q106 0 158.5 -40t52.5 -139v-365h-117l-24 57q-11 -11 -39 -26t-66.5 -26t-78.5 -11q-62 0 -99.5 36.5zM305 107.5q34 10.5 43 15.5v125l-90 -6
q-76 -6 -76 -66v-22q0 -57 66 -57q23 0 57 10.5zM261 866q4 -1 19.5 -6.5t29.5 -5.5q19 0 29 8.5t10 24.5h74q-5 -59 -25 -81.5t-61 -22.5q-23 0 -47.5 7.5t-29.5 8.5q-3 1 -20.5 6.5t-29.5 5.5q-14 0 -22 -8.5t-10 -21.5h-74q5 58 27.5 79.5t60.5 21.5q29 0 69 -16z
M422 631h-86l-65 43l-70 -43h-87l109 109h101z" />
    <glyph glyph-name="uni1EAC" unicode="&#x1eac;" horiz-adv-x="685" 
d="M249 740h187l232 -740h-154l-47 155h-252l-46 -155h-152zM432 288l-91 325l-91 -325h182zM293 933h102l98 -142h-86l-66 76l-70 -76h-86zM292 -220.5q-6 5.5 -6 15.5v97q0 10 5.5 16t15.5 6h69q9 0 14.5 -6.5t5.5 -15.5v-97q0 -21 -20 -21h-69q-9 0 -15 5.5z" />
    <glyph glyph-name="uni1EAD" unicode="&#x1ead;" horiz-adv-x="550" 
d="M71.5 30.5q-37.5 36.5 -37.5 99.5v48q0 64 44.5 102t132.5 38h137v37q0 27 -9 42.5t-34 23t-74 7.5h-161v86q99 30 215 30q106 0 158.5 -40t52.5 -139v-365h-117l-24 57q-11 -11 -39 -26t-66.5 -26t-78.5 -11q-62 0 -99.5 36.5zM305 107.5q34 10.5 43 15.5v125l-90 -6
q-76 -6 -76 -66v-22q0 -57 66 -57q23 0 57 10.5zM222 773h102l98 -142h-86l-66 76l-70 -76h-86zM216.5 -220.5q-5.5 5.5 -5.5 15.5v97q0 22 20 22h69q9 0 14.5 -6.5t5.5 -15.5v-97q0 -21 -20 -21h-69q-9 0 -14.5 5.5z" />
    <glyph glyph-name="uni1EAE" unicode="&#x1eae;" horiz-adv-x="685" 
d="M249 740h187l232 -740h-154l-47 155h-252l-46 -155h-152zM432 288l-91 325l-91 -325h182zM374 1053h119l-115 -140h-87zM283.5 843q19.5 -14 50.5 -14q70 0 70 61h71q0 -62 -36.5 -91.5t-104.5 -29.5q-67 0 -103 30t-36 91h69q0 -33 19.5 -47z" />
    <glyph glyph-name="uni1EAF" unicode="&#x1eaf;" horiz-adv-x="550" 
d="M71.5 30.5q-37.5 36.5 -37.5 99.5v48q0 64 44.5 102t132.5 38h137v37q0 27 -9 42.5t-34 23t-74 7.5h-161v86q99 30 215 30q106 0 158.5 -40t52.5 -139v-365h-117l-24 57q-11 -11 -39 -26t-66.5 -26t-78.5 -11q-62 0 -99.5 36.5zM305 107.5q34 10.5 43 15.5v125l-90 -6
q-76 -6 -76 -66v-22q0 -57 66 -57q23 0 57 10.5zM303 893h119l-115 -140h-87zM212.5 683q19.5 -14 50.5 -14q70 0 70 61h71q0 -62 -36.5 -91.5t-104.5 -29.5q-67 0 -103 30t-36 91h69q0 -33 19.5 -47z" />
    <glyph glyph-name="uni1EB0" unicode="&#x1eb0;" horiz-adv-x="685" 
d="M249 740h187l232 -740h-154l-47 155h-252l-46 -155h-152zM432 288l-91 325l-91 -325h182zM183 1053h120l82 -140h-87zM283.5 843q19.5 -14 50.5 -14q70 0 70 61h71q0 -62 -36.5 -91.5t-104.5 -29.5q-67 0 -103 30t-36 91h69q0 -33 19.5 -47z" />
    <glyph glyph-name="uni1EB1" unicode="&#x1eb1;" horiz-adv-x="550" 
d="M71.5 30.5q-37.5 36.5 -37.5 99.5v48q0 64 44.5 102t132.5 38h137v37q0 27 -9 42.5t-34 23t-74 7.5h-161v86q99 30 215 30q106 0 158.5 -40t52.5 -139v-365h-117l-24 57q-11 -11 -39 -26t-66.5 -26t-78.5 -11q-62 0 -99.5 36.5zM305 107.5q34 10.5 43 15.5v125l-90 -6
q-76 -6 -76 -66v-22q0 -57 66 -57q23 0 57 10.5zM112 893h120l82 -140h-87zM212.5 683q19.5 -14 50.5 -14q70 0 70 61h71q0 -62 -36.5 -91.5t-104.5 -29.5q-67 0 -103 30t-36 91h69q0 -33 19.5 -47z" />
    <glyph glyph-name="uni1EB2" unicode="&#x1eb2;" horiz-adv-x="685" 
d="M249 740h187l232 -740h-154l-47 155h-252l-46 -155h-152zM432 288l-91 325l-91 -325h182zM313 936q40 11 40 40q0 28 -33 28q-11 0 -33 -6v58q24 8 52 8q46 0 69 -21.5t23 -61.5t-28.5 -66.5t-89.5 -43.5v65zM231 799q-36 30 -36 91h69q0 -33 19.5 -47t50.5 -14
q70 0 70 61h71q0 -62 -36.5 -91.5t-104.5 -29.5q-67 0 -103 30z" />
    <glyph glyph-name="uni1EB3" unicode="&#x1eb3;" horiz-adv-x="550" 
d="M71.5 30.5q-37.5 36.5 -37.5 99.5v48q0 64 44.5 102t132.5 38h137v37q0 27 -9 42.5t-34 23t-74 7.5h-161v86q99 30 215 30q106 0 158.5 -40t52.5 -139v-365h-117l-24 57q-11 -11 -39 -26t-66.5 -26t-78.5 -11q-62 0 -99.5 36.5zM305 107.5q34 10.5 43 15.5v125l-90 -6
q-76 -6 -76 -66v-22q0 -57 66 -57q23 0 57 10.5zM242 776q40 11 40 40q0 28 -33 28q-11 0 -33 -6v58q24 8 52 8q46 0 69 -21.5t23 -61.5t-28.5 -66.5t-89.5 -43.5v65zM160 639q-36 30 -36 91h69q0 -33 19.5 -47t50.5 -14q70 0 70 61h71q0 -62 -36.5 -91.5t-104.5 -29.5
q-67 0 -103 30z" />
    <glyph glyph-name="uni1EB4" unicode="&#x1eb4;" horiz-adv-x="685" 
d="M249 740h187l232 -740h-154l-47 155h-252l-46 -155h-152zM432 288l-91 325l-91 -325h182zM333 1011q12 -5 25 -8.5t23 -3.5q19 0 29 8.5t10 24.5h74q-5 -59 -25 -81.5t-61 -22.5q-22 0 -45.5 7.5t-26.5 8.5l-19.5 6.5t-27.5 5.5q-17 0 -27.5 -8t-12.5 -21h-74
q5 58 27.5 79t60.5 21q28 0 70 -16zM283.5 843q19.5 -14 50.5 -14q70 0 70 61h71q0 -62 -36.5 -91.5t-104.5 -29.5q-67 0 -103 30t-36 91h69q0 -33 19.5 -47z" />
    <glyph glyph-name="uni1EB5" unicode="&#x1eb5;" horiz-adv-x="550" 
d="M71.5 30.5q-37.5 36.5 -37.5 99.5v48q0 64 44.5 102t132.5 38h137v37q0 27 -9 42.5t-34 23t-74 7.5h-161v86q99 30 215 30q106 0 158.5 -40t52.5 -139v-365h-117l-24 57q-11 -11 -39 -26t-66.5 -26t-78.5 -11q-62 0 -99.5 36.5zM305 107.5q34 10.5 43 15.5v125l-90 -6
q-76 -6 -76 -66v-22q0 -57 66 -57q23 0 57 10.5zM262 851q12 -5 25 -8.5t23 -3.5q19 0 29 8.5t10 24.5h74q-5 -59 -25 -81.5t-61 -22.5q-22 0 -45.5 7.5t-26.5 8.5l-19.5 6.5t-27.5 5.5q-17 0 -27.5 -8t-12.5 -21h-74q5 58 27.5 79t60.5 21q28 0 70 -16zM212.5 683
q19.5 -14 50.5 -14q70 0 70 61h71q0 -62 -36.5 -91.5t-104.5 -29.5q-67 0 -103 30t-36 91h69q0 -33 19.5 -47z" />
    <glyph glyph-name="uni1EB6" unicode="&#x1eb6;" horiz-adv-x="685" 
d="M249 740h187l232 -740h-154l-47 155h-252l-46 -155h-152zM432 288l-91 325l-91 -325h182zM231.5 820.5q-36.5 37.5 -36.5 113.5h69q0 -44 20 -63.5t50 -19.5q70 0 70 83h70q0 -77 -36.5 -114t-103.5 -37q-66 0 -102.5 37.5zM292 -220.5q-6 5.5 -6 15.5v97q0 10 5.5 16
t15.5 6h69q9 0 14.5 -6.5t5.5 -15.5v-97q0 -21 -20 -21h-69q-9 0 -15 5.5z" />
    <glyph glyph-name="uni1EB7" unicode="&#x1eb7;" horiz-adv-x="550" 
d="M71.5 30.5q-37.5 36.5 -37.5 99.5v48q0 64 44.5 102t132.5 38h137v37q0 27 -9 42.5t-34 23t-74 7.5h-161v86q99 30 215 30q106 0 158.5 -40t52.5 -139v-365h-117l-24 57q-11 -11 -39 -26t-66.5 -26t-78.5 -11q-62 0 -99.5 36.5zM305 107.5q34 10.5 43 15.5v125l-90 -6
q-76 -6 -76 -66v-22q0 -57 66 -57q23 0 57 10.5zM160.5 660.5q-36.5 37.5 -36.5 113.5h69q0 -44 20 -63.5t50 -19.5q70 0 70 83h70q0 -77 -36.5 -114t-103.5 -37q-66 0 -102.5 37.5zM216.5 -220.5q-5.5 5.5 -5.5 15.5v97q0 22 20 22h69q9 0 14.5 -6.5t5.5 -15.5v-97
q0 -21 -20 -21h-69q-9 0 -14.5 5.5z" />
    <glyph glyph-name="uni1EB8" unicode="&#x1eb8;" horiz-adv-x="597" 
d="M118 27q-54 32 -54 131v413q0 90 49.5 129.5t119.5 39.5q153 0 320 -13v-124h-276q-65 0 -65 -61v-107l293 -8v-117l-293 -8v-102q0 -66 62 -66h279v-124q-133 -15 -309 -15q-72 0 -126 32zM284 -220.5q-6 5.5 -6 15.5v97q0 10 5.5 16t15.5 6h69q9 0 14.5 -6.5t5.5 -15.5
v-97q0 -21 -20 -21h-69q-9 0 -15 5.5z" />
    <glyph glyph-name="uni1EB9" unicode="&#x1eb9;" horiz-adv-x="537" 
d="M140 19q-52 24 -75.5 83t-23.5 166q0 110 22 169.5t72.5 83.5t142.5 24q82 0 129 -16t68.5 -56t21.5 -113q0 -78 -44.5 -111t-129.5 -33h-135q2 -43 13 -66.5t39 -34t82 -10.5h157v-87q-53 -11 -96 -17t-100 -6q-91 0 -143 24zM308 304q31 0 44.5 12.5t13.5 42.5
q0 44 -20 61.5t-68 17.5q-35 0 -54.5 -11.5t-28.5 -40.5t-9 -82h122zM216.5 -220.5q-5.5 5.5 -5.5 15.5v97q0 22 20 22h69q9 0 14.5 -6.5t5.5 -15.5v-97q0 -21 -20 -21h-69q-9 0 -14.5 5.5z" />
    <glyph glyph-name="uni1EBA" unicode="&#x1eba;" horiz-adv-x="597" 
d="M118 27q-54 32 -54 131v413q0 90 49.5 129.5t119.5 39.5q153 0 320 -13v-124h-276q-65 0 -65 -61v-107l293 -8v-117l-293 -8v-102q0 -66 62 -66h279v-124q-133 -15 -309 -15q-72 0 -126 32zM283 834q40 11 40 40q0 28 -33 28q-11 0 -33 -6v58q24 8 52 8q46 0 69 -21.5
t23 -61.5t-28.5 -66.5t-89.5 -43.5v65z" />
    <glyph glyph-name="uni1EBB" unicode="&#x1ebb;" horiz-adv-x="537" 
d="M140 19q-52 24 -75.5 83t-23.5 166q0 110 22 169.5t72.5 83.5t142.5 24q82 0 129 -16t68.5 -56t21.5 -113q0 -78 -44.5 -111t-129.5 -33h-135q2 -43 13 -66.5t39 -34t82 -10.5h157v-87q-53 -11 -96 -17t-100 -6q-91 0 -143 24zM308 304q31 0 44.5 12.5t13.5 42.5
q0 44 -20 61.5t-68 17.5q-35 0 -54.5 -11.5t-28.5 -40.5t-9 -82h122zM242 659q40 11 40 40q0 28 -33 28q-11 0 -33 -6v58q24 8 52 8q46 0 69 -21.5t23 -61.5t-28.5 -66.5t-89.5 -43.5v65z" />
    <glyph glyph-name="uni1EBC" unicode="&#x1ebc;" horiz-adv-x="597" 
d="M118 27q-54 32 -54 131v413q0 90 49.5 129.5t119.5 39.5q153 0 320 -13v-124h-276q-65 0 -65 -61v-107l293 -8v-117l-293 -8v-102q0 -66 62 -66h279v-124q-133 -15 -309 -15q-72 0 -126 32zM157.5 888q28.5 31 72.5 31q25 0 44 -7t43 -20q22 -11 33.5 -15.5t25.5 -4.5
q20 0 31 13.5t12 38.5h74q-3 -66 -29.5 -100t-73.5 -34q-24 0 -44 7t-46 20q-18 10 -31 15t-26 5q-19 0 -30.5 -13t-13.5 -35h-74q4 68 32.5 99z" />
    <glyph glyph-name="uni1EBD" unicode="&#x1ebd;" horiz-adv-x="537" 
d="M140 19q-52 24 -75.5 83t-23.5 166q0 110 22 169.5t72.5 83.5t142.5 24q82 0 129 -16t68.5 -56t21.5 -113q0 -78 -44.5 -111t-129.5 -33h-135q2 -43 13 -66.5t39 -34t82 -10.5h157v-87q-53 -11 -96 -17t-100 -6q-91 0 -143 24zM308 304q31 0 44.5 12.5t13.5 42.5
q0 44 -20 61.5t-68 17.5q-35 0 -54.5 -11.5t-28.5 -40.5t-9 -82h122zM123.5 728q28.5 31 72.5 31q25 0 44 -7t43 -20q22 -11 33.5 -15.5t25.5 -4.5q20 0 31 13.5t12 38.5h74q-3 -66 -29.5 -100t-73.5 -34q-24 0 -44 7t-46 20q-18 10 -31 15t-26 5q-19 0 -30.5 -13t-13.5 -35
h-74q4 68 32.5 99z" />
    <glyph glyph-name="uni1EBE" unicode="&#x1ebe;" horiz-adv-x="597" 
d="M118 27q-54 32 -54 131v413q0 90 49.5 129.5t119.5 39.5q153 0 320 -13v-124h-276q-65 0 -65 -61v-107l293 -8v-117l-293 -8v-102q0 -66 62 -66h279v-124q-133 -15 -309 -15q-72 0 -126 32zM572 1001l-78 -125h-87l45 125h120zM367 900l98 -109h-86l-65 43l-70 -43h-87
l109 109h101z" />
    <glyph glyph-name="uni1EBF" unicode="&#x1ebf;" horiz-adv-x="537" 
d="M140 19q-52 24 -75.5 83t-23.5 166q0 110 22 169.5t72.5 83.5t142.5 24q82 0 129 -16t68.5 -56t21.5 -113q0 -78 -44.5 -111t-129.5 -33h-135q2 -43 13 -66.5t39 -34t82 -10.5h157v-87q-53 -11 -96 -17t-100 -6q-91 0 -143 24zM308 304q31 0 44.5 12.5t13.5 42.5
q0 44 -20 61.5t-68 17.5q-35 0 -54.5 -11.5t-28.5 -40.5t-9 -82h122zM529 841l-78 -125h-87l45 125h120zM324 740l98 -109h-86l-65 43l-70 -43h-87l109 109h101z" />
    <glyph glyph-name="uni1EC0" unicode="&#x1ec0;" horiz-adv-x="597" 
d="M118 27q-54 32 -54 131v413q0 90 49.5 129.5t119.5 39.5q153 0 320 -13v-124h-276q-65 0 -65 -61v-107l293 -8v-117l-293 -8v-102q0 -66 62 -66h279v-124q-133 -15 -309 -15q-72 0 -126 32zM175 1001l46 -125h-87l-79 125h120zM367 900l98 -109h-86l-65 43l-70 -43h-87
l109 109h101z" />
    <glyph glyph-name="uni1EC1" unicode="&#x1ec1;" horiz-adv-x="537" 
d="M140 19q-52 24 -75.5 83t-23.5 166q0 110 22 169.5t72.5 83.5t142.5 24q82 0 129 -16t68.5 -56t21.5 -113q0 -78 -44.5 -111t-129.5 -33h-135q2 -43 13 -66.5t39 -34t82 -10.5h157v-87q-53 -11 -96 -17t-100 -6q-91 0 -143 24zM308 304q31 0 44.5 12.5t13.5 42.5
q0 44 -20 61.5t-68 17.5q-35 0 -54.5 -11.5t-28.5 -40.5t-9 -82h122zM132 841l46 -125h-87l-79 125h120zM324 740l98 -109h-86l-65 43l-70 -43h-87l109 109h101z" />
    <glyph glyph-name="uni1EC2" unicode="&#x1ec2;" horiz-adv-x="597" 
d="M118 27q-54 32 -54 131v413q0 90 49.5 129.5t119.5 39.5q153 0 320 -13v-124h-276q-65 0 -65 -61v-107l293 -8v-117l-293 -8v-102q0 -66 62 -66h279v-124q-133 -15 -309 -15q-72 0 -126 32zM431 911q31 9 31 33q0 12 -5.5 17.5t-19.5 5.5q-17 0 -32 -6v51q24 8 52 8
q37 0 56 -17.5t19 -48.5q0 -40 -24 -66.5t-77 -41.5v65zM266 900h101l98 -109h-86l-65 43l-70 -43h-87z" />
    <glyph glyph-name="uni1EC3" unicode="&#x1ec3;" horiz-adv-x="537" 
d="M140 19q-52 24 -75.5 83t-23.5 166q0 110 22 169.5t72.5 83.5t142.5 24q82 0 129 -16t68.5 -56t21.5 -113q0 -78 -44.5 -111t-129.5 -33h-135q2 -43 13 -66.5t39 -34t82 -10.5h157v-87q-53 -11 -96 -17t-100 -6q-91 0 -143 24zM308 304q31 0 44.5 12.5t13.5 42.5
q0 44 -20 61.5t-68 17.5q-35 0 -54.5 -11.5t-28.5 -40.5t-9 -82h122zM388 751q31 9 31 33q0 12 -5.5 17.5t-19.5 5.5q-17 0 -32 -6v51q24 8 52 8q37 0 56 -17.5t19 -48.5q0 -40 -24 -66.5t-77 -41.5v65zM223 740h101l98 -109h-86l-65 43l-70 -43h-87z" />
    <glyph glyph-name="uni1EC4" unicode="&#x1ec4;" horiz-adv-x="597" 
d="M118 27q-54 32 -54 131v413q0 90 49.5 129.5t119.5 39.5q153 0 320 -13v-124h-276q-65 0 -65 -61v-107l293 -8v-117l-293 -8v-102q0 -66 62 -66h279v-124q-133 -15 -309 -15q-72 0 -126 32zM304 1026q4 -1 19.5 -6.5t29.5 -5.5q19 0 29 8.5t10 24.5h74q-5 -59 -25 -81.5
t-61 -22.5q-23 0 -47.5 7.5t-29.5 8.5q-3 1 -20.5 6.5t-29.5 5.5q-14 0 -22 -8.5t-10 -21.5h-74q5 58 27.5 79.5t60.5 21.5q29 0 69 -16zM465 791h-86l-65 43l-70 -43h-87l109 109h101z" />
    <glyph glyph-name="uni1EC5" unicode="&#x1ec5;" horiz-adv-x="537" 
d="M140 19q-52 24 -75.5 83t-23.5 166q0 110 22 169.5t72.5 83.5t142.5 24q82 0 129 -16t68.5 -56t21.5 -113q0 -78 -44.5 -111t-129.5 -33h-135q2 -43 13 -66.5t39 -34t82 -10.5h157v-87q-53 -11 -96 -17t-100 -6q-91 0 -143 24zM308 304q31 0 44.5 12.5t13.5 42.5
q0 44 -20 61.5t-68 17.5q-35 0 -54.5 -11.5t-28.5 -40.5t-9 -82h122zM261 866q4 -1 19.5 -6.5t29.5 -5.5q19 0 29 8.5t10 24.5h74q-5 -59 -25 -81.5t-61 -22.5q-23 0 -47.5 7.5t-29.5 8.5q-3 1 -20.5 6.5t-29.5 5.5q-14 0 -22 -8.5t-10 -21.5h-74q5 58 27.5 79.5t60.5 21.5
q29 0 69 -16zM422 631h-86l-65 43l-70 -43h-87l109 109h101z" />
    <glyph glyph-name="uni1EC6" unicode="&#x1ec6;" horiz-adv-x="597" 
d="M118 27q-54 32 -54 131v413q0 90 49.5 129.5t119.5 39.5q153 0 320 -13v-124h-276q-65 0 -65 -61v-107l293 -8v-117l-293 -8v-102q0 -66 62 -66h279v-124q-133 -15 -309 -15q-72 0 -126 32zM265 933h102l98 -142h-86l-66 76l-70 -76h-86zM284 -220.5q-6 5.5 -6 15.5v97
q0 10 5.5 16t15.5 6h69q9 0 14.5 -6.5t5.5 -15.5v-97q0 -21 -20 -21h-69q-9 0 -15 5.5z" />
    <glyph glyph-name="uni1EC7" unicode="&#x1ec7;" horiz-adv-x="537" 
d="M140 19q-52 24 -75.5 83t-23.5 166q0 110 22 169.5t72.5 83.5t142.5 24q82 0 129 -16t68.5 -56t21.5 -113q0 -78 -44.5 -111t-129.5 -33h-135q2 -43 13 -66.5t39 -34t82 -10.5h157v-87q-53 -11 -96 -17t-100 -6q-91 0 -143 24zM308 304q31 0 44.5 12.5t13.5 42.5
q0 44 -20 61.5t-68 17.5q-35 0 -54.5 -11.5t-28.5 -40.5t-9 -82h122zM222 773h102l98 -142h-86l-66 76l-70 -76h-86zM216.5 -220.5q-5.5 5.5 -5.5 15.5v97q0 22 20 22h69q9 0 14.5 -6.5t5.5 -15.5v-97q0 -21 -20 -21h-69q-9 0 -14.5 5.5z" />
    <glyph glyph-name="uni1EC8" unicode="&#x1ec8;" horiz-adv-x="276" 
d="M64 740h148v-740h-148v740zM108 834q40 11 40 40q0 28 -33 28q-11 0 -33 -6v58q24 8 52 8q46 0 69 -21.5t23 -61.5t-28.5 -66.5t-89.5 -43.5v65z" />
    <glyph glyph-name="uni1EC9" unicode="&#x1ec9;" horiz-adv-x="261" 
d="M57 537h148v-537h-148v537zM103 659q40 11 40 40q0 28 -33 28q-11 0 -33 -6v58q24 8 52 8q46 0 69 -21.5t23 -61.5t-28.5 -66.5t-89.5 -43.5v65z" />
    <glyph glyph-name="uni1ECA" unicode="&#x1eca;" horiz-adv-x="276" 
d="M64 740h148v-740h-148v740zM89 -220.5q-6 5.5 -6 15.5v97q0 10 5.5 16t15.5 6h69q9 0 14.5 -6.5t5.5 -15.5v-97q0 -21 -20 -21h-69q-9 0 -15 5.5z" />
    <glyph glyph-name="uni1ECB" unicode="&#x1ecb;" horiz-adv-x="262" 
d="M59.5 621.5q-5.5 5.5 -5.5 14.5v98q0 21 21 21h114q9 0 14 -6t5 -15v-98q0 -20 -19 -20h-114q-10 0 -15.5 5.5zM57 537h148v-537h-148v537zM77.5 -220.5q-5.5 5.5 -5.5 15.5v97q0 22 20 22h69q9 0 14.5 -6.5t5.5 -15.5v-97q0 -21 -20 -21h-69q-9 0 -14.5 5.5z" />
    <glyph glyph-name="uni1ECC" unicode="&#x1ecc;" horiz-adv-x="699" 
d="M176 23q-65 29 -98 110t-33 236t33.5 236.5t98.5 111.5t173 30q109 0 173.5 -30t97.5 -111.5t33 -236.5t-33 -236t-97.5 -110t-173.5 -29t-174 29zM445.5 145.5q32.5 18.5 46.5 70t14 153.5q0 106 -14 157.5t-46.5 69.5t-95.5 18q-62 0 -94.5 -18t-47.5 -70t-15 -157
q0 -103 14 -154t46.5 -69.5t96.5 -18.5q63 0 95.5 18.5zM301 -220.5q-6 5.5 -6 15.5v97q0 10 5.5 16t15.5 6h69q9 0 14.5 -6.5t5.5 -15.5v-97q0 -21 -20 -21h-69q-9 0 -15 5.5z" />
    <glyph glyph-name="uni1ECD" unicode="&#x1ecd;" horiz-adv-x="575" 
d="M143 20.5q-53 25.5 -77.5 85t-24.5 164.5q0 109 24.5 168.5t77.5 83t144 23.5q92 0 145 -24.5t77.5 -84t24.5 -166.5t-24 -166.5t-77 -84t-146 -24.5q-91 0 -144 25.5zM346 123.5q20 10.5 30 44t10 102.5t-10 102.5t-30 44t-59 10.5q-38 0 -58 -10.5t-30 -44t-10 -102.5
t10 -102.5t30 -44t58 -10.5q39 0 59 10.5zM233.5 -220.5q-5.5 5.5 -5.5 15.5v97q0 22 20 22h69q9 0 14.5 -6.5t5.5 -15.5v-97q0 -21 -20 -21h-69q-9 0 -14.5 5.5z" />
    <glyph glyph-name="uni1ECE" unicode="&#x1ece;" horiz-adv-x="699" 
d="M176 23q-65 29 -98 110t-33 236t33.5 236.5t98.5 111.5t173 30q109 0 173.5 -30t97.5 -111.5t33 -236.5t-33 -236t-97.5 -110t-173.5 -29t-174 29zM445.5 145.5q32.5 18.5 46.5 70t14 153.5q0 106 -14 157.5t-46.5 69.5t-95.5 18q-62 0 -94.5 -18t-47.5 -70t-15 -157
q0 -103 14 -154t46.5 -69.5t96.5 -18.5q63 0 95.5 18.5zM320 834q40 11 40 40q0 28 -33 28q-11 0 -33 -6v58q24 8 52 8q46 0 69 -21.5t23 -61.5t-28.5 -66.5t-89.5 -43.5v65z" />
    <glyph glyph-name="uni1ECF" unicode="&#x1ecf;" horiz-adv-x="575" 
d="M143 20.5q-53 25.5 -77.5 85t-24.5 164.5q0 109 24.5 168.5t77.5 83t144 23.5q92 0 145 -24.5t77.5 -84t24.5 -166.5t-24 -166.5t-77 -84t-146 -24.5q-91 0 -144 25.5zM346 123.5q20 10.5 30 44t10 102.5t-10 102.5t-30 44t-59 10.5q-38 0 -58 -10.5t-30 -44t-10 -102.5
t10 -102.5t30 -44t58 -10.5q39 0 59 10.5zM259 659q40 11 40 40q0 28 -33 28q-11 0 -33 -6v58q24 8 52 8q46 0 69 -21.5t23 -61.5t-28.5 -66.5t-89.5 -43.5v65z" />
    <glyph glyph-name="uni1ED0" unicode="&#x1ed0;" horiz-adv-x="699" 
d="M176 23q-65 29 -98 110t-33 236t33.5 236.5t98.5 111.5t173 30q109 0 173.5 -30t97.5 -111.5t33 -236.5t-33 -236t-97.5 -110t-173.5 -29t-174 29zM445.5 145.5q32.5 18.5 46.5 70t14 153.5q0 106 -14 157.5t-46.5 69.5t-95.5 18q-62 0 -94.5 -18t-47.5 -70t-15 -157
q0 -103 14 -154t46.5 -69.5t96.5 -18.5q63 0 95.5 18.5zM609 1001l-78 -125h-87l45 125h120zM404 900l98 -109h-86l-65 43l-70 -43h-87l109 109h101z" />
    <glyph glyph-name="uni1ED1" unicode="&#x1ed1;" horiz-adv-x="575" 
d="M143 20.5q-53 25.5 -77.5 85t-24.5 164.5q0 109 24.5 168.5t77.5 83t144 23.5q92 0 145 -24.5t77.5 -84t24.5 -166.5t-24 -166.5t-77 -84t-146 -24.5q-91 0 -144 25.5zM346 123.5q20 10.5 30 44t10 102.5t-10 102.5t-30 44t-59 10.5q-38 0 -58 -10.5t-30 -44t-10 -102.5
t10 -102.5t30 -44t58 -10.5q39 0 59 10.5zM546 841l-78 -125h-87l45 125h120zM341 740l98 -109h-86l-65 43l-70 -43h-87l109 109h101z" />
    <glyph glyph-name="uni1ED2" unicode="&#x1ed2;" horiz-adv-x="699" 
d="M176 23q-65 29 -98 110t-33 236t33.5 236.5t98.5 111.5t173 30q109 0 173.5 -30t97.5 -111.5t33 -236.5t-33 -236t-97.5 -110t-173.5 -29t-174 29zM445.5 145.5q32.5 18.5 46.5 70t14 153.5q0 106 -14 157.5t-46.5 69.5t-95.5 18q-62 0 -94.5 -18t-47.5 -70t-15 -157
q0 -103 14 -154t46.5 -69.5t96.5 -18.5q63 0 95.5 18.5zM212 1001l46 -125h-87l-79 125h120zM404 900l98 -109h-86l-65 43l-70 -43h-87l109 109h101z" />
    <glyph glyph-name="uni1ED3" unicode="&#x1ed3;" horiz-adv-x="575" 
d="M143 20.5q-53 25.5 -77.5 85t-24.5 164.5q0 109 24.5 168.5t77.5 83t144 23.5q92 0 145 -24.5t77.5 -84t24.5 -166.5t-24 -166.5t-77 -84t-146 -24.5q-91 0 -144 25.5zM346 123.5q20 10.5 30 44t10 102.5t-10 102.5t-30 44t-59 10.5q-38 0 -58 -10.5t-30 -44t-10 -102.5
t10 -102.5t30 -44t58 -10.5q39 0 59 10.5zM149 841l46 -125h-87l-79 125h120zM341 740l98 -109h-86l-65 43l-70 -43h-87l109 109h101z" />
    <glyph glyph-name="uni1ED4" unicode="&#x1ed4;" horiz-adv-x="699" 
d="M176 23q-65 29 -98 110t-33 236t33.5 236.5t98.5 111.5t173 30q109 0 173.5 -30t97.5 -111.5t33 -236.5t-33 -236t-97.5 -110t-173.5 -29t-174 29zM445.5 145.5q32.5 18.5 46.5 70t14 153.5q0 106 -14 157.5t-46.5 69.5t-95.5 18q-62 0 -94.5 -18t-47.5 -70t-15 -157
q0 -103 14 -154t46.5 -69.5t96.5 -18.5q63 0 95.5 18.5zM468 911q31 9 31 33q0 12 -5.5 17.5t-19.5 5.5q-17 0 -32 -6v51q24 8 52 8q37 0 56 -17.5t19 -48.5q0 -40 -24 -66.5t-77 -41.5v65zM303 900h101l98 -109h-86l-65 43l-70 -43h-87z" />
    <glyph glyph-name="uni1ED5" unicode="&#x1ed5;" horiz-adv-x="575" 
d="M143 20.5q-53 25.5 -77.5 85t-24.5 164.5q0 109 24.5 168.5t77.5 83t144 23.5q92 0 145 -24.5t77.5 -84t24.5 -166.5t-24 -166.5t-77 -84t-146 -24.5q-91 0 -144 25.5zM346 123.5q20 10.5 30 44t10 102.5t-10 102.5t-30 44t-59 10.5q-38 0 -58 -10.5t-30 -44t-10 -102.5
t10 -102.5t30 -44t58 -10.5q39 0 59 10.5zM405 751q31 9 31 33q0 12 -5.5 17.5t-19.5 5.5q-17 0 -32 -6v51q24 8 52 8q37 0 56 -17.5t19 -48.5q0 -40 -24 -66.5t-77 -41.5v65zM240 740h101l98 -109h-86l-65 43l-70 -43h-87z" />
    <glyph glyph-name="uni1ED6" unicode="&#x1ed6;" horiz-adv-x="699" 
d="M176 23q-65 29 -98 110t-33 236t33.5 236.5t98.5 111.5t173 30q109 0 173.5 -30t97.5 -111.5t33 -236.5t-33 -236t-97.5 -110t-173.5 -29t-174 29zM445.5 145.5q32.5 18.5 46.5 70t14 153.5q0 106 -14 157.5t-46.5 69.5t-95.5 18q-62 0 -94.5 -18t-47.5 -70t-15 -157
q0 -103 14 -154t46.5 -69.5t96.5 -18.5q63 0 95.5 18.5zM341 1026q4 -1 19.5 -6.5t29.5 -5.5q19 0 29 8.5t10 24.5h74q-5 -59 -25 -81.5t-61 -22.5q-23 0 -47.5 7.5t-29.5 8.5q-3 1 -20.5 6.5t-29.5 5.5q-14 0 -22 -8.5t-10 -21.5h-74q5 58 27.5 79.5t60.5 21.5q29 0 69 -16
zM502 791h-86l-65 43l-70 -43h-87l109 109h101z" />
    <glyph glyph-name="uni1ED7" unicode="&#x1ed7;" horiz-adv-x="575" 
d="M143 20.5q-53 25.5 -77.5 85t-24.5 164.5q0 109 24.5 168.5t77.5 83t144 23.5q92 0 145 -24.5t77.5 -84t24.5 -166.5t-24 -166.5t-77 -84t-146 -24.5q-91 0 -144 25.5zM346 123.5q20 10.5 30 44t10 102.5t-10 102.5t-30 44t-59 10.5q-38 0 -58 -10.5t-30 -44t-10 -102.5
t10 -102.5t30 -44t58 -10.5q39 0 59 10.5zM278 866q4 -1 19.5 -6.5t29.5 -5.5q19 0 29 8.5t10 24.5h74q-5 -59 -25 -81.5t-61 -22.5q-23 0 -47.5 7.5t-29.5 8.5q-3 1 -20.5 6.5t-29.5 5.5q-14 0 -22 -8.5t-10 -21.5h-74q5 58 27.5 79.5t60.5 21.5q29 0 69 -16zM439 631h-86
l-65 43l-70 -43h-87l109 109h101z" />
    <glyph glyph-name="uni1ED8" unicode="&#x1ed8;" horiz-adv-x="699" 
d="M176 23q-65 29 -98 110t-33 236t33.5 236.5t98.5 111.5t173 30q109 0 173.5 -30t97.5 -111.5t33 -236.5t-33 -236t-97.5 -110t-173.5 -29t-174 29zM445.5 145.5q32.5 18.5 46.5 70t14 153.5q0 106 -14 157.5t-46.5 69.5t-95.5 18q-62 0 -94.5 -18t-47.5 -70t-15 -157
q0 -103 14 -154t46.5 -69.5t96.5 -18.5q63 0 95.5 18.5zM302 933h102l98 -142h-86l-66 76l-70 -76h-86zM301 -220.5q-6 5.5 -6 15.5v97q0 10 5.5 16t15.5 6h69q9 0 14.5 -6.5t5.5 -15.5v-97q0 -21 -20 -21h-69q-9 0 -15 5.5z" />
    <glyph glyph-name="uni1ED9" unicode="&#x1ed9;" horiz-adv-x="575" 
d="M143 20.5q-53 25.5 -77.5 85t-24.5 164.5q0 109 24.5 168.5t77.5 83t144 23.5q92 0 145 -24.5t77.5 -84t24.5 -166.5t-24 -166.5t-77 -84t-146 -24.5q-91 0 -144 25.5zM346 123.5q20 10.5 30 44t10 102.5t-10 102.5t-30 44t-59 10.5q-38 0 -58 -10.5t-30 -44t-10 -102.5
t10 -102.5t30 -44t58 -10.5q39 0 59 10.5zM239 773h102l98 -142h-86l-66 76l-70 -76h-86zM233.5 -220.5q-5.5 5.5 -5.5 15.5v97q0 22 20 22h69q9 0 14.5 -6.5t5.5 -15.5v-97q0 -21 -20 -21h-69q-9 0 -14.5 5.5z" />
    <glyph glyph-name="uni1EDA" unicode="&#x1eda;" horiz-adv-x="699" 
d="M648.5 734.5q-23.5 -45.5 -65.5 -63.5q36 -43 53.5 -116t17.5 -186q0 -155 -33 -236t-97.5 -110t-173.5 -29t-174 29t-98 110t-33 236t33.5 236.5t98.5 111.5t173 30q57 0 99 -7h49q35 0 53.5 25.5t18.5 84.5h102q0 -70 -23.5 -115.5zM445.5 145.5q32.5 18.5 46.5 70
t14 153.5q0 106 -14 157.5t-46.5 69.5t-95.5 18q-62 0 -94.5 -18t-47.5 -70t-15 -157q0 -103 14 -154t46.5 -69.5t96.5 -18.5q63 0 95.5 18.5zM376 931h119l-115 -140h-87z" />
    <glyph glyph-name="uni1EDB" unicode="&#x1edb;" horiz-adv-x="575" 
d="M545 538.5q-20 -43.5 -57 -64.5q24 -31 35 -81t11 -123q0 -107 -24 -166.5t-77 -84t-146 -24.5q-91 0 -144 25.5t-77.5 85t-24.5 164.5q0 109 24.5 168.5t77.5 83t144 23.5q58 0 94 -8h10q35 0 53 25t18 85h103q0 -65 -20 -108.5zM346 123.5q20 10.5 30 44t10 102.5
t-10 102.5t-30 44t-59 10.5q-38 0 -58 -10.5t-30 -44t-10 -102.5t10 -102.5t30 -44t58 -10.5q39 0 59 10.5zM314 771h119l-115 -140h-87z" />
    <glyph glyph-name="uni1EDC" unicode="&#x1edc;" horiz-adv-x="699" 
d="M648.5 734.5q-23.5 -45.5 -65.5 -63.5q36 -43 53.5 -116t17.5 -186q0 -155 -33 -236t-97.5 -110t-173.5 -29t-174 29t-98 110t-33 236t33.5 236.5t98.5 111.5t173 30q57 0 99 -7h49q35 0 53.5 25.5t18.5 84.5h102q0 -70 -23.5 -115.5zM445.5 145.5q32.5 18.5 46.5 70
t14 153.5q0 106 -14 157.5t-46.5 69.5t-95.5 18q-62 0 -94.5 -18t-47.5 -70t-15 -157q0 -103 14 -154t46.5 -69.5t96.5 -18.5q63 0 95.5 18.5zM183 931h120l82 -140h-87z" />
    <glyph glyph-name="uni1EDD" unicode="&#x1edd;" horiz-adv-x="575" 
d="M545 538.5q-20 -43.5 -57 -64.5q24 -31 35 -81t11 -123q0 -107 -24 -166.5t-77 -84t-146 -24.5q-91 0 -144 25.5t-77.5 85t-24.5 164.5q0 109 24.5 168.5t77.5 83t144 23.5q58 0 94 -8h10q35 0 53 25t18 85h103q0 -65 -20 -108.5zM346 123.5q20 10.5 30 44t10 102.5
t-10 102.5t-30 44t-59 10.5q-38 0 -58 -10.5t-30 -44t-10 -102.5t10 -102.5t30 -44t58 -10.5q39 0 59 10.5zM133 771h120l82 -140h-87z" />
    <glyph glyph-name="uni1EDE" unicode="&#x1ede;" horiz-adv-x="699" 
d="M648.5 734.5q-23.5 -45.5 -65.5 -63.5q36 -43 53.5 -116t17.5 -186q0 -155 -33 -236t-97.5 -110t-173.5 -29t-174 29t-98 110t-33 236t33.5 236.5t98.5 111.5t173 30q57 0 99 -7h49q35 0 53.5 25.5t18.5 84.5h102q0 -70 -23.5 -115.5zM445.5 145.5q32.5 18.5 46.5 70
t14 153.5q0 106 -14 157.5t-46.5 69.5t-95.5 18q-62 0 -94.5 -18t-47.5 -70t-15 -157q0 -103 14 -154t46.5 -69.5t96.5 -18.5q63 0 95.5 18.5zM317 834q40 11 40 40q0 28 -33 28q-11 0 -33 -6v58q24 8 52 8q46 0 69 -21.5t23 -61.5t-28.5 -66.5t-89.5 -43.5v65z" />
    <glyph glyph-name="uni1EDF" unicode="&#x1edf;" horiz-adv-x="575" 
d="M545 538.5q-20 -43.5 -57 -64.5q24 -31 35 -81t11 -123q0 -107 -24 -166.5t-77 -84t-146 -24.5q-91 0 -144 25.5t-77.5 85t-24.5 164.5q0 109 24.5 168.5t77.5 83t144 23.5q58 0 94 -8h10q35 0 53 25t18 85h103q0 -65 -20 -108.5zM346 123.5q20 10.5 30 44t10 102.5
t-10 102.5t-30 44t-59 10.5q-38 0 -58 -10.5t-30 -44t-10 -102.5t10 -102.5t30 -44t58 -10.5q39 0 59 10.5zM262 659q40 11 40 40q0 28 -33 28q-11 0 -33 -6v58q24 8 52 8q46 0 69 -21.5t23 -61.5t-28.5 -66.5t-89.5 -43.5v65z" />
    <glyph glyph-name="uni1EE0" unicode="&#x1ee0;" horiz-adv-x="699" 
d="M648.5 734.5q-23.5 -45.5 -65.5 -63.5q36 -43 53.5 -116t17.5 -186q0 -155 -33 -236t-97.5 -110t-173.5 -29t-174 29t-98 110t-33 236t33.5 236.5t98.5 111.5t173 30q57 0 99 -7h49q35 0 53.5 25.5t18.5 84.5h102q0 -70 -23.5 -115.5zM445.5 145.5q32.5 18.5 46.5 70
t14 153.5q0 106 -14 157.5t-46.5 69.5t-95.5 18q-62 0 -94.5 -18t-47.5 -70t-15 -157q0 -103 14 -154t46.5 -69.5t96.5 -18.5q63 0 95.5 18.5zM190.5 888q28.5 31 72.5 31q25 0 44 -7t43 -20q22 -11 33.5 -15.5t25.5 -4.5q20 0 31 13.5t12 38.5h74q-3 -66 -29.5 -100
t-73.5 -34q-24 0 -44 7t-46 20q-18 10 -31 15t-26 5q-19 0 -30.5 -13t-13.5 -35h-74q4 68 32.5 99z" />
    <glyph glyph-name="uni1EE1" unicode="&#x1ee1;" horiz-adv-x="575" 
d="M545 538.5q-20 -43.5 -57 -64.5q24 -31 35 -81t11 -123q0 -107 -24 -166.5t-77 -84t-146 -24.5q-91 0 -144 25.5t-77.5 85t-24.5 164.5q0 109 24.5 168.5t77.5 83t144 23.5q58 0 94 -8h10q35 0 53 25t18 85h103q0 -65 -20 -108.5zM346 123.5q20 10.5 30 44t10 102.5
t-10 102.5t-30 44t-59 10.5q-38 0 -58 -10.5t-30 -44t-10 -102.5t10 -102.5t30 -44t58 -10.5q39 0 59 10.5zM118.5 728q28.5 31 72.5 31q25 0 44 -7t43 -20q22 -11 33.5 -15.5t25.5 -4.5q20 0 31 13.5t12 38.5h74q-3 -66 -29.5 -100t-73.5 -34q-24 0 -44 7t-46 20
q-18 10 -31 15t-26 5q-19 0 -30.5 -13t-13.5 -35h-74q4 68 32.5 99z" />
    <glyph glyph-name="uni1EE2" unicode="&#x1ee2;" horiz-adv-x="699" 
d="M648.5 734.5q-23.5 -45.5 -65.5 -63.5q36 -43 53.5 -116t17.5 -186q0 -155 -33 -236t-97.5 -110t-173.5 -29t-174 29t-98 110t-33 236t33.5 236.5t98.5 111.5t173 30q57 0 99 -7h49q35 0 53.5 25.5t18.5 84.5h102q0 -70 -23.5 -115.5zM445.5 145.5q32.5 18.5 46.5 70
t14 153.5q0 106 -14 157.5t-46.5 69.5t-95.5 18q-62 0 -94.5 -18t-47.5 -70t-15 -157q0 -103 14 -154t46.5 -69.5t96.5 -18.5q63 0 95.5 18.5zM306 -220.5q-6 5.5 -6 15.5v97q0 10 5.5 16t15.5 6h69q9 0 14.5 -6.5t5.5 -15.5v-97q0 -21 -20 -21h-69q-9 0 -15 5.5z" />
    <glyph glyph-name="uni1EE3" unicode="&#x1ee3;" horiz-adv-x="575" 
d="M545 538.5q-20 -43.5 -57 -64.5q24 -31 35 -81t11 -123q0 -107 -24 -166.5t-77 -84t-146 -24.5q-91 0 -144 25.5t-77.5 85t-24.5 164.5q0 109 24.5 168.5t77.5 83t144 23.5q58 0 94 -8h10q35 0 53 25t18 85h103q0 -65 -20 -108.5zM346 123.5q20 10.5 30 44t10 102.5
t-10 102.5t-30 44t-59 10.5q-38 0 -58 -10.5t-30 -44t-10 -102.5t10 -102.5t30 -44t58 -10.5q39 0 59 10.5zM240.5 -220.5q-5.5 5.5 -5.5 15.5v97q0 22 20 22h69q9 0 14.5 -6.5t5.5 -15.5v-97q0 -21 -20 -21h-69q-9 0 -14.5 5.5z" />
    <glyph glyph-name="uni1EE4" unicode="&#x1ee4;" horiz-adv-x="686" 
d="M129 47.5q-75 52.5 -75 190.5v502h148v-501q0 -59 35.5 -85t105.5 -26t105 26t35 85v501h149v-502q0 -138 -75.5 -190.5t-213.5 -52.5q-139 0 -214 52.5zM285 -220.5q-6 5.5 -6 15.5v97q0 10 5.5 16t15.5 6h69q9 0 14.5 -6.5t5.5 -15.5v-97q0 -21 -20 -21h-69
q-9 0 -15 5.5z" />
    <glyph glyph-name="uni1EE5" unicode="&#x1ee5;" horiz-adv-x="595" 
d="M95.5 37q-40.5 43 -40.5 120v380h148v-336q0 -43 19.5 -59.5t58.5 -16.5q28 0 57.5 10.5t52.5 28.5v373h149v-537h-123l-26 55q-93 -61 -182 -61q-73 0 -113.5 43zM239.5 -220.5q-5.5 5.5 -5.5 15.5v97q0 22 20 22h69q9 0 14.5 -6.5t5.5 -15.5v-97q0 -21 -20 -21h-69
q-9 0 -14.5 5.5z" />
    <glyph glyph-name="uni1EE6" unicode="&#x1ee6;" horiz-adv-x="686" 
d="M129 47.5q-75 52.5 -75 190.5v502h148v-501q0 -59 35.5 -85t105.5 -26t105 26t35 85v501h149v-502q0 -138 -75.5 -190.5t-213.5 -52.5q-139 0 -214 52.5zM304 834q40 11 40 40q0 28 -33 28q-11 0 -33 -6v58q24 8 52 8q46 0 69 -21.5t23 -61.5t-28.5 -66.5t-89.5 -43.5v65
z" />
    <glyph glyph-name="uni1EE7" unicode="&#x1ee7;" horiz-adv-x="595" 
d="M95.5 37q-40.5 43 -40.5 120v380h148v-336q0 -43 19.5 -59.5t58.5 -16.5q28 0 57.5 10.5t52.5 28.5v373h149v-537h-123l-26 55q-93 -61 -182 -61q-73 0 -113.5 43zM265 659q40 11 40 40q0 28 -33 28q-11 0 -33 -6v58q24 8 52 8q46 0 69 -21.5t23 -61.5t-28.5 -66.5
t-89.5 -43.5v65z" />
    <glyph glyph-name="uni1EE8" unicode="&#x1ee8;" horiz-adv-x="686" 
d="M697.5 734.5q-23.5 -45.5 -65.5 -63.5v-433q0 -138 -75.5 -190.5t-213.5 -52.5q-139 0 -214 52.5t-75 190.5v502h148v-501q0 -59 35.5 -85t105.5 -26t105 26t35 85v501h64q35 0 53 25.5t18 84.5h103q0 -70 -23.5 -115.5zM373 931h119l-115 -140h-87z" />
    <glyph glyph-name="uni1EE9" unicode="&#x1ee9;" horiz-adv-x="595" 
d="M605 532q-23 -45 -65 -63v-469h-123l-26 55q-93 -61 -182 -61q-73 0 -113.5 43t-40.5 120v380h148v-336q0 -43 19.5 -59.5t58.5 -16.5q28 0 57.5 10.5t52.5 28.5v373h63q35 0 53 25t18 85h103q0 -70 -23 -115zM326 771h119l-115 -140h-87z" />
    <glyph glyph-name="uni1EEA" unicode="&#x1eea;" horiz-adv-x="686" 
d="M697.5 734.5q-23.5 -45.5 -65.5 -63.5v-433q0 -138 -75.5 -190.5t-213.5 -52.5q-139 0 -214 52.5t-75 190.5v502h148v-501q0 -59 35.5 -85t105.5 -26t105 26t35 85v501h64q35 0 53 25.5t18 84.5h103q0 -70 -23.5 -115.5zM193 931h120l82 -140h-87z" />
    <glyph glyph-name="uni1EEB" unicode="&#x1eeb;" horiz-adv-x="595" 
d="M605 532q-23 -45 -65 -63v-469h-123l-26 55q-93 -61 -182 -61q-73 0 -113.5 43t-40.5 120v380h148v-336q0 -43 19.5 -59.5t58.5 -16.5q28 0 57.5 10.5t52.5 28.5v373h63q35 0 53 25t18 85h103q0 -70 -23 -115zM143 771h120l82 -140h-87z" />
    <glyph glyph-name="uni1EEC" unicode="&#x1eec;" horiz-adv-x="686" 
d="M697.5 734.5q-23.5 -45.5 -65.5 -63.5v-433q0 -138 -75.5 -190.5t-213.5 -52.5q-139 0 -214 52.5t-75 190.5v502h148v-501q0 -59 35.5 -85t105.5 -26t105 26t35 85v501h64q35 0 53 25.5t18 84.5h103q0 -70 -23.5 -115.5zM316 834q40 11 40 40q0 28 -33 28q-11 0 -33 -6
v58q24 8 52 8q46 0 69 -21.5t23 -61.5t-28.5 -66.5t-89.5 -43.5v65z" />
    <glyph glyph-name="uni1EED" unicode="&#x1eed;" horiz-adv-x="595" 
d="M605 532q-23 -45 -65 -63v-469h-123l-26 55q-93 -61 -182 -61q-73 0 -113.5 43t-40.5 120v380h148v-336q0 -43 19.5 -59.5t58.5 -16.5q28 0 57.5 10.5t52.5 28.5v373h63q35 0 53 25t18 85h103q0 -70 -23 -115zM268 659q40 11 40 40q0 28 -33 28q-11 0 -33 -6v58
q24 8 52 8q46 0 69 -21.5t23 -61.5t-28.5 -66.5t-89.5 -43.5v65z" />
    <glyph glyph-name="uni1EEE" unicode="&#x1eee;" horiz-adv-x="686" 
d="M697.5 734.5q-23.5 -45.5 -65.5 -63.5v-433q0 -138 -75.5 -190.5t-213.5 -52.5q-139 0 -214 52.5t-75 190.5v502h148v-501q0 -59 35.5 -85t105.5 -26t105 26t35 85v501h64q35 0 53 25.5t18 84.5h103q0 -70 -23.5 -115.5zM197.5 888q28.5 31 72.5 31q25 0 44 -7t43 -20
q22 -11 33.5 -15.5t25.5 -4.5q20 0 31 13.5t12 38.5h74q-3 -66 -29.5 -100t-73.5 -34q-24 0 -44 7t-46 20q-18 10 -31 15t-26 5q-19 0 -30.5 -13t-13.5 -35h-74q4 68 32.5 99z" />
    <glyph glyph-name="uni1EEF" unicode="&#x1eef;" horiz-adv-x="595" 
d="M605 532q-23 -45 -65 -63v-469h-123l-26 55q-93 -61 -182 -61q-73 0 -113.5 43t-40.5 120v380h148v-336q0 -43 19.5 -59.5t58.5 -16.5q28 0 57.5 10.5t52.5 28.5v373h63q35 0 53 25t18 85h103q0 -70 -23 -115zM147.5 728q28.5 31 72.5 31q25 0 44 -7t43 -20
q22 -11 33.5 -15.5t25.5 -4.5q20 0 31 13.5t12 38.5h74q-3 -66 -29.5 -100t-73.5 -34q-24 0 -44 7t-46 20q-18 10 -31 15t-26 5q-19 0 -30.5 -13t-13.5 -35h-74q4 68 32.5 99z" />
    <glyph glyph-name="uni1EF0" unicode="&#x1ef0;" horiz-adv-x="686" 
d="M697.5 734.5q-23.5 -45.5 -65.5 -63.5v-433q0 -138 -75.5 -190.5t-213.5 -52.5q-139 0 -214 52.5t-75 190.5v502h148v-501q0 -59 35.5 -85t105.5 -26t105 26t35 85v501h64q35 0 53 25.5t18 84.5h103q0 -70 -23.5 -115.5zM281 -220.5q-6 5.5 -6 15.5v97q0 10 5.5 16
t15.5 6h69q9 0 14.5 -6.5t5.5 -15.5v-97q0 -21 -20 -21h-69q-9 0 -15 5.5z" />
    <glyph glyph-name="uni1EF1" unicode="&#x1ef1;" horiz-adv-x="595" 
d="M605 532q-23 -45 -65 -63v-469h-123l-26 55q-93 -61 -182 -61q-73 0 -113.5 43t-40.5 120v380h148v-336q0 -43 19.5 -59.5t58.5 -16.5q28 0 57.5 10.5t52.5 28.5v373h63q35 0 53 25t18 85h103q0 -70 -23 -115zM226.5 -220.5q-5.5 5.5 -5.5 15.5v97q0 22 20 22h69
q9 0 14.5 -6.5t5.5 -15.5v-97q0 -21 -20 -21h-69q-9 0 -14.5 5.5z" />
    <glyph glyph-name="Ygrave" unicode="&#x1ef2;" horiz-adv-x="628" 
d="M240 224l-223 516h154l146 -365l145 365h148l-222 -516v-224h-148v224zM176 931h120l82 -140h-87z" />
    <glyph glyph-name="ygrave" unicode="&#x1ef3;" horiz-adv-x="569" 
d="M283 0q-133 0 -170 144l-101 393h154l85 -363q8 -33 24 -42t34 -11l97 416h150l-160 -675l-48 -99h-123zM139 771h120l82 -140h-87z" />
    <glyph glyph-name="uni1EF4" unicode="&#x1ef4;" horiz-adv-x="628" 
d="M240 224l-223 516h154l146 -365l145 365h148l-222 -516v-224h-148v224zM268 -220.5q-6 5.5 -6 15.5v97q0 10 5.5 16t15.5 6h69q9 0 14.5 -6.5t5.5 -15.5v-97q0 -21 -20 -21h-69q-9 0 -15 5.5z" />
    <glyph glyph-name="uni1EF5" unicode="&#x1ef5;" horiz-adv-x="569" 
d="M283 0q-133 0 -170 144l-101 393h154l85 -363q8 -33 24 -42t34 -11l97 416h150l-160 -675l-48 -99h-123zM466.5 -220.5q-5.5 5.5 -5.5 15.5v97q0 22 20 22h69q9 0 14.5 -6.5t5.5 -15.5v-97q0 -21 -20 -21h-69q-9 0 -14.5 5.5z" />
    <glyph glyph-name="uni1EF6" unicode="&#x1ef6;" horiz-adv-x="628" 
d="M240 224l-223 516h154l146 -365l145 365h148l-222 -516v-224h-148v224zM287 834q40 11 40 40q0 28 -33 28q-11 0 -33 -6v58q24 8 52 8q46 0 69 -21.5t23 -61.5t-28.5 -66.5t-89.5 -43.5v65z" />
    <glyph glyph-name="uni1EF7" unicode="&#x1ef7;" horiz-adv-x="569" 
d="M283 0q-133 0 -170 144l-101 393h154l85 -363q8 -33 24 -42t34 -11l97 416h150l-160 -675l-48 -99h-123zM247 659q40 11 40 40q0 28 -33 28q-11 0 -33 -6v58q24 8 52 8q46 0 69 -21.5t23 -61.5t-28.5 -66.5t-89.5 -43.5v65z" />
    <glyph glyph-name="uni1EF8" unicode="&#x1ef8;" horiz-adv-x="628" 
d="M240 224l-223 516h154l146 -365l145 365h148l-222 -516v-224h-148v224zM161.5 888q28.5 31 72.5 31q25 0 44 -7t43 -20q22 -11 33.5 -15.5t25.5 -4.5q20 0 31 13.5t12 38.5h74q-3 -66 -29.5 -100t-73.5 -34q-24 0 -44 7t-46 20q-18 10 -31 15t-26 5q-19 0 -30.5 -13
t-13.5 -35h-74q4 68 32.5 99z" />
    <glyph glyph-name="uni1EF9" unicode="&#x1ef9;" horiz-adv-x="569" 
d="M283 0q-133 0 -170 144l-101 393h154l85 -363q8 -33 24 -42t34 -11l97 416h150l-160 -675l-48 -99h-123zM128.5 728q28.5 31 72.5 31q25 0 44 -7t43 -20q22 -11 33.5 -15.5t25.5 -4.5q20 0 31 13.5t12 38.5h74q-3 -66 -29.5 -100t-73.5 -34q-24 0 -44 7t-46 20
q-18 10 -31 15t-26 5q-19 0 -30.5 -13t-13.5 -35h-74q4 68 32.5 99z" />
    <glyph glyph-name="uni2007" unicode="&#x2007;" 
 />
    <glyph glyph-name="uni2008" unicode="&#x2008;" horiz-adv-x="234" 
 />
    <glyph glyph-name="uni2009" unicode="&#x2009;" horiz-adv-x="129" 
 />
    <glyph glyph-name="uni200A" unicode="&#x200a;" horiz-adv-x="80" 
 />
    <glyph glyph-name="uni200B" unicode="&#x200b;" horiz-adv-x="0" 
 />
    <glyph glyph-name="uni2010" unicode="&#x2010;" horiz-adv-x="350" 
d="M22 350h306v-120h-306v120z" />
    <glyph glyph-name="figuredash" unicode="&#x2012;" 
d="M68 350h473v-121h-473v121z" />
    <glyph glyph-name="endash" unicode="&#x2013;" horiz-adv-x="517" 
d="M22 350h473v-121h-473v121z" />
    <glyph glyph-name="emdash" unicode="&#x2014;" horiz-adv-x="740" 
d="M22 350h696v-121h-696v121z" />
    <glyph glyph-name="uni2015" unicode="&#x2015;" horiz-adv-x="740" 
d="M22 350h696v-121h-696v121z" />
    <glyph glyph-name="quoteleft" unicode="&#x2018;" horiz-adv-x="224" 
d="M49 523v153q0 48 28.5 66t67.5 18q23 0 34 -3v-54q-28 0 -28 -28v-29h10q10 0 16 -6t6 -17v-100q0 -24 -22 -24h-92q-20 0 -20 24z" />
    <glyph glyph-name="quoteright" unicode="&#x2019;" horiz-adv-x="224" 
d="M46 496v55q28 0 28 28v29h-10q-22 0 -22 22v101q0 24 22 24h91q20 0 20 -24v-153q0 -48 -28.5 -66.5t-66.5 -18.5q-22 0 -34 3z" />
    <glyph glyph-name="quotesinglbase" unicode="&#x201a;" horiz-adv-x="224" 
d="M58 -119q-9 1 -12 2v54q28 0 28 28v29h-10q-22 0 -22 23v100q0 24 22 24h91q20 0 20 -24v-153q0 -48 -28.5 -66t-66.5 -18q-13 0 -22 1z" />
    <glyph glyph-name="quotedblleft" unicode="&#x201c;" horiz-adv-x="392" 
d="M49 523v153q0 48 28.5 66t67.5 18q23 0 34 -3v-54q-28 0 -28 -28v-29h10q10 0 16 -6t6 -17v-100q0 -24 -22 -24h-92q-20 0 -20 24zM217 523v153q0 48 28.5 66t67.5 18q23 0 34 -3v-54q-28 0 -28 -28v-29h10q10 0 16 -6t6 -17v-100q0 -24 -22 -24h-92q-20 0 -20 24z" />
    <glyph glyph-name="quotedblright" unicode="&#x201d;" horiz-adv-x="392" 
d="M46 496v55q28 0 28 28v29h-10q-22 0 -22 22v101q0 24 22 24h91q20 0 20 -24v-153q0 -48 -28.5 -66.5t-66.5 -18.5q-22 0 -34 3zM214 496v55q28 0 28 28v29h-10q-22 0 -22 22v101q0 24 22 24h91q20 0 20 -24v-153q0 -48 -28.5 -66.5t-66.5 -18.5q-22 0 -34 3z" />
    <glyph glyph-name="quotedblbase" unicode="&#x201e;" horiz-adv-x="392" 
d="M58 -119q-9 1 -12 2v54q28 0 28 28v29h-10q-22 0 -22 23v100q0 24 22 24h91q20 0 20 -24v-153q0 -48 -28.5 -66t-66.5 -18q-13 0 -22 1zM226 -119q-9 1 -12 2v54q28 0 28 28v29h-10q-22 0 -22 23v100q0 24 22 24h91q20 0 20 -24v-153q0 -48 -28.5 -66t-66.5 -18
q-13 0 -22 1z" />
    <glyph glyph-name="dagger" unicode="&#x2020;" horiz-adv-x="462" 
d="M156 435l-141 13v112l141 12l10 198h131l11 -198l139 -12v-112l-139 -13l-12 -507h-131z" />
    <glyph glyph-name="daggerdbl" unicode="&#x2021;" horiz-adv-x="478" 
d="M154 128l-139 15v113l141 15v164l-141 13v112l141 12l10 198h131l11 -198l139 -12v-112l-139 -13v-165l139 -14v-113l-141 -14l-11 -201h-130z" />
    <glyph glyph-name="bullet" unicode="&#x2022;" horiz-adv-x="311" 
d="M75 298.5q-9 8.5 -9 23.5v118q0 16 8.5 25.5t24.5 9.5h112q35 0 35 -35v-118q0 -32 -35 -32h-112q-15 0 -24 8.5z" />
    <glyph glyph-name="ellipsis" unicode="&#x2026;" horiz-adv-x="816" 
d="M78 5.5q-6 5.5 -6 14.5v102q0 10 5.5 16t15.5 6h85q22 0 22 -22v-102q0 -20 -22 -20h-85q-9 0 -15 5.5zM350 5.5q-6 5.5 -6 14.5v102q0 10 5.5 16t15.5 6h85q22 0 22 -22v-102q0 -20 -22 -20h-85q-9 0 -15 5.5zM622 5.5q-6 5.5 -6 14.5v102q0 10 5.5 16t15.5 6h85
q22 0 22 -22v-102q0 -20 -22 -20h-85q-9 0 -15 5.5z" />
    </font>
</defs>
</svg>
